# https://github.com/mikedh/trimesh
v 1.81591642 2.92485380 0.00000000
v 2.16108751 2.53126168 0.00000000
v 1.98528159 2.72523355 0.00000000
v 2.53126168 2.16108751 0.00000000
v 2.92485380 1.81591642 0.00000000
v 2.72523355 1.98528159 0.00000000
v 2.34314585 2.34314585 0.00000000
v 1.49722648 3.34017849 0.00000000
v 1.34824312 3.55543804 0.00000000
v 1.07179677 4.00000000 0.00000000
v 0.82501805 4.46169043 0.00000000
v 0.94462991 4.22882605 0.00000000
v 1.20638251 3.77545714 0.00000000
v 0.71308941 4.69834375 0.00000000
v 0.51275259 5.18199968 0.00000000
v 0.60896373 4.93853235 0.00000000
v 0.34447733 5.67772245 0.00000000
v 0.27259338 5.92944765 0.00000000
v 0.42455897 5.42848444 0.00000000
v 1.65317333 3.12990856 0.00000000
v 3.34017849 1.49722648 0.00000000
v 3.55543804 1.34824312 0.00000000
v 4.00000000 1.07179677 0.00000000
v 3.77545714 1.20638251 0.00000000
v 4.22882605 0.94462991 0.00000000
v 4.46169043 0.82501805 0.00000000
v 3.12990856 1.65317333 0.00000000
v 4.69834375 0.71308941 0.00000000
v 4.93853235 0.60896373 0.00000000
v 5.18199968 0.51275259 0.00000000
v 5.42848444 0.42455897 0.00000000
v 5.67772245 0.34447733 0.00000000
v 5.92944765 0.27259338 0.00000000
v 0.20898417 6.18338966 0.00000000
v 0.15371776 6.43927765 0.00000000
v 0.10685334 6.69683599 0.00000000
v 0.06844111 6.95579052 0.00000000
v 0.03852219 7.21586275 0.00000000
v 0.01712861 7.47677517 0.00000000
v 0.00428330 7.73824739 0.00000000
v 0.00000000 8.00000000 0.00000000
v 6.18338966 0.20898417 0.00000000
v 6.43927765 0.15371776 0.00000000
v 6.69683599 0.10685334 0.00000000
v 6.95579052 0.06844111 0.00000000
v 7.21586275 0.03852219 0.00000000
v 7.47677517 0.01712861 0.00000000
v 7.73824739 0.00428330 0.00000000
v 8.00000000 0.00000000 0.00000000
v 6.45397902 6.73121357 7.00000000
v 6.54027176 6.63281536 7.00000000
v 6.49632025 6.68130827 7.00000000
v 6.63281536 6.54027176 7.00000000
v 6.73121357 6.45397902 7.00000000
v 6.68130827 6.49632025 7.00000000
v 6.58578634 6.58578634 7.00000000
v 6.37430668 6.83504438 7.00000000
v 6.33706093 6.88885975 7.00000000
v 6.26794910 7.00000000 7.00000000
v 6.20625448 7.11542273 7.00000000
v 6.23615742 7.05720663 7.00000000
v 6.30159569 6.94386435 7.00000000
v 6.17827225 7.17458582 7.00000000
v 6.12818813 7.29549980 7.00000000
v 6.15224075 7.23463297 7.00000000
v 6.08611917 7.41943073 7.00000000
v 6.06814814 7.48236179 7.00000000
v 6.10613966 7.35712099 7.00000000
v 6.41329336 6.78247738 7.00000000
v 6.83504438 6.37430668 7.00000000
v 6.88885975 6.33706093 7.00000000
v 7.00000000 6.26794910 7.00000000
v 6.94386435 6.30159569 7.00000000
v 7.05720663 6.23615742 7.00000000
v 7.11542273 6.20625448 7.00000000
v 6.78247738 6.41329336 7.00000000
v 7.17458582 6.17827225 7.00000000
v 7.23463297 6.15224075 7.00000000
v 7.29549980 6.12818813 7.00000000
v 7.35712099 6.10613966 7.00000000
v 7.41943073 6.08611917 7.00000000
v 7.48236179 6.06814814 7.00000000
v 6.05224609 7.54584742 7.00000000
v 6.03842926 7.60981941 7.00000000
v 6.02671337 7.67420912 7.00000000
v 6.01711035 7.73894739 7.00000000
v 6.00963068 7.80396557 7.00000000
v 6.00428200 7.86919355 7.00000000
v 6.00107098 7.93456173 7.00000000
v 6.00000000 8.00000000 7.00000000
v 7.54584742 6.05224609 7.00000000
v 7.60981941 6.03842926 7.00000000
v 7.67420912 6.02671337 7.00000000
v 7.73894739 6.01711035 7.00000000
v 7.80396557 6.00963068 7.00000000
v 7.86919355 6.00428200 7.00000000
v 7.93456173 6.00107098 7.00000000
v 8.00000000 6.00000000 7.00000000
v 1.81591642 2.92485380 10.00000000
v 2.16108751 2.53126168 10.00000000
v 1.98528159 2.72523355 10.00000000
v 2.53126168 2.16108751 10.00000000
v 2.92485380 1.81591642 10.00000000
v 2.72523355 1.98528159 10.00000000
v 2.34314585 2.34314585 10.00000000
v 1.49722648 3.34017849 10.00000000
v 1.34824312 3.55543804 10.00000000
v 1.07179677 4.00000000 10.00000000
v 0.82501805 4.46169043 10.00000000
v 0.94462991 4.22882605 10.00000000
v 1.20638251 3.77545714 10.00000000
v 0.71308941 4.69834375 10.00000000
v 0.51275259 5.18199968 10.00000000
v 0.60896373 4.93853235 10.00000000
v 0.34447733 5.67772245 10.00000000
v 0.27259338 5.92944765 10.00000000
v 0.42455897 5.42848444 10.00000000
v 1.65317333 3.12990856 10.00000000
v 3.34017849 1.49722648 10.00000000
v 3.55543804 1.34824312 10.00000000
v 4.00000000 1.07179677 10.00000000
v 3.77545714 1.20638251 10.00000000
v 4.22882605 0.94462991 10.00000000
v 4.46169043 0.82501805 10.00000000
v 3.12990856 1.65317333 10.00000000
v 4.69834375 0.71308941 10.00000000
v 4.93853235 0.60896373 10.00000000
v 5.18199968 0.51275259 10.00000000
v 5.42848444 0.42455897 10.00000000
v 5.67772245 0.34447733 10.00000000
v 5.92944765 0.27259338 10.00000000
v 0.20898417 6.18338966 10.00000000
v 0.15371776 6.43927765 10.00000000
v 0.10685334 6.69683599 10.00000000
v 0.06844111 6.95579052 10.00000000
v 0.03852219 7.21586275 10.00000000
v 0.01712861 7.47677517 10.00000000
v 0.00428330 7.73824739 10.00000000
v 0.00000000 8.00000000 10.00000000
v 6.18338966 0.20898417 10.00000000
v 6.43927765 0.15371776 10.00000000
v 6.69683599 0.10685334 10.00000000
v 6.95579052 0.06844111 10.00000000
v 7.21586275 0.03852219 10.00000000
v 7.47677517 0.01712861 10.00000000
v 7.73824739 0.00428330 10.00000000
v 8.00000000 0.00000000 10.00000000
v 6.45397902 6.73121357 10.00000000
v 6.54027176 6.63281536 10.00000000
v 6.49632025 6.68130827 10.00000000
v 6.63281536 6.54027176 10.00000000
v 6.73121357 6.45397902 10.00000000
v 6.68130827 6.49632025 10.00000000
v 6.58578634 6.58578634 10.00000000
v 6.37430668 6.83504438 10.00000000
v 6.33706093 6.88885975 10.00000000
v 6.26794910 7.00000000 10.00000000
v 6.20625448 7.11542273 10.00000000
v 6.23615742 7.05720663 10.00000000
v 6.30159569 6.94386435 10.00000000
v 6.17827225 7.17458582 10.00000000
v 6.12818813 7.29549980 10.00000000
v 6.15224075 7.23463297 10.00000000
v 6.08611917 7.41943073 10.00000000
v 6.06814814 7.48236179 10.00000000
v 6.10613966 7.35712099 10.00000000
v 6.41329336 6.78247738 10.00000000
v 6.83504438 6.37430668 10.00000000
v 6.88885975 6.33706093 10.00000000
v 7.00000000 6.26794910 10.00000000
v 6.94386435 6.30159569 10.00000000
v 7.05720663 6.23615742 10.00000000
v 7.11542273 6.20625448 10.00000000
v 6.78247738 6.41329336 10.00000000
v 7.17458582 6.17827225 10.00000000
v 7.23463297 6.15224075 10.00000000
v 7.29549980 6.12818813 10.00000000
v 7.35712099 6.10613966 10.00000000
v 7.41943073 6.08611917 10.00000000
v 7.48236179 6.06814814 10.00000000
v 6.05224609 7.54584742 10.00000000
v 6.03842926 7.60981941 10.00000000
v 6.02671337 7.67420912 10.00000000
v 6.01711035 7.73894739 10.00000000
v 6.00963068 7.80396557 10.00000000
v 6.00428200 7.86919355 10.00000000
v 6.00107098 7.93456173 10.00000000
v 6.00000000 8.00000000 10.00000000
v 7.54584742 6.05224609 10.00000000
v 7.60981941 6.03842926 10.00000000
v 7.67420912 6.02671337 10.00000000
v 7.73894739 6.01711035 10.00000000
v 7.80396557 6.00963068 10.00000000
v 7.86919355 6.00428200 10.00000000
v 7.93456173 6.00107098 10.00000000
v 8.00000000 6.00000000 10.00000000
v 21.09357643 5.20976114 8.80000019
v 21.07539940 5.23696613 8.80000019
v 21.08426476 5.22321510 8.80000019
v 21.18280411 5.11449480 8.80000019
v 21.17032623 5.12508011 8.80000019
v 21.15820312 5.13606787 8.80000019
v 21.14644623 5.14744663 8.80000019
v 21.11349487 5.18380356 8.80000019
v 21.10332298 5.19661951 8.80000019
v 21.13506889 5.15920401 8.80000019
v 21.12408066 5.17132711 8.80000019
v 21.27885628 5.05256367 8.80000019
v 21.26430130 5.06003952 8.80000019
v 21.32387543 5.03304720 8.80000019
v 21.29364586 5.04556799 8.80000019
v 21.30865860 5.03906012 8.80000019
v 21.33928108 5.02753496 8.80000019
v 21.35485840 5.02252960 8.80000019
v 21.37059021 5.01803732 8.80000019
v 21.20876122 5.09457684 8.80000019
v 21.22221565 5.08526516 8.80000019
v 21.19561958 5.10432339 8.80000019
v 21.25000000 5.06798744 8.80000019
v 21.23596573 5.07639885 8.80000019
v 21.38646126 5.01406145 8.80000019
v 21.41855240 5.00767851 8.80000019
v 21.40245438 5.01060724 8.80000019
v 21.43473625 5.00527763 8.80000019
v 21.45099068 5.00340748 8.80000019
v 21.46729851 5.00207043 8.80000019
v 21.48364067 5.00126791 8.80000019
v 21.50000000 5.00099993 8.80000019
v 21.04456902 5.29464626 8.80000019
v 21.03806114 5.30965805 8.80000019
v 21.03204727 5.32487488 8.80000019
v 21.02653503 5.34028006 8.80000019
v 21.06698799 5.25099993 8.80000019
v 21.05904007 5.26530170 8.80000019
v 21.05156326 5.27985573 8.80000019
v 21.02153015 5.35585785 8.80000019
v 21.01703644 5.37159061 8.80000019
v 21.01306152 5.38746166 8.80000019
v 21.00960732 5.40345478 8.80000019
v 21.00667763 5.41955233 8.80000019
v 21.00427818 5.43573713 8.80000019
v 21.00240707 5.45199156 8.80000019
v 21.00107002 5.46829844 8.80000019
v 21.00026703 5.48464060 8.80000019
v 21.00000000 5.50099993 8.80000019
v 21.09357643 5.20976114 10.00000000
v 21.08426476 5.22321510 10.00000000
v 21.07539940 5.23696613 10.00000000
v 21.18280411 5.11449480 10.00000000
v 21.15820312 5.13606787 10.00000000
v 21.17032623 5.12508011 10.00000000
v 21.14644623 5.14744663 10.00000000
v 21.11349487 5.18380356 10.00000000
v 21.10332298 5.19661951 10.00000000
v 21.13506889 5.15920401 10.00000000
v 21.12408066 5.17132711 10.00000000
v 21.27885628 5.05256367 10.00000000
v 21.26430130 5.06003952 10.00000000
v 21.29364586 5.04556799 10.00000000
v 21.32387543 5.03304720 10.00000000
v 21.30865860 5.03906012 10.00000000
v 21.35485840 5.02252960 10.00000000
v 21.33928108 5.02753496 10.00000000
v 21.37059021 5.01803732 10.00000000
v 21.22221565 5.08526516 10.00000000
v 21.20876122 5.09457684 10.00000000
v 21.19561958 5.10432339 10.00000000
v 21.25000000 5.06798744 10.00000000
v 21.23596573 5.07639885 10.00000000
v 21.38646126 5.01406145 10.00000000
v 21.40245438 5.01060724 10.00000000
v 21.41855240 5.00767851 10.00000000
v 21.43473625 5.00527763 10.00000000
v 21.45099068 5.00340748 10.00000000
v 21.46729851 5.00207043 10.00000000
v 21.48364067 5.00126791 10.00000000
v 21.50000000 5.00099993 10.00000000
v 21.04456902 5.29464626 10.00000000
v 21.03806114 5.30965805 10.00000000
v 21.03204727 5.32487488 10.00000000
v 21.02653503 5.34028006 10.00000000
v 21.06698799 5.25099993 10.00000000
v 21.05904007 5.26530170 10.00000000
v 21.05156326 5.27985573 10.00000000
v 21.02153015 5.35585785 10.00000000
v 21.01703644 5.37159061 10.00000000
v 21.01306152 5.38746166 10.00000000
v 21.00960732 5.40345478 10.00000000
v 21.00667763 5.41955233 10.00000000
v 21.00427818 5.43573713 10.00000000
v 21.00240707 5.45199156 10.00000000
v 21.00107002 5.46829844 10.00000000
v 21.00026703 5.48464060 10.00000000
v 21.00000000 5.50099993 10.00000000
v 21.00000000 6.00000000 8.80000019
v 21.00000000 6.00000000 10.00000000
v 0.00000000 40.00000000 0.00000000
v 0.00428330 40.26175308 0.00000000
v 0.01712861 40.52322388 0.00000000
v 0.03852219 40.78413773 0.00000000
v 0.06844111 41.04420853 0.00000000
v 0.10685334 41.30316544 0.00000000
v 0.15371776 41.56072235 0.00000000
v 0.20898417 41.81660843 0.00000000
v 0.27259338 42.07055283 0.00000000
v 0.34447733 42.32227707 0.00000000
v 0.42455897 42.57151413 0.00000000
v 0.51275259 42.81800079 0.00000000
v 0.60896373 43.06146622 0.00000000
v 0.71308941 43.30165482 0.00000000
v 0.82501805 43.53831100 0.00000000
v 0.94462991 43.77117538 0.00000000
v 1.07179677 44.00000000 0.00000000
v 1.20638251 44.22454453 0.00000000
v 1.34824312 44.44456100 0.00000000
v 1.49722648 44.65982056 0.00000000
v 1.65317333 44.87009048 0.00000000
v 1.81591642 45.07514572 0.00000000
v 1.98528159 45.27476501 0.00000000
v 2.16108751 45.46873856 0.00000000
v 2.34314585 45.65685272 0.00000000
v 2.53126168 45.83891296 0.00000000
v 2.72523355 46.01471710 0.00000000
v 2.92485380 46.18408203 0.00000000
v 3.12990856 46.34682846 0.00000000
v 3.34017849 46.50277328 0.00000000
v 3.55543804 46.65175629 0.00000000
v 3.77545714 46.79361725 0.00000000
v 4.00000000 46.92820358 0.00000000
v 4.22882605 47.05537033 0.00000000
v 4.46169043 47.17498016 0.00000000
v 4.69834375 47.28691101 0.00000000
v 4.93853235 47.39103699 0.00000000
v 5.18199968 47.48724747 0.00000000
v 5.42848444 47.57543945 0.00000000
v 5.67772245 47.65552139 0.00000000
v 5.92944765 47.72740555 0.00000000
v 6.18338966 47.79101562 0.00000000
v 6.43927765 47.84628296 0.00000000
v 6.69683599 47.89314651 0.00000000
v 6.95579052 47.93156052 0.00000000
v 7.21586275 47.96147919 0.00000000
v 7.47677517 47.98287201 0.00000000
v 7.73824739 47.99571609 0.00000000
v 8.00000000 48.00000000 0.00000000
v 6.00000000 40.00000000 7.00000000
v 6.00107098 40.06543732 7.00000000
v 6.00428200 40.13080597 7.00000000
v 6.00963068 40.19603348 7.00000000
v 6.01711035 40.26105118 7.00000000
v 6.02671337 40.32579041 7.00000000
v 6.03842926 40.39018250 7.00000000
v 6.05224609 40.45415115 7.00000000
v 6.06814814 40.51763916 7.00000000
v 6.08611917 40.58057022 7.00000000
v 6.10613966 40.64287949 7.00000000
v 6.12818813 40.70449829 7.00000000
v 6.15224075 40.76536560 7.00000000
v 6.17827225 40.82541275 7.00000000
v 6.20625448 40.88457870 7.00000000
v 6.23615742 40.94279480 7.00000000
v 6.26794910 41.00000000 7.00000000
v 6.30159569 41.05613708 7.00000000
v 6.33706093 41.11114120 7.00000000
v 6.37430668 41.16495514 7.00000000
v 6.41329336 41.21752167 7.00000000
v 6.45397902 41.26878738 7.00000000
v 6.49632025 41.31869125 7.00000000
v 6.54027176 41.36718369 7.00000000
v 6.58578634 41.41421509 7.00000000
v 6.63281536 41.45972824 7.00000000
v 6.68130827 41.50368118 7.00000000
v 6.73121357 41.54602051 7.00000000
v 6.78247738 41.58670807 7.00000000
v 6.83504438 41.62569427 7.00000000
v 6.88885975 41.66294098 7.00000000
v 6.94386435 41.69840622 7.00000000
v 7.00000000 41.73205185 7.00000000
v 7.05720663 41.76384354 7.00000000
v 7.11542273 41.79374695 7.00000000
v 7.17458582 41.82172775 7.00000000
v 7.23463297 41.84775925 7.00000000
v 7.29549980 41.87181091 7.00000000
v 7.35712099 41.89385986 7.00000000
v 7.41943073 41.91387939 7.00000000
v 7.48236179 41.93185043 7.00000000
v 7.54584742 41.94775391 7.00000000
v 7.60981941 41.96157074 7.00000000
v 7.67420912 41.97328568 7.00000000
v 7.73894739 41.98289108 7.00000000
v 7.80396557 41.99036789 7.00000000
v 7.86919355 41.99571609 7.00000000
v 7.93456173 41.99892807 7.00000000
v 8.00000000 42.00000000 7.00000000
v 0.00000000 40.00000000 10.00000000
v 0.00428330 40.26175308 10.00000000
v 0.01712861 40.52322388 10.00000000
v 0.03852219 40.78413773 10.00000000
v 0.06844111 41.04420853 10.00000000
v 0.10685334 41.30316544 10.00000000
v 0.15371776 41.56072235 10.00000000
v 0.20898417 41.81660843 10.00000000
v 0.27259338 42.07055283 10.00000000
v 0.34447733 42.32227707 10.00000000
v 0.42455897 42.57151413 10.00000000
v 0.51275259 42.81800079 10.00000000
v 0.60896373 43.06146622 10.00000000
v 0.71308941 43.30165482 10.00000000
v 0.82501805 43.53831100 10.00000000
v 0.94462991 43.77117538 10.00000000
v 1.07179677 44.00000000 10.00000000
v 1.20638251 44.22454453 10.00000000
v 1.34824312 44.44456100 10.00000000
v 1.49722648 44.65982056 10.00000000
v 1.65317333 44.87009048 10.00000000
v 1.81591642 45.07514572 10.00000000
v 1.98528159 45.27476501 10.00000000
v 2.16108751 45.46873856 10.00000000
v 2.34314585 45.65685272 10.00000000
v 2.53126168 45.83891296 10.00000000
v 2.72523355 46.01471710 10.00000000
v 2.92485380 46.18408203 10.00000000
v 3.12990856 46.34682846 10.00000000
v 3.34017849 46.50277328 10.00000000
v 3.55543804 46.65175629 10.00000000
v 3.77545714 46.79361725 10.00000000
v 4.00000000 46.92820358 10.00000000
v 4.22882605 47.05537033 10.00000000
v 4.46169043 47.17498016 10.00000000
v 4.69834375 47.28691101 10.00000000
v 4.93853235 47.39103699 10.00000000
v 5.18199968 47.48724747 10.00000000
v 5.42848444 47.57543945 10.00000000
v 5.67772245 47.65552139 10.00000000
v 5.92944765 47.72740555 10.00000000
v 6.00000000 40.00000000 10.00000000
v 6.00107098 40.06543732 10.00000000
v 6.00428200 40.13080597 10.00000000
v 6.00963068 40.19603348 10.00000000
v 6.01711035 40.26105118 10.00000000
v 6.02671337 40.32579041 10.00000000
v 6.03842926 40.39018250 10.00000000
v 6.05224609 40.45415115 10.00000000
v 6.06814814 40.51763916 10.00000000
v 6.08611917 40.58057022 10.00000000
v 6.10613966 40.64287949 10.00000000
v 6.12818813 40.70449829 10.00000000
v 6.15224075 40.76536560 10.00000000
v 6.17827225 40.82541275 10.00000000
v 6.20625448 40.88457870 10.00000000
v 6.23615742 40.94279480 10.00000000
v 6.26794910 41.00000000 10.00000000
v 6.30159569 41.05613708 10.00000000
v 6.33706093 41.11114120 10.00000000
v 6.37430668 41.16495514 10.00000000
v 6.41329336 41.21752167 10.00000000
v 6.45397902 41.26878738 10.00000000
v 6.49632025 41.31869125 10.00000000
v 6.54027176 41.36718369 10.00000000
v 6.58578634 41.41421509 10.00000000
v 6.63281536 41.45972824 10.00000000
v 6.68130827 41.50368118 10.00000000
v 6.73121357 41.54602051 10.00000000
v 6.78247738 41.58670807 10.00000000
v 6.83504438 41.62569427 10.00000000
v 6.88885975 41.66294098 10.00000000
v 6.94386435 41.69840622 10.00000000
v 7.00000000 41.73205185 10.00000000
v 7.05720663 41.76384354 10.00000000
v 7.11542273 41.79374695 10.00000000
v 7.17458582 41.82172775 10.00000000
v 7.23463297 41.84775925 10.00000000
v 7.29549980 41.87181091 10.00000000
v 7.35712099 41.89385986 10.00000000
v 7.41943073 41.91387939 10.00000000
v 7.48236179 41.93185043 10.00000000
v 7.54584742 41.94775391 10.00000000
v 7.60981941 41.96157074 10.00000000
v 7.67420912 41.97328568 10.00000000
v 7.73894739 41.98289108 10.00000000
v 7.80396557 41.99036789 10.00000000
v 7.86919355 41.99571609 10.00000000
v 7.93456173 41.99892807 10.00000000
v 8.00000000 42.00000000 10.00000000
v 6.18338966 47.79101562 10.00000000
v 6.43927765 47.84628296 10.00000000
v 6.69683599 47.89314651 10.00000000
v 6.95579052 47.93156052 10.00000000
v 7.21586275 47.96147919 10.00000000
v 7.47677517 47.98287201 10.00000000
v 7.73824739 47.99571609 10.00000000
v 8.00000000 48.00000000 10.00000000
v 40.00000000 0.00000000 0.00000000
v 40.26175308 0.00428330 0.00000000
v 40.52322388 0.01712861 0.00000000
v 40.78413773 0.03852219 0.00000000
v 41.04420853 0.06844111 0.00000000
v 41.30316544 0.10685334 0.00000000
v 41.56072235 0.15371776 0.00000000
v 41.81660843 0.20898417 0.00000000
v 42.07055283 0.27259338 0.00000000
v 42.32227707 0.34447733 0.00000000
v 42.57151413 0.42455897 0.00000000
v 42.81800079 0.51275259 0.00000000
v 43.06146622 0.60896373 0.00000000
v 43.30165482 0.71308941 0.00000000
v 43.53831100 0.82501805 0.00000000
v 43.77117538 0.94462991 0.00000000
v 44.00000000 1.07179677 0.00000000
v 44.22454453 1.20638251 0.00000000
v 44.44456100 1.34824312 0.00000000
v 44.65982056 1.49722648 0.00000000
v 44.87009048 1.65317333 0.00000000
v 45.07514572 1.81591642 0.00000000
v 45.27476501 1.98528159 0.00000000
v 45.46873856 2.16108751 0.00000000
v 45.65685272 2.34314585 0.00000000
v 45.83891296 2.53126168 0.00000000
v 46.01471710 2.72523355 0.00000000
v 46.18408203 2.92485380 0.00000000
v 46.34682846 3.12990856 0.00000000
v 46.50277328 3.34017849 0.00000000
v 46.65175629 3.55543804 0.00000000
v 46.79361725 3.77545714 0.00000000
v 46.92820358 4.00000000 0.00000000
v 47.05537033 4.22882605 0.00000000
v 47.17498016 4.46169043 0.00000000
v 47.28691101 4.69834375 0.00000000
v 47.39103699 4.93853235 0.00000000
v 47.48724747 5.18199968 0.00000000
v 47.57543945 5.42848444 0.00000000
v 47.65552139 5.67772245 0.00000000
v 47.72740555 5.92944765 0.00000000
v 47.79101562 6.18338966 0.00000000
v 47.84628296 6.43927765 0.00000000
v 47.89314651 6.69683599 0.00000000
v 47.93156052 6.95579052 0.00000000
v 47.96147919 7.21586275 0.00000000
v 47.98287201 7.47677517 0.00000000
v 47.99571609 7.73824739 0.00000000
v 48.00000000 8.00000000 0.00000000
v 26.50000000 5.00099993 8.80000019
v 26.51635933 5.00126791 8.80000019
v 26.53270149 5.00207043 8.80000019
v 26.54900932 5.00340748 8.80000019
v 26.56526375 5.00527763 8.80000019
v 26.58144760 5.00767851 8.80000019
v 26.59754562 5.01060724 8.80000019
v 26.61353874 5.01406145 8.80000019
v 26.62940979 5.01803732 8.80000019
v 26.64514160 5.02252960 8.80000019
v 26.66071892 5.02753496 8.80000019
v 26.67612457 5.03304720 8.80000019
v 26.69134140 5.03906012 8.80000019
v 26.70635414 5.04556799 8.80000019
v 26.72114372 5.05256367 8.80000019
v 26.73569870 5.06003952 8.80000019
v 26.75000000 5.06798744 8.80000019
v 26.76403427 5.07639885 8.80000019
v 26.77778435 5.08526516 8.80000019
v 26.79123878 5.09457684 8.80000019
v 26.80438042 5.10432339 8.80000019
v 26.81719589 5.11449480 8.80000019
v 26.82967377 5.12508011 8.80000019
v 26.84179688 5.13606787 8.80000019
v 26.85355377 5.14744663 8.80000019
v 26.86493111 5.15920401 8.80000019
v 26.87591934 5.17132711 8.80000019
v 26.88650513 5.18380356 8.80000019
v 26.89667702 5.19661951 8.80000019
v 26.90642357 5.20976114 8.80000019
v 26.91573524 5.22321510 8.80000019
v 26.92460060 5.23696613 8.80000019
v 26.93301201 5.25099993 8.80000019
v 26.94095993 5.26530170 8.80000019
v 26.94843674 5.27985573 8.80000019
v 26.95543098 5.29464626 8.80000019
v 26.96193886 5.30965805 8.80000019
v 26.96795273 5.32487488 8.80000019
v 26.97346497 5.34028006 8.80000019
v 26.97846985 5.35585785 8.80000019
v 26.98296356 5.37159061 8.80000019
v 26.98693848 5.38746166 8.80000019
v 26.99039268 5.40345478 8.80000019
v 26.99332237 5.41955233 8.80000019
v 26.99572182 5.43573713 8.80000019
v 26.99759293 5.45199156 8.80000019
v 26.99892998 5.46829844 8.80000019
v 26.99973297 5.48464060 8.80000019
v 26.50000000 5.00099993 10.00000000
v 26.51635933 5.00126791 10.00000000
v 26.53270149 5.00207043 10.00000000
v 26.54900932 5.00340748 10.00000000
v 26.56526375 5.00527763 10.00000000
v 26.58144760 5.00767851 10.00000000
v 26.59754562 5.01060724 10.00000000
v 26.61353874 5.01406145 10.00000000
v 26.62940979 5.01803732 10.00000000
v 26.64514160 5.02252960 10.00000000
v 26.66071892 5.02753496 10.00000000
v 26.67612457 5.03304720 10.00000000
v 26.69134140 5.03906012 10.00000000
v 26.70635414 5.04556799 10.00000000
v 26.72114372 5.05256367 10.00000000
v 26.73569870 5.06003952 10.00000000
v 26.75000000 5.06798744 10.00000000
v 26.76403427 5.07639885 10.00000000
v 26.77778435 5.08526516 10.00000000
v 26.79123878 5.09457684 10.00000000
v 26.80438042 5.10432339 10.00000000
v 26.81719589 5.11449480 10.00000000
v 26.82967377 5.12508011 10.00000000
v 26.84179688 5.13606787 10.00000000
v 26.85355377 5.14744663 10.00000000
v 26.86493111 5.15920401 10.00000000
v 26.87591934 5.17132711 10.00000000
v 26.88650513 5.18380356 10.00000000
v 26.89667702 5.19661951 10.00000000
v 26.90642357 5.20976114 10.00000000
v 26.91573524 5.22321510 10.00000000
v 26.92460060 5.23696613 10.00000000
v 26.93301201 5.25099993 10.00000000
v 26.94095993 5.26530170 10.00000000
v 26.94843674 5.27985573 10.00000000
v 26.95543098 5.29464626 10.00000000
v 26.96193886 5.30965805 10.00000000
v 26.96795273 5.32487488 10.00000000
v 26.97346497 5.34028006 10.00000000
v 26.97846985 5.35585785 10.00000000
v 26.98296356 5.37159061 10.00000000
v 26.98693848 5.38746166 10.00000000
v 26.99039268 5.40345478 10.00000000
v 26.99332237 5.41955233 10.00000000
v 26.99572182 5.43573713 10.00000000
v 26.99759293 5.45199156 10.00000000
v 26.99892998 5.46829844 10.00000000
v 26.99973297 5.48464060 10.00000000
v 27.00000000 5.50099993 8.80000019
v 27.00000000 5.50099993 10.00000000
v 27.00000000 6.00000000 8.80000019
v 27.00000000 6.00000000 10.00000000
v 40.00000000 6.00000000 7.00000000
v 40.06543732 6.00107098 7.00000000
v 40.13080597 6.00428200 7.00000000
v 40.19603348 6.00963068 7.00000000
v 40.26105118 6.01711035 7.00000000
v 40.32579041 6.02671337 7.00000000
v 40.39018250 6.03842926 7.00000000
v 40.45415115 6.05224609 7.00000000
v 40.51763916 6.06814814 7.00000000
v 40.58057022 6.08611917 7.00000000
v 40.64287949 6.10613966 7.00000000
v 40.70449829 6.12818813 7.00000000
v 40.76536560 6.15224075 7.00000000
v 40.82541275 6.17827225 7.00000000
v 40.88457870 6.20625448 7.00000000
v 40.94279480 6.23615742 7.00000000
v 41.00000000 6.26794910 7.00000000
v 41.05613708 6.30159569 7.00000000
v 41.11114120 6.33706093 7.00000000
v 41.16495514 6.37430668 7.00000000
v 41.21752167 6.41329336 7.00000000
v 41.26878738 6.45397902 7.00000000
v 41.31869125 6.49632025 7.00000000
v 41.36718369 6.54027176 7.00000000
v 41.41421509 6.58578634 7.00000000
v 41.45972824 6.63281536 7.00000000
v 41.50368118 6.68130827 7.00000000
v 41.54602051 6.73121357 7.00000000
v 41.58670807 6.78247738 7.00000000
v 41.62569427 6.83504438 7.00000000
v 41.66294098 6.88885975 7.00000000
v 41.69840622 6.94386435 7.00000000
v 41.73205185 7.00000000 7.00000000
v 41.76384354 7.05720663 7.00000000
v 41.79374695 7.11542273 7.00000000
v 41.82172775 7.17458582 7.00000000
v 41.84775925 7.23463297 7.00000000
v 41.87181091 7.29549980 7.00000000
v 41.89385986 7.35712099 7.00000000
v 41.91387939 7.41943073 7.00000000
v 41.93185043 7.48236179 7.00000000
v 41.94775391 7.54584742 7.00000000
v 41.96157074 7.60981941 7.00000000
v 41.97328568 7.67420912 7.00000000
v 41.98289108 7.73894739 7.00000000
v 41.99036789 7.80396557 7.00000000
v 41.99571609 7.86919355 7.00000000
v 41.99892807 7.93456173 7.00000000
v 42.00000000 8.00000000 7.00000000
v 40.00000000 0.00000000 10.00000000
v 40.26175308 0.00428330 10.00000000
v 40.52322388 0.01712861 10.00000000
v 40.78413773 0.03852219 10.00000000
v 41.04420853 0.06844111 10.00000000
v 41.30316544 0.10685334 10.00000000
v 41.56072235 0.15371776 10.00000000
v 41.81660843 0.20898417 10.00000000
v 40.00000000 6.00000000 10.00000000
v 40.06543732 6.00107098 10.00000000
v 40.13080597 6.00428200 10.00000000
v 40.19603348 6.00963068 10.00000000
v 40.26105118 6.01711035 10.00000000
v 40.32579041 6.02671337 10.00000000
v 40.39018250 6.03842926 10.00000000
v 40.45415115 6.05224609 10.00000000
v 40.51763916 6.06814814 10.00000000
v 40.58057022 6.08611917 10.00000000
v 40.64287949 6.10613966 10.00000000
v 40.70449829 6.12818813 10.00000000
v 40.76536560 6.15224075 10.00000000
v 40.82541275 6.17827225 10.00000000
v 40.88457870 6.20625448 10.00000000
v 40.94279480 6.23615742 10.00000000
v 41.00000000 6.26794910 10.00000000
v 41.05613708 6.30159569 10.00000000
v 41.11114120 6.33706093 10.00000000
v 41.16495514 6.37430668 10.00000000
v 41.21752167 6.41329336 10.00000000
v 41.26878738 6.45397902 10.00000000
v 41.31869125 6.49632025 10.00000000
v 41.36718369 6.54027176 10.00000000
v 41.41421509 6.58578634 10.00000000
v 41.45972824 6.63281536 10.00000000
v 41.50368118 6.68130827 10.00000000
v 41.54602051 6.73121357 10.00000000
v 41.58670807 6.78247738 10.00000000
v 41.62569427 6.83504438 10.00000000
v 41.66294098 6.88885975 10.00000000
v 41.69840622 6.94386435 10.00000000
v 41.73205185 7.00000000 10.00000000
v 41.76384354 7.05720663 10.00000000
v 41.79374695 7.11542273 10.00000000
v 41.82172775 7.17458582 10.00000000
v 41.84775925 7.23463297 10.00000000
v 41.87181091 7.29549980 10.00000000
v 41.89385986 7.35712099 10.00000000
v 41.91387939 7.41943073 10.00000000
v 41.93185043 7.48236179 10.00000000
v 41.94775391 7.54584742 10.00000000
v 41.96157074 7.60981941 10.00000000
v 41.97328568 7.67420912 10.00000000
v 41.98289108 7.73894739 10.00000000
v 41.99036789 7.80396557 10.00000000
v 41.99571609 7.86919355 10.00000000
v 41.99892807 7.93456173 10.00000000
v 42.07055283 0.27259338 10.00000000
v 42.32227707 0.34447733 10.00000000
v 42.57151413 0.42455897 10.00000000
v 42.81800079 0.51275259 10.00000000
v 43.06146622 0.60896373 10.00000000
v 43.30165482 0.71308941 10.00000000
v 43.53831100 0.82501805 10.00000000
v 43.77117538 0.94462991 10.00000000
v 44.00000000 1.07179677 10.00000000
v 44.22454453 1.20638251 10.00000000
v 44.44456100 1.34824312 10.00000000
v 44.65982056 1.49722648 10.00000000
v 44.87009048 1.65317333 10.00000000
v 45.07514572 1.81591642 10.00000000
v 45.27476501 1.98528159 10.00000000
v 45.46873856 2.16108751 10.00000000
v 45.65685272 2.34314585 10.00000000
v 45.83891296 2.53126168 10.00000000
v 46.01471710 2.72523355 10.00000000
v 46.18408203 2.92485380 10.00000000
v 46.34682846 3.12990856 10.00000000
v 46.50277328 3.34017849 10.00000000
v 46.65175629 3.55543804 10.00000000
v 46.79361725 3.77545714 10.00000000
v 46.92820358 4.00000000 10.00000000
v 47.05537033 4.22882605 10.00000000
v 47.17498016 4.46169043 10.00000000
v 47.28691101 4.69834375 10.00000000
v 47.39103699 4.93853235 10.00000000
v 47.48724747 5.18199968 10.00000000
v 47.57543945 5.42848444 10.00000000
v 47.65552139 5.67772245 10.00000000
v 47.72740555 5.92944765 10.00000000
v 42.00000000 8.00000000 10.00000000
v 47.79101562 6.18338966 10.00000000
v 47.84628296 6.43927765 10.00000000
v 47.89314651 6.69683599 10.00000000
v 47.93156052 6.95579052 10.00000000
v 47.96147919 7.21586275 10.00000000
v 47.98287201 7.47677517 10.00000000
v 47.99571609 7.73824739 10.00000000
v 48.00000000 8.00000000 10.00000000
v 40.00000000 48.00000000 0.00000000
v 40.26175308 47.99571609 0.00000000
v 40.52322388 47.98287201 0.00000000
v 40.78413773 47.96147919 0.00000000
v 41.04420853 47.93156052 0.00000000
v 41.30316544 47.89314651 0.00000000
v 41.56072235 47.84628296 0.00000000
v 41.81660843 47.79101562 0.00000000
v 48.00000000 40.00000000 0.00000000
v 47.99571609 40.26175308 0.00000000
v 47.98287201 40.52322388 0.00000000
v 47.96147919 40.78413773 0.00000000
v 47.93156052 41.04420853 0.00000000
v 47.89314651 41.30316544 0.00000000
v 47.84628296 41.56072235 0.00000000
v 47.79101562 41.81660843 0.00000000
v 42.07055283 47.72740555 0.00000000
v 42.32227707 47.65552139 0.00000000
v 42.57151413 47.57543945 0.00000000
v 42.81800079 47.48724747 0.00000000
v 43.06146622 47.39103699 0.00000000
v 43.30165482 47.28691101 0.00000000
v 44.87009048 46.34682846 0.00000000
v 43.53831100 47.17498016 0.00000000
v 43.77117538 47.05537033 0.00000000
v 44.22454453 46.79361725 0.00000000
v 44.00000000 46.92820358 0.00000000
v 44.44456100 46.65175629 0.00000000
v 44.65982056 46.50277328 0.00000000
v 46.34682846 44.87009048 0.00000000
v 47.57543945 42.57151413 0.00000000
v 47.72740555 42.07055283 0.00000000
v 47.65552139 42.32227707 0.00000000
v 47.39103699 43.06146622 0.00000000
v 47.48724747 42.81800079 0.00000000
v 47.28691101 43.30165482 0.00000000
v 46.79361725 44.22454453 0.00000000
v 47.05537033 43.77117538 0.00000000
v 47.17498016 43.53831100 0.00000000
v 46.92820358 44.00000000 0.00000000
v 46.65175629 44.44456100 0.00000000
v 46.50277328 44.65982056 0.00000000
v 45.65685272 45.65685272 0.00000000
v 45.27476501 46.01471710 0.00000000
v 45.07514572 46.18408203 0.00000000
v 45.46873856 45.83891296 0.00000000
v 46.01471710 45.27476501 0.00000000
v 45.83891296 45.46873856 0.00000000
v 46.18408203 45.07514572 0.00000000
v 40.06543732 41.99892807 7.00000000
v 40.13080597 41.99571609 7.00000000
v 40.19603348 41.99036789 7.00000000
v 40.26105118 41.98289108 7.00000000
v 40.32579041 41.97328568 7.00000000
v 40.39018250 41.96157074 7.00000000
v 40.45415115 41.94775391 7.00000000
v 41.99892807 40.06543732 7.00000000
v 41.99571609 40.13080597 7.00000000
v 41.99036789 40.19603348 7.00000000
v 41.98289108 40.26105118 7.00000000
v 41.97328568 40.32579041 7.00000000
v 41.96157074 40.39018250 7.00000000
v 41.94775391 40.45415115 7.00000000
v 40.51763916 41.93185043 7.00000000
v 40.58057022 41.91387939 7.00000000
v 40.64287949 41.89385986 7.00000000
v 40.70449829 41.87181091 7.00000000
v 40.76536560 41.84775925 7.00000000
v 40.82541275 41.82172775 7.00000000
v 41.21752167 41.58670807 7.00000000
v 40.88457870 41.79374695 7.00000000
v 40.94279480 41.76384354 7.00000000
v 41.05613708 41.69840622 7.00000000
v 41.00000000 41.73205185 7.00000000
v 41.11114120 41.66294098 7.00000000
v 41.16495514 41.62569427 7.00000000
v 41.58670807 41.21752167 7.00000000
v 41.89385986 40.64287949 7.00000000
v 41.93185043 40.51763916 7.00000000
v 41.91387939 40.58057022 7.00000000
v 41.84775925 40.76536560 7.00000000
v 41.87181091 40.70449829 7.00000000
v 41.82172775 40.82541275 7.00000000
v 41.69840622 41.05613708 7.00000000
v 41.76384354 40.94279480 7.00000000
v 41.79374695 40.88457870 7.00000000
v 41.73205185 41.00000000 7.00000000
v 41.66294098 41.11114120 7.00000000
v 41.62569427 41.16495514 7.00000000
v 41.41421509 41.41421509 7.00000000
v 41.31869125 41.50368118 7.00000000
v 41.26878738 41.54602051 7.00000000
v 41.36718369 41.45972824 7.00000000
v 41.50368118 41.31869125 7.00000000
v 41.45972824 41.36718369 7.00000000
v 41.54602051 41.26878738 7.00000000
v 40.00000000 42.00000000 7.00000000
v 42.00000000 40.00000000 7.00000000
v 40.06543732 41.99892807 10.00000000
v 40.13080597 41.99571609 10.00000000
v 40.19603348 41.99036789 10.00000000
v 40.26105118 41.98289108 10.00000000
v 40.32579041 41.97328568 10.00000000
v 40.39018250 41.96157074 10.00000000
v 40.45415115 41.94775391 10.00000000
v 41.99892807 40.06543732 10.00000000
v 41.99571609 40.13080597 10.00000000
v 41.99036789 40.19603348 10.00000000
v 41.98289108 40.26105118 10.00000000
v 41.97328568 40.32579041 10.00000000
v 41.96157074 40.39018250 10.00000000
v 41.94775391 40.45415115 10.00000000
v 40.51763916 41.93185043 10.00000000
v 40.58057022 41.91387939 10.00000000
v 40.64287949 41.89385986 10.00000000
v 40.70449829 41.87181091 10.00000000
v 40.76536560 41.84775925 10.00000000
v 40.82541275 41.82172775 10.00000000
v 41.21752167 41.58670807 10.00000000
v 40.88457870 41.79374695 10.00000000
v 40.94279480 41.76384354 10.00000000
v 41.05613708 41.69840622 10.00000000
v 41.00000000 41.73205185 10.00000000
v 41.11114120 41.66294098 10.00000000
v 41.16495514 41.62569427 10.00000000
v 41.58670807 41.21752167 10.00000000
v 41.89385986 40.64287949 10.00000000
v 41.93185043 40.51763916 10.00000000
v 41.91387939 40.58057022 10.00000000
v 41.84775925 40.76536560 10.00000000
v 41.87181091 40.70449829 10.00000000
v 41.82172775 40.82541275 10.00000000
v 41.69840622 41.05613708 10.00000000
v 41.76384354 40.94279480 10.00000000
v 41.79374695 40.88457870 10.00000000
v 41.73205185 41.00000000 10.00000000
v 41.66294098 41.11114120 10.00000000
v 41.62569427 41.16495514 10.00000000
v 41.41421509 41.41421509 10.00000000
v 41.31869125 41.50368118 10.00000000
v 41.26878738 41.54602051 10.00000000
v 41.36718369 41.45972824 10.00000000
v 41.50368118 41.31869125 10.00000000
v 41.45972824 41.36718369 10.00000000
v 41.54602051 41.26878738 10.00000000
v 40.00000000 42.00000000 10.00000000
v 40.00000000 48.00000000 10.00000000
v 40.26175308 47.99571609 10.00000000
v 40.52322388 47.98287201 10.00000000
v 40.78413773 47.96147919 10.00000000
v 41.04420853 47.93156052 10.00000000
v 41.30316544 47.89314651 10.00000000
v 41.56072235 47.84628296 10.00000000
v 41.81660843 47.79101562 10.00000000
v 42.00000000 40.00000000 10.00000000
v 48.00000000 40.00000000 10.00000000
v 47.99571609 40.26175308 10.00000000
v 47.98287201 40.52322388 10.00000000
v 47.96147919 40.78413773 10.00000000
v 47.93156052 41.04420853 10.00000000
v 47.89314651 41.30316544 10.00000000
v 47.84628296 41.56072235 10.00000000
v 47.79101562 41.81660843 10.00000000
v 42.07055283 47.72740555 10.00000000
v 42.32227707 47.65552139 10.00000000
v 42.57151413 47.57543945 10.00000000
v 42.81800079 47.48724747 10.00000000
v 43.06146622 47.39103699 10.00000000
v 43.30165482 47.28691101 10.00000000
v 44.87009048 46.34682846 10.00000000
v 43.53831100 47.17498016 10.00000000
v 43.77117538 47.05537033 10.00000000
v 44.22454453 46.79361725 10.00000000
v 44.00000000 46.92820358 10.00000000
v 44.44456100 46.65175629 10.00000000
v 44.65982056 46.50277328 10.00000000
v 46.34682846 44.87009048 10.00000000
v 47.57543945 42.57151413 10.00000000
v 47.72740555 42.07055283 10.00000000
v 47.65552139 42.32227707 10.00000000
v 47.39103699 43.06146622 10.00000000
v 47.48724747 42.81800079 10.00000000
v 47.28691101 43.30165482 10.00000000
v 46.79361725 44.22454453 10.00000000
v 47.05537033 43.77117538 10.00000000
v 47.17498016 43.53831100 10.00000000
v 46.92820358 44.00000000 10.00000000
v 46.65175629 44.44456100 10.00000000
v 46.50277328 44.65982056 10.00000000
v 45.65685272 45.65685272 10.00000000
v 45.27476501 46.01471710 10.00000000
v 45.07514572 46.18408203 10.00000000
v 45.46873856 45.83891296 10.00000000
v 46.01471710 45.27476501 10.00000000
v 45.83891296 45.46873856 10.00000000
v 46.18408203 45.07514572 10.00000000
f 1 3 99
f 2 7 100
f 2 101 3
f 4 6 102
f 5 27 103
f 5 104 6
f 4 105 7
f 9 111 13
f 8 107 9
f 10 13 108
f 11 12 109
f 10 110 12
f 14 114 16
f 15 16 113
f 17 19 115
f 17 116 18
f 15 117 19
f 11 112 14
f 8 20 106
f 1 118 20
f 21 22 119
f 22 24 120
f 23 25 121
f 23 122 24
f 25 26 123
f 21 125 27
f 28 29 126
f 29 30 127
f 26 28 124
f 30 31 128
f 31 32 129
f 32 33 130
f 34 133 35
f 18 132 34
f 35 134 36
f 36 135 37
f 37 136 38
f 38 137 39
f 39 138 40
f 40 139 41
f 33 42 131
f 42 43 140
f 43 44 141
f 44 45 142
f 45 46 143
f 46 47 144
f 47 48 145
f 48 49 146
f 2 297 7
f 4 7 297
f 4 297 6
f 5 6 297
f 5 297 27
f 21 27 297
f 22 297 24
f 23 24 297
f 23 297 25
f 25 297 26
f 21 297 22
f 10 12 297
f 11 14 297
f 11 297 12
f 8 297 20
f 8 9 297
f 1 20 297
f 1 297 3
f 2 3 297
f 10 297 13
f 9 13 297
f 15 297 16
f 15 19 297
f 17 297 19
f 17 18 297
f 14 16 297
f 18 34 297
f 34 35 297
f 35 36 297
f 36 37 297
f 33 297 42
f 42 297 43
f 43 297 44
f 26 297 28
f 28 297 29
f 29 297 30
f 30 297 31
f 31 297 32
f 32 297 33
f 44 297 45
f 45 297 46
f 46 297 47
f 47 297 48
f 48 297 49
f 37 38 297
f 38 39 297
f 39 40 297
f 40 41 297
f 49 493 147
f 49 297 493
f 1 99 118
f 2 100 101
f 3 101 99
f 4 102 105
f 5 103 104
f 6 104 102
f 7 105 100
f 9 107 111
f 8 106 107
f 10 108 110
f 12 110 109
f 13 111 108
f 14 112 114
f 16 114 113
f 17 115 116
f 15 113 117
f 19 117 115
f 11 109 112
f 20 118 106
f 22 120 119
f 24 122 120
f 23 121 122
f 25 123 121
f 26 124 123
f 27 125 103
f 21 119 125
f 29 127 126
f 30 128 127
f 28 126 124
f 32 130 129
f 31 129 128
f 33 131 130
f 18 116 132
f 34 132 133
f 35 133 134
f 36 134 135
f 37 135 136
f 38 136 137
f 39 137 138
f 40 138 139
f 42 140 131
f 43 141 140
f 44 142 141
f 45 143 142
f 46 144 143
f 47 145 144
f 48 146 145
f 49 147 146
f 146 147 153
f 144 145 164
f 145 146 167
f 146 149 150
f 146 150 148
f 146 153 151
f 146 151 154
f 146 154 149
f 147 176 175
f 147 174 152
f 147 168 174
f 147 171 169
f 147 169 168
f 147 152 153
f 147 172 170
f 147 170 171
f 147 173 172
f 147 175 173
f 145 155 156
f 145 160 157
f 145 156 160
f 145 159 158
f 145 158 161
f 145 161 163
f 145 163 162
f 145 157 159
f 144 164 165
f 144 165 181
f 145 166 164
f 144 181 182
f 145 162 166
f 145 167 155
f 146 148 167
f 147 177 176
f 147 178 177
f 147 179 178
f 147 180 179
f 147 189 180
f 147 190 189
f 147 191 190
f 147 192 191
f 147 193 192
f 147 194 193
f 147 195 194
f 147 196 195
f 41 139 395
f 100 105 395
f 102 395 105
f 102 104 395
f 103 395 104
f 103 125 395
f 119 395 125
f 120 122 395
f 121 395 122
f 121 123 395
f 123 124 395
f 119 120 395
f 108 395 110
f 109 395 112
f 109 110 395
f 106 118 395
f 106 395 107
f 99 395 118
f 99 101 395
f 100 395 101
f 108 111 395
f 107 395 111
f 113 114 395
f 113 395 117
f 115 117 395
f 115 395 116
f 112 395 114
f 116 395 132
f 132 395 133
f 133 395 134
f 134 395 135
f 131 140 395
f 140 141 395
f 141 142 395
f 124 126 395
f 126 127 395
f 127 128 395
f 128 129 395
f 129 130 395
f 130 131 395
f 142 143 395
f 143 144 395
f 144 182 395
f 135 395 136
f 136 395 137
f 137 395 138
f 138 395 139
f 395 182 183
f 395 184 185
f 395 183 184
f 395 185 186
f 395 186 187
f 395 187 188
f 147 294 196
f 147 257 258
f 147 259 257
f 147 261 259
f 147 280 281
f 147 288 289
f 147 287 288
f 147 286 287
f 147 285 286
f 147 281 285
f 147 292 293
f 147 291 292
f 147 290 291
f 147 289 290
f 147 293 294
f 147 251 250
f 147 253 254
f 147 256 253
f 147 255 256
f 147 252 255
f 147 250 252
f 147 283 284
f 147 282 283
f 147 248 282
f 147 247 248
f 147 246 247
f 147 254 246
f 147 279 280
f 147 278 279
f 147 284 278
f 147 249 251
f 147 267 249
f 147 266 267
f 147 265 266
f 147 269 265
f 147 268 269
f 147 258 268
f 147 260 261
f 147 263 260
f 147 262 263
f 147 264 262
f 196 294 296
f 147 691 264
f 41 395 297
f 297 298 299
f 297 299 300
f 297 300 301
f 297 301 302
f 297 302 303
f 297 303 304
f 297 304 305
f 297 305 306
f 297 306 307
f 297 307 308
f 297 308 309
f 297 309 310
f 297 310 311
f 297 311 312
f 297 312 313
f 297 313 314
f 297 314 315
f 297 315 316
f 297 316 317
f 297 317 318
f 297 318 319
f 297 319 320
f 297 320 321
f 297 321 322
f 297 322 323
f 297 323 324
f 297 324 325
f 297 325 326
f 297 326 327
f 297 327 328
f 297 328 329
f 297 329 330
f 297 330 331
f 297 331 332
f 297 332 333
f 297 333 334
f 297 334 335
f 297 335 336
f 297 336 337
f 297 337 338
f 297 338 339
f 297 339 340
f 297 340 341
f 297 341 342
f 297 342 343
f 297 343 344
f 297 344 345
f 297 396 298
f 298 397 299
f 299 398 300
f 300 399 301
f 301 400 302
f 302 401 303
f 303 402 304
f 304 403 305
f 305 404 306
f 306 405 307
f 307 406 308
f 308 407 309
f 309 408 310
f 310 409 311
f 311 410 312
f 312 411 313
f 313 412 314
f 314 413 315
f 315 414 316
f 316 415 317
f 317 416 318
f 318 417 319
f 319 418 320
f 320 419 321
f 321 420 322
f 322 421 323
f 323 422 324
f 324 423 325
f 325 424 326
f 326 425 327
f 327 426 328
f 328 427 329
f 329 428 330
f 330 429 331
f 331 430 332
f 332 431 333
f 333 432 334
f 334 433 335
f 335 434 336
f 336 435 337
f 337 485 338
f 338 486 339
f 339 487 340
f 340 488 341
f 341 489 342
f 342 490 343
f 343 491 344
f 344 492 345
f 297 345 789
f 395 188 436
f 297 395 396
f 298 396 397
f 299 397 398
f 300 398 399
f 301 399 400
f 302 400 401
f 303 401 402
f 304 402 403
f 305 403 404
f 306 404 405
f 307 405 406
f 308 406 407
f 309 407 408
f 310 408 409
f 311 409 410
f 312 410 411
f 313 411 412
f 314 412 413
f 315 413 414
f 316 414 415
f 317 415 416
f 318 416 417
f 319 417 418
f 320 418 419
f 321 419 420
f 322 420 421
f 323 421 422
f 324 422 423
f 325 423 424
f 326 424 425
f 327 425 426
f 328 426 427
f 329 427 428
f 330 428 429
f 331 429 430
f 332 430 431
f 333 431 432
f 334 432 433
f 335 433 434
f 336 434 435
f 337 435 485
f 338 485 486
f 339 486 487
f 340 487 488
f 341 488 489
f 342 489 490
f 343 490 491
f 344 491 492
f 395 397 396
f 395 398 397
f 395 399 398
f 395 400 399
f 395 401 400
f 395 402 401
f 395 403 402
f 395 404 403
f 395 405 404
f 395 406 405
f 395 407 406
f 395 436 437
f 395 437 438
f 395 438 439
f 395 439 440
f 395 440 441
f 395 441 442
f 395 442 443
f 395 443 444
f 395 444 445
f 395 445 446
f 395 446 447
f 395 447 448
f 395 448 449
f 395 449 450
f 395 450 451
f 395 451 452
f 395 452 453
f 395 453 454
f 395 454 455
f 395 455 456
f 395 456 457
f 395 457 458
f 395 408 407
f 395 409 408
f 395 410 409
f 395 411 410
f 395 412 411
f 395 413 412
f 395 414 413
f 395 415 414
f 395 416 415
f 395 417 416
f 395 418 417
f 395 419 418
f 395 420 419
f 395 421 420
f 395 422 421
f 395 423 422
f 395 424 423
f 395 425 424
f 395 426 425
f 395 427 426
f 395 428 427
f 395 429 428
f 395 430 429
f 395 431 430
f 395 432 431
f 395 458 492
f 395 433 432
f 395 434 433
f 395 435 434
f 395 485 435
f 395 486 485
f 395 487 486
f 395 488 487
f 395 489 488
f 395 490 489
f 395 491 490
f 395 492 491
f 492 458 459
f 492 459 460
f 492 460 461
f 492 461 462
f 492 462 463
f 492 463 464
f 492 464 465
f 492 465 466
f 492 466 467
f 492 467 468
f 492 468 469
f 492 469 470
f 492 470 471
f 492 471 472
f 492 472 473
f 492 473 474
f 492 474 475
f 492 475 476
f 492 476 477
f 492 477 478
f 492 478 479
f 492 479 480
f 492 480 481
f 492 481 482
f 492 482 483
f 492 483 484
f 345 492 935
f 492 484 934
f 297 494 493
f 297 495 494
f 297 496 495
f 297 497 496
f 297 498 497
f 297 499 498
f 297 500 499
f 297 501 500
f 297 502 501
f 297 503 502
f 297 504 503
f 297 505 504
f 297 506 505
f 297 507 506
f 297 508 507
f 297 509 508
f 297 510 509
f 297 511 510
f 297 512 511
f 297 513 512
f 297 514 513
f 297 515 514
f 297 516 515
f 297 517 516
f 297 518 517
f 297 519 518
f 297 520 519
f 297 521 520
f 297 522 521
f 297 523 522
f 297 524 523
f 297 525 524
f 297 526 525
f 297 527 526
f 297 528 527
f 297 529 528
f 297 530 529
f 297 531 530
f 297 532 531
f 297 533 532
f 297 534 533
f 297 535 534
f 297 536 535
f 297 537 536
f 297 538 537
f 297 539 538
f 297 540 539
f 297 541 540
f 493 494 691
f 494 495 692
f 495 496 693
f 496 497 694
f 497 498 695
f 498 499 696
f 499 500 697
f 500 501 698
f 501 502 747
f 502 503 748
f 503 504 749
f 504 505 750
f 505 506 751
f 506 507 752
f 507 508 753
f 508 509 754
f 509 510 755
f 510 511 756
f 511 512 757
f 512 513 758
f 513 514 759
f 514 515 760
f 515 516 761
f 516 517 762
f 517 518 763
f 518 519 764
f 519 520 765
f 520 521 766
f 521 522 767
f 522 523 768
f 523 524 769
f 524 525 770
f 525 526 771
f 526 527 772
f 527 528 773
f 528 529 774
f 529 530 775
f 530 531 776
f 531 532 777
f 532 533 778
f 533 534 779
f 534 535 781
f 535 536 782
f 536 537 783
f 537 538 784
f 538 539 785
f 539 540 786
f 540 541 787
f 541 797 788
f 147 493 691
f 691 270 264
f 691 271 270
f 691 272 271
f 691 273 272
f 691 274 273
f 691 275 274
f 691 276 275
f 691 277 276
f 691 590 277
f 691 591 590
f 691 592 591
f 691 593 592
f 691 594 593
f 691 595 594
f 691 596 595
f 691 597 596
f 691 602 601
f 691 601 600
f 691 600 599
f 691 599 598
f 691 598 597
f 691 605 604
f 691 604 603
f 691 603 602
f 691 607 606
f 691 606 605
f 691 612 611
f 691 611 610
f 691 610 609
f 691 609 608
f 691 608 607
f 691 613 612
f 691 618 617
f 691 617 616
f 691 616 615
f 691 615 614
f 691 614 613
f 691 621 620
f 691 620 619
f 691 619 618
f 699 625 624
f 699 624 623
f 699 623 622
f 699 622 621
f 699 627 626
f 699 626 625
f 699 630 629
f 699 629 628
f 699 628 627
f 699 634 633
f 699 633 632
f 699 632 631
f 699 631 630
f 699 639 637
f 699 637 636
f 699 636 635
f 699 635 634
f 699 641 639
f 691 699 621
f 494 692 691
f 495 693 692
f 496 694 693
f 497 695 694
f 498 696 695
f 499 697 696
f 500 698 697
f 501 747 698
f 502 748 747
f 503 749 748
f 504 750 749
f 505 751 750
f 506 752 751
f 507 753 752
f 508 754 753
f 509 755 754
f 510 756 755
f 511 757 756
f 512 758 757
f 513 759 758
f 514 760 759
f 515 761 760
f 516 762 761
f 517 763 762
f 518 764 763
f 519 765 764
f 520 766 765
f 521 767 766
f 522 768 767
f 523 769 768
f 524 770 769
f 525 771 770
f 526 772 771
f 527 773 772
f 528 774 773
f 529 775 774
f 530 776 775
f 531 777 776
f 532 778 777
f 533 779 778
f 534 781 779
f 535 782 781
f 536 783 782
f 537 784 783
f 538 785 784
f 539 786 785
f 540 787 786
f 541 788 787
f 691 692 699
f 692 693 699
f 693 694 699
f 694 695 699
f 695 696 699
f 696 697 699
f 697 698 699
f 698 747 699
f 747 748 699
f 748 749 699
f 749 750 699
f 750 751 699
f 759 700 699
f 759 701 700
f 760 702 701
f 760 703 702
f 760 704 703
f 760 705 704
f 751 752 699
f 752 753 699
f 753 754 699
f 754 755 699
f 755 756 699
f 756 757 699
f 757 758 699
f 758 759 699
f 759 760 701
f 761 706 705
f 761 707 706
f 761 708 707
f 761 709 708
f 762 710 709
f 762 711 710
f 762 712 711
f 762 713 712
f 763 714 713
f 763 715 714
f 763 716 715
f 763 717 716
f 764 718 717
f 764 719 718
f 764 720 719
f 764 721 720
f 765 722 721
f 765 723 722
f 765 724 723
f 765 725 724
f 766 726 725
f 767 727 726
f 767 728 727
f 768 729 728
f 768 731 730
f 768 730 729
f 768 732 731
f 769 733 732
f 769 734 733
f 769 735 734
f 760 761 705
f 761 762 709
f 762 763 713
f 763 764 717
f 764 765 721
f 765 766 725
f 766 767 726
f 767 768 728
f 768 769 732
f 769 770 735
f 770 771 739
f 771 772 743
f 772 773 780
f 773 774 780
f 774 775 780
f 770 736 735
f 770 738 737
f 770 737 736
f 770 739 738
f 771 740 739
f 771 741 740
f 771 742 741
f 771 743 742
f 772 744 743
f 772 745 744
f 772 746 745
f 772 780 746
f 775 776 780
f 776 777 780
f 777 778 780
f 778 779 780
f 779 781 780
f 781 782 780
f 782 783 780
f 783 784 780
f 784 785 780
f 785 786 780
f 786 787 780
f 787 788 780
f 788 944 780
f 297 797 541
f 297 789 790
f 297 790 791
f 297 808 809
f 297 809 810
f 297 810 812
f 297 812 813
f 297 811 833
f 297 815 814
f 297 814 816
f 297 813 815
f 297 816 817
f 297 817 811
f 297 791 792
f 297 792 793
f 297 793 794
f 297 794 795
f 297 795 796
f 297 796 805
f 297 805 806
f 297 806 807
f 297 807 808
f 297 798 797
f 297 799 798
f 297 800 799
f 297 801 800
f 297 802 801
f 297 803 802
f 297 804 803
f 297 820 804
f 297 821 820
f 297 822 823
f 297 819 821
f 297 823 819
f 297 835 837
f 297 827 824
f 297 825 828
f 297 826 827
f 297 828 826
f 297 830 829
f 297 837 818
f 297 818 830
f 297 829 825
f 297 833 832
f 297 832 834
f 297 834 831
f 297 831 836
f 297 836 835
f 297 824 822
f 345 935 789
f 789 936 790
f 790 937 791
f 791 938 792
f 792 939 793
f 793 940 794
f 794 941 795
f 795 942 796
f 796 952 805
f 797 798 944
f 798 799 945
f 799 800 946
f 800 801 947
f 801 802 948
f 802 803 949
f 804 820 951
f 803 804 950
f 805 953 806
f 806 954 807
f 807 955 808
f 810 959 812
f 808 956 809
f 809 957 810
f 811 817 958
f 812 960 813
f 814 815 961
f 813 962 815
f 814 963 816
f 816 964 817
f 818 837 965
f 818 977 830
f 824 827 971
f 819 823 966
f 820 821 967
f 819 968 821
f 822 970 823
f 822 824 969
f 826 828 973
f 826 974 827
f 825 975 828
f 829 830 976
f 825 829 972
f 831 834 978
f 832 833 979
f 811 980 833
f 832 981 834
f 835 836 982
f 831 983 836
f 835 984 837
f 492 934 935
f 788 797 944
f 944 943 780
f 789 935 936
f 790 936 937
f 791 937 938
f 792 938 939
f 793 939 940
f 794 940 941
f 795 941 942
f 796 942 952
f 798 945 944
f 799 946 945
f 800 947 946
f 801 948 947
f 802 949 948
f 803 950 949
f 804 951 950
f 820 967 951
f 805 952 953
f 807 954 955
f 806 953 954
f 810 957 959
f 808 955 956
f 809 956 957
f 817 964 958
f 811 958 980
f 812 959 960
f 813 960 962
f 815 962 961
f 814 961 963
f 816 963 964
f 818 965 977
f 827 974 971
f 819 966 968
f 823 970 966
f 821 968 967
f 822 969 970
f 824 971 969
f 825 972 975
f 826 973 974
f 828 975 973
f 830 977 976
f 829 976 972
f 831 978 983
f 832 979 981
f 833 980 979
f 834 981 978
f 835 982 984
f 836 983 982
f 837 984 965
f 935 934 936
f 936 934 937
f 937 934 938
f 938 934 939
f 939 934 940
f 940 934 941
f 941 934 942
f 953 934 954
f 954 934 955
f 955 934 956
f 942 934 952
f 952 934 953
f 968 905 906
f 968 906 908
f 951 929 928
f 951 928 930
f 967 910 912
f 968 908 909
f 967 909 911
f 967 911 910
f 967 912 913
f 967 913 907
f 967 907 929
f 945 894 943
f 945 895 894
f 945 896 895
f 946 900 899
f 946 897 896
f 946 898 897
f 946 899 898
f 948 923 920
f 948 920 918
f 949 922 923
f 949 921 924
f 949 925 921
f 949 924 922
f 947 916 900
f 947 917 916
f 947 915 917
f 948 919 915
f 948 918 919
f 950 914 926
f 950 931 933
f 950 933 914
f 951 932 931
f 951 930 927
f 951 927 932
f 950 926 925
f 944 945 943
f 945 946 896
f 950 951 931
f 951 967 929
f 947 948 915
f 946 947 900
f 948 949 923
f 949 950 925
f 966 934 887
f 966 888 889
f 966 889 890
f 966 890 891
f 966 887 888
f 968 892 893
f 966 891 892
f 968 893 901
f 968 901 902
f 968 902 903
f 968 903 904
f 968 904 905
f 958 964 934
f 979 980 934
f 958 934 980
f 969 934 970
f 972 934 975
f 973 934 974
f 969 971 934
f 971 974 934
f 973 975 934
f 982 983 934
f 965 984 934
f 982 934 984
f 979 934 981
f 978 934 983
f 978 981 934
f 965 934 977
f 976 977 934
f 972 976 934
f 956 934 957
f 957 934 959
f 960 934 962
f 961 962 934
f 959 934 960
f 961 934 963
f 963 934 964
f 966 892 968
f 966 970 934
f 967 968 909
f 50 148 52
f 51 149 56
f 51 52 150
f 55 53 151
f 76 54 152
f 55 153 54
f 56 154 53
f 62 160 58
f 57 58 156
f 59 157 62
f 60 158 61
f 59 61 159
f 65 163 63
f 64 162 65
f 68 66 164
f 66 67 165
f 64 68 166
f 60 63 161
f 69 57 155
f 50 69 167
f 70 168 71
f 73 71 169
f 72 170 74
f 73 171 72
f 75 74 172
f 76 174 70
f 78 77 175
f 78 176 79
f 75 173 77
f 79 177 80
f 80 178 81
f 81 179 82
f 83 84 182
f 67 83 181
f 85 183 84
f 85 86 184
f 86 87 185
f 87 88 186
f 88 89 187
f 89 90 188
f 82 180 91
f 91 189 92
f 92 190 93
f 93 191 94
f 95 94 192
f 95 193 96
f 96 194 97
f 97 195 98
f 50 167 148
f 51 150 149
f 52 148 150
f 53 154 151
f 54 153 152
f 55 151 153
f 56 149 154
f 58 160 156
f 57 156 155
f 59 159 157
f 61 158 159
f 62 157 160
f 63 163 161
f 65 162 163
f 66 165 164
f 64 166 162
f 68 164 166
f 60 161 158
f 69 155 167
f 71 168 169
f 73 169 171
f 72 171 170
f 74 170 172
f 75 172 173
f 76 152 174
f 70 174 168
f 78 175 176
f 79 176 177
f 77 173 175
f 81 178 179
f 80 177 178
f 82 179 180
f 67 181 165
f 83 182 181
f 84 183 182
f 85 184 183
f 86 185 184
f 87 186 185
f 88 187 186
f 89 188 187
f 91 180 189
f 92 189 190
f 93 190 191
f 94 191 192
f 95 192 193
f 96 193 194
f 97 194 195
f 98 195 196
f 50 52 346
f 51 346 52
f 69 346 57
f 62 58 346
f 59 62 346
f 57 346 58
f 50 346 69
f 76 346 54
f 76 70 346
f 73 72 346
f 70 71 346
f 73 346 71
f 72 74 346
f 75 346 74
f 56 53 346
f 55 346 53
f 51 56 346
f 55 54 346
f 78 79 346
f 79 80 346
f 80 81 346
f 75 77 346
f 78 346 77
f 81 82 346
f 82 91 346
f 91 92 346
f 92 93 346
f 95 346 94
f 93 94 346
f 95 96 346
f 96 97 346
f 97 98 346
f 64 65 346
f 59 346 61
f 60 61 346
f 60 346 63
f 65 63 346
f 64 346 68
f 68 346 66
f 67 346 83
f 66 346 67
f 83 346 84
f 85 84 346
f 85 346 86
f 86 346 87
f 87 346 88
f 88 346 89
f 89 346 90
f 90 436 188
f 98 196 295
f 295 196 296
f 201 295 202
f 202 295 203
f 295 218 216
f 200 218 295
f 200 295 201
f 203 295 206
f 295 209 208
f 295 219 209
f 295 220 219
f 295 217 220
f 295 216 217
f 233 295 234
f 234 295 235
f 235 295 229
f 204 207 295
f 197 205 295
f 204 295 205
f 197 295 199
f 206 295 207
f 198 199 295
f 198 295 233
f 229 295 230
f 230 295 231
f 231 295 232
f 232 295 236
f 236 295 237
f 237 295 238
f 239 238 295
f 239 295 240
f 240 295 241
f 295 221 223
f 295 223 222
f 295 212 210
f 295 211 212
f 295 210 213
f 295 213 214
f 295 208 211
f 295 214 215
f 295 215 221
f 295 222 224
f 295 224 225
f 295 225 226
f 295 226 227
f 295 227 228
f 241 295 242
f 242 295 243
f 243 295 244
f 244 295 245
f 198 248 199
f 198 233 282
f 197 199 247
f 203 206 255
f 202 203 252
f 200 249 218
f 200 201 251
f 201 202 250
f 204 253 207
f 204 205 254
f 206 207 256
f 197 246 205
f 208 209 258
f 208 257 211
f 210 212 261
f 211 259 212
f 210 260 213
f 213 263 214
f 214 262 215
f 216 266 217
f 216 218 267
f 217 265 220
f 219 268 209
f 219 220 269
f 221 270 223
f 222 223 271
f 215 264 221
f 222 272 224
f 224 273 225
f 225 274 226
f 226 275 227
f 227 276 228
f 229 230 279
f 230 231 280
f 231 232 281
f 233 234 283
f 234 235 284
f 235 229 278
f 232 236 285
f 236 237 286
f 237 238 287
f 239 288 238
f 239 240 289
f 240 241 290
f 241 242 291
f 242 243 292
f 243 244 293
f 244 245 294
f 245 295 296
f 295 228 542
f 228 277 542
f 197 247 246
f 199 248 247
f 198 282 248
f 200 251 249
f 202 252 250
f 201 250 251
f 203 255 252
f 204 254 253
f 205 246 254
f 206 256 255
f 207 253 256
f 208 258 257
f 211 257 259
f 210 261 260
f 212 259 261
f 214 263 262
f 213 260 263
f 215 262 264
f 217 266 265
f 216 267 266
f 218 249 267
f 220 265 269
f 219 269 268
f 209 268 258
f 221 264 270
f 223 270 271
f 222 271 272
f 224 272 273
f 225 273 274
f 226 274 275
f 227 275 276
f 228 276 277
f 229 279 278
f 230 280 279
f 231 281 280
f 233 283 282
f 234 284 283
f 235 278 284
f 232 285 281
f 236 286 285
f 237 287 286
f 239 289 288
f 240 290 289
f 238 288 287
f 241 291 290
f 242 292 291
f 243 293 292
f 244 294 293
f 245 296 294
f 98 295 642
f 98 642 346
f 90 346 436
f 346 348 347
f 346 349 348
f 346 350 349
f 346 351 350
f 346 352 351
f 346 353 352
f 346 354 353
f 346 355 354
f 346 356 355
f 346 357 356
f 346 358 357
f 346 359 358
f 346 360 359
f 346 361 360
f 346 362 361
f 346 363 362
f 346 364 363
f 346 365 364
f 346 366 365
f 346 367 366
f 346 368 367
f 346 369 368
f 346 370 369
f 346 371 370
f 346 372 371
f 346 373 372
f 346 374 373
f 346 375 374
f 346 376 375
f 346 377 376
f 346 378 377
f 346 379 378
f 346 380 379
f 346 381 380
f 346 382 381
f 346 383 382
f 346 384 383
f 346 385 384
f 346 386 385
f 346 387 386
f 346 388 387
f 346 389 388
f 346 390 389
f 346 391 390
f 346 392 391
f 346 393 392
f 346 394 393
f 346 347 437
f 347 348 438
f 348 349 439
f 349 350 440
f 350 351 441
f 351 352 442
f 352 353 443
f 353 354 444
f 354 355 445
f 355 356 446
f 356 357 447
f 357 358 448
f 358 359 449
f 359 360 450
f 360 361 451
f 361 362 452
f 362 363 453
f 363 364 454
f 364 365 455
f 365 366 456
f 366 367 457
f 367 368 458
f 368 369 459
f 369 370 460
f 370 371 461
f 371 372 462
f 372 373 463
f 373 374 464
f 374 375 465
f 375 376 466
f 376 377 467
f 377 378 468
f 378 379 469
f 379 380 470
f 380 381 471
f 381 382 472
f 382 383 473
f 383 384 474
f 384 385 475
f 385 386 476
f 386 387 477
f 387 388 478
f 388 389 479
f 389 390 480
f 390 391 481
f 391 392 482
f 392 393 483
f 393 394 484
f 346 437 436
f 347 438 437
f 348 439 438
f 349 440 439
f 350 441 440
f 351 442 441
f 352 443 442
f 353 444 443
f 354 445 444
f 355 446 445
f 356 447 446
f 357 448 447
f 358 449 448
f 359 450 449
f 360 451 450
f 361 452 451
f 362 453 452
f 363 454 453
f 364 455 454
f 365 456 455
f 366 457 456
f 367 458 457
f 368 459 458
f 369 460 459
f 370 461 460
f 371 462 461
f 372 463 462
f 373 464 463
f 374 465 464
f 375 466 465
f 376 467 466
f 377 468 467
f 378 469 468
f 379 470 469
f 380 471 470
f 381 472 471
f 382 473 472
f 383 474 473
f 384 475 474
f 385 476 475
f 386 477 476
f 387 478 477
f 388 479 478
f 389 480 479
f 390 481 480
f 391 482 481
f 392 483 482
f 393 484 483
f 346 885 394
f 394 934 484
f 295 542 543
f 295 543 544
f 295 544 545
f 295 545 546
f 295 546 547
f 295 547 548
f 295 548 549
f 295 549 550
f 295 550 551
f 295 551 552
f 295 552 553
f 295 553 554
f 295 554 555
f 295 555 556
f 295 556 557
f 295 557 558
f 295 558 559
f 295 559 560
f 295 560 561
f 295 561 562
f 295 562 563
f 295 563 564
f 295 564 565
f 295 565 566
f 295 566 567
f 295 567 568
f 295 568 569
f 295 569 570
f 295 570 571
f 295 571 572
f 295 572 573
f 295 573 574
f 295 574 575
f 295 575 576
f 295 576 577
f 295 577 578
f 295 578 579
f 295 579 580
f 295 580 581
f 295 581 582
f 295 582 583
f 295 583 584
f 295 584 585
f 295 585 586
f 295 586 587
f 295 587 588
f 295 588 589
f 295 589 638
f 295 638 640
f 542 590 543
f 543 591 544
f 544 592 545
f 545 593 546
f 546 594 547
f 547 595 548
f 548 596 549
f 549 597 550
f 550 598 551
f 551 599 552
f 552 600 553
f 553 601 554
f 554 602 555
f 555 603 556
f 556 604 557
f 557 605 558
f 558 606 559
f 559 607 560
f 560 608 561
f 561 609 562
f 562 610 563
f 563 611 564
f 564 612 565
f 565 613 566
f 566 614 567
f 567 615 568
f 568 616 569
f 569 617 570
f 570 618 571
f 571 619 572
f 572 620 573
f 573 621 574
f 574 622 575
f 575 623 576
f 576 624 577
f 577 625 578
f 578 626 579
f 579 627 580
f 580 628 581
f 581 629 582
f 582 630 583
f 583 631 584
f 584 632 585
f 585 633 586
f 586 634 587
f 587 635 588
f 588 636 589
f 589 637 638
f 542 277 590
f 543 590 591
f 544 591 592
f 545 592 593
f 546 593 594
f 547 594 595
f 548 595 596
f 549 596 597
f 550 597 598
f 551 598 599
f 552 599 600
f 553 600 601
f 554 601 602
f 555 602 603
f 556 603 604
f 557 604 605
f 558 605 606
f 559 606 607
f 560 607 608
f 561 608 609
f 562 609 610
f 563 610 611
f 564 611 612
f 565 612 613
f 566 613 614
f 567 614 615
f 568 615 616
f 569 616 617
f 570 617 618
f 571 618 619
f 572 619 620
f 573 620 621
f 574 621 622
f 575 622 623
f 576 623 624
f 577 624 625
f 578 625 626
f 579 626 627
f 580 627 628
f 581 628 629
f 582 629 630
f 583 630 631
f 584 631 632
f 585 632 633
f 586 633 634
f 587 634 635
f 588 635 636
f 589 636 637
f 638 637 639
f 638 639 640
f 640 639 641
f 295 640 642
f 642 640 699
f 640 641 699
f 346 642 643
f 346 643 644
f 346 644 645
f 346 645 646
f 346 646 647
f 346 647 648
f 346 648 649
f 346 649 650
f 346 650 651
f 346 651 652
f 346 652 653
f 346 653 654
f 346 654 655
f 346 655 656
f 346 656 657
f 346 657 658
f 346 658 659
f 346 659 660
f 346 660 661
f 346 661 662
f 346 662 663
f 346 663 664
f 346 664 665
f 346 665 666
f 346 666 667
f 346 667 668
f 346 668 669
f 346 669 670
f 346 670 671
f 346 671 672
f 346 672 673
f 346 673 674
f 346 674 675
f 346 675 676
f 346 676 677
f 346 677 678
f 346 678 679
f 346 679 680
f 346 680 681
f 346 681 682
f 346 682 683
f 346 683 684
f 346 684 685
f 346 685 686
f 346 686 687
f 346 687 688
f 346 688 689
f 346 689 690
f 642 699 643
f 643 700 644
f 644 701 645
f 645 702 646
f 646 703 647
f 647 704 648
f 648 705 649
f 649 706 650
f 650 707 651
f 651 708 652
f 652 709 653
f 653 710 654
f 654 711 655
f 655 712 656
f 656 713 657
f 657 714 658
f 658 715 659
f 659 716 660
f 660 717 661
f 661 718 662
f 662 719 663
f 663 720 664
f 664 721 665
f 665 722 666
f 666 723 667
f 667 724 668
f 668 725 669
f 669 726 670
f 670 727 671
f 671 728 672
f 672 729 673
f 673 730 674
f 674 731 675
f 675 732 676
f 676 733 677
f 677 734 678
f 678 735 679
f 679 736 680
f 680 737 681
f 681 738 682
f 682 739 683
f 683 740 684
f 684 741 685
f 685 742 686
f 686 743 687
f 687 744 688
f 688 745 689
f 689 746 690
f 643 699 700
f 644 700 701
f 645 701 702
f 646 702 703
f 647 703 704
f 648 704 705
f 649 705 706
f 650 706 707
f 651 707 708
f 652 708 709
f 653 709 710
f 654 710 711
f 655 711 712
f 656 712 713
f 657 713 714
f 658 714 715
f 659 715 716
f 660 716 717
f 661 717 718
f 662 718 719
f 663 719 720
f 664 720 721
f 665 721 722
f 666 722 723
f 667 723 724
f 668 724 725
f 669 725 726
f 670 726 727
f 671 727 728
f 672 728 729
f 673 729 730
f 674 730 731
f 675 731 732
f 676 732 733
f 677 733 734
f 678 734 735
f 679 735 736
f 680 736 737
f 681 737 738
f 682 738 739
f 683 739 740
f 684 740 741
f 685 741 742
f 686 742 743
f 687 743 744
f 688 744 745
f 689 745 746
f 690 746 780
f 690 780 886
f 346 690 886
f 346 886 845
f 346 845 846
f 346 846 847
f 346 847 848
f 346 848 849
f 346 849 850
f 346 850 851
f 346 867 868
f 346 851 867
f 346 868 866
f 346 866 870
f 346 870 869
f 346 856 855
f 346 857 856
f 346 859 857
f 346 838 885
f 346 839 838
f 346 840 839
f 346 841 840
f 346 842 841
f 346 843 842
f 346 844 843
f 346 852 844
f 346 853 852
f 346 854 853
f 346 855 854
f 346 860 859
f 346 862 860
f 346 863 861
f 346 861 862
f 346 864 863
f 346 880 858
f 346 879 880
f 346 883 878
f 346 878 881
f 346 881 879
f 346 858 864
f 346 875 872
f 346 865 884
f 346 884 882
f 346 876 877
f 346 872 876
f 346 877 865
f 346 869 871
f 346 871 874
f 346 874 873
f 346 873 875
f 346 882 883
f 394 885 934
f 886 780 943
f 885 838 887
f 838 839 888
f 839 840 889
f 840 841 890
f 841 842 891
f 842 843 892
f 843 844 893
f 844 852 901
f 886 943 845
f 845 894 846
f 846 895 847
f 847 896 848
f 848 897 849
f 849 898 850
f 851 900 867
f 850 899 851
f 852 853 902
f 853 854 903
f 854 855 904
f 857 859 908
f 855 856 905
f 856 857 906
f 864 858 907
f 860 909 859
f 861 910 862
f 860 862 911
f 861 863 912
f 863 864 913
f 884 865 914
f 877 926 865
f 871 920 874
f 866 915 870
f 867 916 868
f 868 917 866
f 869 870 919
f 869 918 871
f 873 922 875
f 873 874 923
f 872 875 924
f 876 925 877
f 872 921 876
f 878 927 881
f 880 879 928
f 880 929 858
f 881 930 879
f 882 931 883
f 878 883 932
f 884 933 882
f 885 887 934
f 838 888 887
f 839 889 888
f 840 890 889
f 841 891 890
f 842 892 891
f 843 893 892
f 844 901 893
f 845 943 894
f 846 894 895
f 847 895 896
f 848 896 897
f 849 897 898
f 850 898 899
f 851 899 900
f 867 900 916
f 852 902 901
f 854 904 903
f 853 903 902
f 857 908 906
f 855 905 904
f 856 906 905
f 864 907 913
f 858 929 907
f 859 909 908
f 860 911 909
f 862 910 911
f 861 912 910
f 863 913 912
f 865 926 914
f 874 920 923
f 866 917 915
f 870 915 919
f 868 916 917
f 869 919 918
f 871 918 920
f 872 924 921
f 873 923 922
f 875 922 924
f 877 925 926
f 876 921 925
f 878 932 927
f 879 930 928
f 880 928 929
f 881 927 930
f 882 933 931
f 883 931 932
f 884 914 933

