# https://github.com/mikedh/trimesh
v 0.00000000 2.00000000 0.00000000
v 0.00107083 1.93456183 0.00000000
v 0.00428215 1.86919374 0.00000000
v 0.00963055 1.80396572 0.00000000
v 0.01711028 1.73894762 0.00000000
v 0.02671334 1.67420905 0.00000000
v 0.03842944 1.60981936 0.00000000
v 0.05224604 1.54584747 0.00000000
v 0.06814835 1.48236191 0.00000000
v 0.08611933 1.41943065 0.00000000
v 0.10613974 1.35712107 0.00000000
v 0.12818815 1.29549990 0.00000000
v 0.15224093 1.23463314 0.00000000
v 0.17827235 1.17458594 0.00000000
v 0.20625452 1.11542262 0.00000000
v 0.23615747 1.05720653 0.00000000
v 0.26794919 1.00000000 0.00000000
v 0.30159564 0.94386430 0.00000000
v 0.33706078 0.88885953 0.00000000
v 0.37430663 0.83504461 0.00000000
v 0.41329332 0.78247714 0.00000000
v 0.45397909 0.73121343 0.00000000
v 0.49632039 0.68130837 0.00000000
v 0.54027185 0.63281540 0.00000000
v 0.58578644 0.58578644 0.00000000
v 0.63281540 0.54027185 0.00000000
v 0.68130837 0.49632039 0.00000000
v 0.73121343 0.45397909 0.00000000
v 0.78247714 0.41329332 0.00000000
v 0.83504461 0.37430663 0.00000000
v 0.88885953 0.33706078 0.00000000
v 0.94386430 0.30159564 0.00000000
v 1.00000000 0.26794919 0.00000000
v 1.05720653 0.23615747 0.00000000
v 1.11542262 0.20625452 0.00000000
v 1.17458594 0.17827235 0.00000000
v 1.23463314 0.15224093 0.00000000
v 1.29549990 0.12818815 0.00000000
v 1.35712107 0.10613974 0.00000000
v 1.41943065 0.08611933 0.00000000
v 1.48236191 0.06814835 0.00000000
v 1.54584747 0.05224604 0.00000000
v 1.60981936 0.03842944 0.00000000
v 1.67420905 0.02671334 0.00000000
v 1.73894762 0.01711028 0.00000000
v 1.80396572 0.00963055 0.00000000
v 1.86919374 0.00428215 0.00000000
v 1.93456183 0.00107083 0.00000000
v 2.00000000 0.00000000 0.00000000
v 34.00000000 0.00000000 0.00000000
v 34.06543817 0.00107083 0.00000000
v 34.13080626 0.00428215 0.00000000
v 34.19603428 0.00963055 0.00000000
v 34.26105238 0.01711028 0.00000000
v 34.32579095 0.02671334 0.00000000
v 34.39018064 0.03842944 0.00000000
v 34.45415253 0.05224604 0.00000000
v 34.51763809 0.06814835 0.00000000
v 34.58056935 0.08611933 0.00000000
v 34.64287893 0.10613974 0.00000000
v 34.70450010 0.12818815 0.00000000
v 34.76536686 0.15224093 0.00000000
v 34.82541406 0.17827235 0.00000000
v 34.88457738 0.20625452 0.00000000
v 34.94279347 0.23615747 0.00000000
v 35.00000000 0.26794919 0.00000000
v 35.05613570 0.30159564 0.00000000
v 35.11114047 0.33706078 0.00000000
v 35.16495539 0.37430663 0.00000000
v 35.21752286 0.41329332 0.00000000
v 35.26878657 0.45397909 0.00000000
v 35.31869163 0.49632039 0.00000000
v 35.36718460 0.54027185 0.00000000
v 35.41421356 0.58578644 0.00000000
v 35.45972815 0.63281540 0.00000000
v 35.50367961 0.68130837 0.00000000
v 35.54602091 0.73121343 0.00000000
v 35.58670668 0.78247714 0.00000000
v 35.62569337 0.83504461 0.00000000
v 35.66293922 0.88885953 0.00000000
v 35.69840436 0.94386430 0.00000000
v 35.73205081 1.00000000 0.00000000
v 35.76384253 1.05720653 0.00000000
v 35.79374548 1.11542262 0.00000000
v 35.82172765 1.17458594 0.00000000
v 35.84775907 1.23463314 0.00000000
v 35.87181185 1.29549990 0.00000000
v 35.89386026 1.35712107 0.00000000
v 35.91388067 1.41943065 0.00000000
v 35.93185165 1.48236191 0.00000000
v 35.94775396 1.54584747 0.00000000
v 35.96157056 1.60981936 0.00000000
v 35.97328666 1.67420905 0.00000000
v 35.98288972 1.73894762 0.00000000
v 35.99036945 1.80396572 0.00000000
v 35.99571785 1.86919374 0.00000000
v 35.99892917 1.93456183 0.00000000
v 36.00000000 2.00000000 0.00000000
v 36.00000000 34.00000000 0.00000000
v 35.99892917 34.06543817 0.00000000
v 35.99571785 34.13080626 0.00000000
v 35.99036945 34.19603428 0.00000000
v 35.98288972 34.26105238 0.00000000
v 35.97328666 34.32579095 0.00000000
v 35.96157056 34.39018064 0.00000000
v 35.94775396 34.45415253 0.00000000
v 35.93185165 34.51763809 0.00000000
v 35.91388067 34.58056935 0.00000000
v 35.89386026 34.64287893 0.00000000
v 35.87181185 34.70450010 0.00000000
v 35.84775907 34.76536686 0.00000000
v 35.82172765 34.82541406 0.00000000
v 35.79374548 34.88457738 0.00000000
v 35.76384253 34.94279347 0.00000000
v 35.73205081 35.00000000 0.00000000
v 35.69840436 35.05613570 0.00000000
v 35.66293922 35.11114047 0.00000000
v 35.62569337 35.16495539 0.00000000
v 35.58670668 35.21752286 0.00000000
v 35.54602091 35.26878657 0.00000000
v 35.50367961 35.31869163 0.00000000
v 35.45972815 35.36718460 0.00000000
v 35.41421356 35.41421356 0.00000000
v 35.36718460 35.45972815 0.00000000
v 35.31869163 35.50367961 0.00000000
v 35.26878657 35.54602091 0.00000000
v 35.21752286 35.58670668 0.00000000
v 35.16495539 35.62569337 0.00000000
v 35.11114047 35.66293922 0.00000000
v 35.05613570 35.69840436 0.00000000
v 35.00000000 35.73205081 0.00000000
v 34.94279347 35.76384253 0.00000000
v 34.88457738 35.79374548 0.00000000
v 34.82541406 35.82172765 0.00000000
v 34.76536686 35.84775907 0.00000000
v 34.70450010 35.87181185 0.00000000
v 34.64287893 35.89386026 0.00000000
v 34.58056935 35.91388067 0.00000000
v 34.51763809 35.93185165 0.00000000
v 34.45415253 35.94775396 0.00000000
v 34.39018064 35.96157056 0.00000000
v 34.32579095 35.97328666 0.00000000
v 34.26105238 35.98288972 0.00000000
v 34.19603428 35.99036945 0.00000000
v 34.13080626 35.99571785 0.00000000
v 34.06543817 35.99892917 0.00000000
v 34.00000000 36.00000000 0.00000000
v 2.00000000 36.00000000 0.00000000
v 1.93456183 35.99892917 0.00000000
v 1.86919374 35.99571785 0.00000000
v 1.80396572 35.99036945 0.00000000
v 1.73894762 35.98288972 0.00000000
v 1.67420905 35.97328666 0.00000000
v 1.60981936 35.96157056 0.00000000
v 1.54584747 35.94775396 0.00000000
v 1.48236191 35.93185165 0.00000000
v 1.41943065 35.91388067 0.00000000
v 1.35712107 35.89386026 0.00000000
v 1.29549990 35.87181185 0.00000000
v 1.23463314 35.84775907 0.00000000
v 1.17458594 35.82172765 0.00000000
v 1.11542262 35.79374548 0.00000000
v 1.05720653 35.76384253 0.00000000
v 1.00000000 35.73205081 0.00000000
v 0.94386430 35.69840436 0.00000000
v 0.88885953 35.66293922 0.00000000
v 0.83504461 35.62569337 0.00000000
v 0.78247714 35.58670668 0.00000000
v 0.73121343 35.54602091 0.00000000
v 0.68130837 35.50367961 0.00000000
v 0.63281540 35.45972815 0.00000000
v 0.58578644 35.41421356 0.00000000
v 0.54027185 35.36718460 0.00000000
v 0.49632039 35.31869163 0.00000000
v 0.45397909 35.26878657 0.00000000
v 0.41329332 35.21752286 0.00000000
v 0.37430663 35.16495539 0.00000000
v 0.33706078 35.11114047 0.00000000
v 0.30159564 35.05613570 0.00000000
v 0.26794919 35.00000000 0.00000000
v 0.23615747 34.94279347 0.00000000
v 0.20625452 34.88457738 0.00000000
v 0.17827235 34.82541406 0.00000000
v 0.15224093 34.76536686 0.00000000
v 0.12818815 34.70450010 0.00000000
v 0.10613974 34.64287893 0.00000000
v 0.08611933 34.58056935 0.00000000
v 0.06814835 34.51763809 0.00000000
v 0.05224604 34.45415253 0.00000000
v 0.03842944 34.39018064 0.00000000
v 0.02671334 34.32579095 0.00000000
v 0.01711028 34.26105238 0.00000000
v 0.00963055 34.19603428 0.00000000
v 0.00428215 34.13080626 0.00000000
v 0.00107083 34.06543817 0.00000000
v 0.00000000 34.00000000 0.00000000
v 0.00000000 2.00000000 2.80000000
v 0.00107083 1.93456183 2.80000000
v 0.00428215 1.86919374 2.80000000
v 0.00963055 1.80396572 2.80000000
v 0.01711028 1.73894762 2.80000000
v 0.02671334 1.67420905 2.80000000
v 0.03842944 1.60981936 2.80000000
v 0.05224604 1.54584747 2.80000000
v 0.06814835 1.48236191 2.80000000
v 0.08611933 1.41943065 2.80000000
v 0.10613974 1.35712107 2.80000000
v 0.12818815 1.29549990 2.80000000
v 0.15224093 1.23463314 2.80000000
v 0.17827235 1.17458594 2.80000000
v 0.20625452 1.11542262 2.80000000
v 0.23615747 1.05720653 2.80000000
v 0.26794919 1.00000000 2.80000000
v 0.30159564 0.94386430 2.80000000
v 0.33706078 0.88885953 2.80000000
v 0.37430663 0.83504461 2.80000000
v 0.41329332 0.78247714 2.80000000
v 0.45397909 0.73121343 2.80000000
v 0.49632039 0.68130837 2.80000000
v 0.54027185 0.63281540 2.80000000
v 0.58578644 0.58578644 2.80000000
v 0.63281540 0.54027185 2.80000000
v 0.68130837 0.49632039 2.80000000
v 0.73121343 0.45397909 2.80000000
v 0.78247714 0.41329332 2.80000000
v 0.83504461 0.37430663 2.80000000
v 0.88885953 0.33706078 2.80000000
v 0.94386430 0.30159564 2.80000000
v 1.00000000 0.26794919 2.80000000
v 1.05720653 0.23615747 2.80000000
v 1.11542262 0.20625452 2.80000000
v 1.17458594 0.17827235 2.80000000
v 1.23463314 0.15224093 2.80000000
v 1.29549990 0.12818815 2.80000000
v 1.35712107 0.10613974 2.80000000
v 1.41943065 0.08611933 2.80000000
v 1.48236191 0.06814835 2.80000000
v 1.54584747 0.05224604 2.80000000
v 1.60981936 0.03842944 2.80000000
v 1.67420905 0.02671334 2.80000000
v 1.73894762 0.01711028 2.80000000
v 1.80396572 0.00963055 2.80000000
v 1.86919374 0.00428215 2.80000000
v 1.93456183 0.00107083 2.80000000
v 2.00000000 0.00000000 2.80000000
v 34.00000000 0.00000000 2.80000000
v 34.06543817 0.00107083 2.80000000
v 34.13080626 0.00428215 2.80000000
v 34.19603428 0.00963055 2.80000000
v 34.26105238 0.01711028 2.80000000
v 34.32579095 0.02671334 2.80000000
v 34.39018064 0.03842944 2.80000000
v 34.45415253 0.05224604 2.80000000
v 34.51763809 0.06814835 2.80000000
v 34.58056935 0.08611933 2.80000000
v 34.64287893 0.10613974 2.80000000
v 34.70450010 0.12818815 2.80000000
v 34.76536686 0.15224093 2.80000000
v 34.82541406 0.17827235 2.80000000
v 34.88457738 0.20625452 2.80000000
v 34.94279347 0.23615747 2.80000000
v 35.00000000 0.26794919 2.80000000
v 35.05613570 0.30159564 2.80000000
v 35.11114047 0.33706078 2.80000000
v 35.16495539 0.37430663 2.80000000
v 35.21752286 0.41329332 2.80000000
v 35.26878657 0.45397909 2.80000000
v 35.31869163 0.49632039 2.80000000
v 35.36718460 0.54027185 2.80000000
v 35.41421356 0.58578644 2.80000000
v 35.45972815 0.63281540 2.80000000
v 35.50367961 0.68130837 2.80000000
v 35.54602091 0.73121343 2.80000000
v 35.58670668 0.78247714 2.80000000
v 35.62569337 0.83504461 2.80000000
v 35.66293922 0.88885953 2.80000000
v 35.69840436 0.94386430 2.80000000
v 35.73205081 1.00000000 2.80000000
v 35.76384253 1.05720653 2.80000000
v 35.79374548 1.11542262 2.80000000
v 35.82172765 1.17458594 2.80000000
v 35.84775907 1.23463314 2.80000000
v 35.87181185 1.29549990 2.80000000
v 35.89386026 1.35712107 2.80000000
v 35.91388067 1.41943065 2.80000000
v 35.93185165 1.48236191 2.80000000
v 35.94775396 1.54584747 2.80000000
v 35.96157056 1.60981936 2.80000000
v 35.97328666 1.67420905 2.80000000
v 35.98288972 1.73894762 2.80000000
v 35.99036945 1.80396572 2.80000000
v 35.99571785 1.86919374 2.80000000
v 35.99892917 1.93456183 2.80000000
v 36.00000000 2.00000000 2.80000000
v 36.00000000 34.00000000 2.80000000
v 35.99892917 34.06543817 2.80000000
v 35.99571785 34.13080626 2.80000000
v 35.99036945 34.19603428 2.80000000
v 35.98288972 34.26105238 2.80000000
v 35.97328666 34.32579095 2.80000000
v 35.96157056 34.39018064 2.80000000
v 35.94775396 34.45415253 2.80000000
v 35.93185165 34.51763809 2.80000000
v 35.91388067 34.58056935 2.80000000
v 35.89386026 34.64287893 2.80000000
v 35.87181185 34.70450010 2.80000000
v 35.84775907 34.76536686 2.80000000
v 35.82172765 34.82541406 2.80000000
v 35.79374548 34.88457738 2.80000000
v 35.76384253 34.94279347 2.80000000
v 35.73205081 35.00000000 2.80000000
v 35.69840436 35.05613570 2.80000000
v 35.66293922 35.11114047 2.80000000
v 35.62569337 35.16495539 2.80000000
v 35.58670668 35.21752286 2.80000000
v 35.54602091 35.26878657 2.80000000
v 35.50367961 35.31869163 2.80000000
v 35.45972815 35.36718460 2.80000000
v 35.41421356 35.41421356 2.80000000
v 35.36718460 35.45972815 2.80000000
v 35.31869163 35.50367961 2.80000000
v 35.26878657 35.54602091 2.80000000
v 35.21752286 35.58670668 2.80000000
v 35.16495539 35.62569337 2.80000000
v 35.11114047 35.66293922 2.80000000
v 35.05613570 35.69840436 2.80000000
v 35.00000000 35.73205081 2.80000000
v 34.94279347 35.76384253 2.80000000
v 34.88457738 35.79374548 2.80000000
v 34.82541406 35.82172765 2.80000000
v 34.76536686 35.84775907 2.80000000
v 34.70450010 35.87181185 2.80000000
v 34.64287893 35.89386026 2.80000000
v 34.58056935 35.91388067 2.80000000
v 34.51763809 35.93185165 2.80000000
v 34.45415253 35.94775396 2.80000000
v 34.39018064 35.96157056 2.80000000
v 34.32579095 35.97328666 2.80000000
v 34.26105238 35.98288972 2.80000000
v 34.19603428 35.99036945 2.80000000
v 34.13080626 35.99571785 2.80000000
v 34.06543817 35.99892917 2.80000000
v 34.00000000 36.00000000 2.80000000
v 2.00000000 36.00000000 2.80000000
v 1.93456183 35.99892917 2.80000000
v 1.86919374 35.99571785 2.80000000
v 1.80396572 35.99036945 2.80000000
v 1.73894762 35.98288972 2.80000000
v 1.67420905 35.97328666 2.80000000
v 1.60981936 35.96157056 2.80000000
v 1.54584747 35.94775396 2.80000000
v 1.48236191 35.93185165 2.80000000
v 1.41943065 35.91388067 2.80000000
v 1.35712107 35.89386026 2.80000000
v 1.29549990 35.87181185 2.80000000
v 1.23463314 35.84775907 2.80000000
v 1.17458594 35.82172765 2.80000000
v 1.11542262 35.79374548 2.80000000
v 1.05720653 35.76384253 2.80000000
v 1.00000000 35.73205081 2.80000000
v 0.94386430 35.69840436 2.80000000
v 0.88885953 35.66293922 2.80000000
v 0.83504461 35.62569337 2.80000000
v 0.78247714 35.58670668 2.80000000
v 0.73121343 35.54602091 2.80000000
v 0.68130837 35.50367961 2.80000000
v 0.63281540 35.45972815 2.80000000
v 0.58578644 35.41421356 2.80000000
v 0.54027185 35.36718460 2.80000000
v 0.49632039 35.31869163 2.80000000
v 0.45397909 35.26878657 2.80000000
v 0.41329332 35.21752286 2.80000000
v 0.37430663 35.16495539 2.80000000
v 0.33706078 35.11114047 2.80000000
v 0.30159564 35.05613570 2.80000000
v 0.26794919 35.00000000 2.80000000
v 0.23615747 34.94279347 2.80000000
v 0.20625452 34.88457738 2.80000000
v 0.17827235 34.82541406 2.80000000
v 0.15224093 34.76536686 2.80000000
v 0.12818815 34.70450010 2.80000000
v 0.10613974 34.64287893 2.80000000
v 0.08611933 34.58056935 2.80000000
v 0.06814835 34.51763809 2.80000000
v 0.05224604 34.45415253 2.80000000
v 0.03842944 34.39018064 2.80000000
v 0.02671334 34.32579095 2.80000000
v 0.01711028 34.26105238 2.80000000
v 0.00963055 34.19603428 2.80000000
v 0.00428215 34.13080626 2.80000000
v 0.00107083 34.06543817 2.80000000
v 0.00000000 34.00000000 2.80000000
f 2 1 196
f 3 2 196
f 4 3 196
f 5 4 196
f 6 5 196
f 7 6 196
f 8 7 196
f 9 8 196
f 10 9 196
f 11 10 196
f 12 11 196
f 13 12 196
f 14 13 196
f 15 14 196
f 16 15 196
f 17 16 196
f 18 17 196
f 19 18 196
f 20 19 196
f 21 20 196
f 22 21 196
f 23 22 196
f 24 23 196
f 25 24 196
f 26 25 196
f 27 26 196
f 28 27 196
f 29 28 196
f 30 29 196
f 31 30 196
f 32 31 196
f 33 32 196
f 34 33 196
f 35 34 196
f 36 35 196
f 37 36 196
f 38 37 196
f 39 38 196
f 40 39 196
f 41 40 196
f 42 41 196
f 43 42 196
f 44 43 196
f 45 44 196
f 46 45 196
f 47 46 196
f 48 47 196
f 49 48 196
f 50 49 196
f 51 50 196
f 52 51 196
f 53 52 196
f 54 53 196
f 55 54 196
f 56 55 196
f 57 56 196
f 58 57 196
f 59 58 196
f 60 59 196
f 61 60 196
f 62 61 196
f 63 62 196
f 64 63 196
f 65 64 196
f 66 65 196
f 67 66 196
f 68 67 196
f 69 68 196
f 70 69 196
f 71 70 196
f 72 71 196
f 73 72 196
f 74 73 196
f 75 74 196
f 76 75 196
f 77 76 196
f 78 77 196
f 79 78 196
f 80 79 196
f 81 80 196
f 82 81 196
f 83 82 196
f 84 83 196
f 85 84 196
f 86 85 196
f 87 86 196
f 88 87 196
f 89 88 196
f 90 89 196
f 91 90 196
f 92 91 196
f 93 92 196
f 94 93 196
f 95 94 196
f 96 95 196
f 97 96 196
f 98 97 196
f 99 98 196
f 100 99 196
f 101 100 196
f 102 101 196
f 103 102 196
f 104 103 196
f 105 104 196
f 106 105 196
f 107 106 196
f 108 107 196
f 109 108 196
f 110 109 196
f 111 110 196
f 112 111 196
f 113 112 196
f 114 113 196
f 115 114 196
f 116 115 196
f 117 116 196
f 118 117 196
f 119 118 196
f 120 119 196
f 121 120 196
f 122 121 196
f 123 122 196
f 124 123 196
f 125 124 196
f 126 125 196
f 127 126 196
f 128 127 196
f 129 128 196
f 130 129 196
f 131 130 196
f 132 131 196
f 133 132 196
f 134 133 196
f 135 134 196
f 136 135 196
f 137 136 196
f 138 137 196
f 139 138 196
f 140 139 196
f 141 140 196
f 142 141 196
f 143 142 196
f 144 143 196
f 145 144 196
f 146 145 196
f 147 146 196
f 148 147 196
f 149 148 196
f 150 149 196
f 151 150 196
f 152 151 196
f 153 152 196
f 154 153 196
f 155 154 196
f 156 155 196
f 157 156 196
f 158 157 196
f 159 158 196
f 160 159 196
f 161 160 196
f 162 161 196
f 163 162 196
f 164 163 196
f 165 164 196
f 166 165 196
f 167 166 196
f 168 167 196
f 169 168 196
f 170 169 196
f 171 170 196
f 172 171 196
f 173 172 196
f 174 173 196
f 175 174 196
f 176 175 196
f 177 176 196
f 178 177 196
f 179 178 196
f 180 179 196
f 181 180 196
f 182 181 196
f 183 182 196
f 184 183 196
f 185 184 196
f 186 185 196
f 187 186 196
f 188 187 196
f 189 188 196
f 190 189 196
f 191 190 196
f 192 191 196
f 193 192 196
f 194 193 196
f 195 194 196
f 392 197 198
f 392 198 199
f 392 199 200
f 392 200 201
f 392 201 202
f 392 202 203
f 392 203 204
f 392 204 205
f 392 205 206
f 392 206 207
f 392 207 208
f 392 208 209
f 392 209 210
f 392 210 211
f 392 211 212
f 392 212 213
f 392 213 214
f 392 214 215
f 392 215 216
f 392 216 217
f 392 217 218
f 392 218 219
f 392 219 220
f 392 220 221
f 392 221 222
f 392 222 223
f 392 223 224
f 392 224 225
f 392 225 226
f 392 226 227
f 392 227 228
f 392 228 229
f 392 229 230
f 392 230 231
f 392 231 232
f 392 232 233
f 392 233 234
f 392 234 235
f 392 235 236
f 392 236 237
f 392 237 238
f 392 238 239
f 392 239 240
f 392 240 241
f 392 241 242
f 392 242 243
f 392 243 244
f 392 244 245
f 392 245 246
f 392 246 247
f 392 247 248
f 392 248 249
f 392 249 250
f 392 250 251
f 392 251 252
f 392 252 253
f 392 253 254
f 392 254 255
f 392 255 256
f 392 256 257
f 392 257 258
f 392 258 259
f 392 259 260
f 392 260 261
f 392 261 262
f 392 262 263
f 392 263 264
f 392 264 265
f 392 265 266
f 392 266 267
f 392 267 268
f 392 268 269
f 392 269 270
f 392 270 271
f 392 271 272
f 392 272 273
f 392 273 274
f 392 274 275
f 392 275 276
f 392 276 277
f 392 277 278
f 392 278 279
f 392 279 280
f 392 280 281
f 392 281 282
f 392 282 283
f 392 283 284
f 392 284 285
f 392 285 286
f 392 286 287
f 392 287 288
f 392 288 289
f 392 289 290
f 392 290 291
f 392 291 292
f 392 292 293
f 392 293 294
f 392 294 295
f 392 295 296
f 392 296 297
f 392 297 298
f 392 298 299
f 392 299 300
f 392 300 301
f 392 301 302
f 392 302 303
f 392 303 304
f 392 304 305
f 392 305 306
f 392 306 307
f 392 307 308
f 392 308 309
f 392 309 310
f 392 310 311
f 392 311 312
f 392 312 313
f 392 313 314
f 392 314 315
f 392 315 316
f 392 316 317
f 392 317 318
f 392 318 319
f 392 319 320
f 392 320 321
f 392 321 322
f 392 322 323
f 392 323 324
f 392 324 325
f 392 325 326
f 392 326 327
f 392 327 328
f 392 328 329
f 392 329 330
f 392 330 331
f 392 331 332
f 392 332 333
f 392 333 334
f 392 334 335
f 392 335 336
f 392 336 337
f 392 337 338
f 392 338 339
f 392 339 340
f 392 340 341
f 392 341 342
f 392 342 343
f 392 343 344
f 392 344 345
f 392 345 346
f 392 346 347
f 392 347 348
f 392 348 349
f 392 349 350
f 392 350 351
f 392 351 352
f 392 352 353
f 392 353 354
f 392 354 355
f 392 355 356
f 392 356 357
f 392 357 358
f 392 358 359
f 392 359 360
f 392 360 361
f 392 361 362
f 392 362 363
f 392 363 364
f 392 364 365
f 392 365 366
f 392 366 367
f 392 367 368
f 392 368 369
f 392 369 370
f 392 370 371
f 392 371 372
f 392 372 373
f 392 373 374
f 392 374 375
f 392 375 376
f 392 376 377
f 392 377 378
f 392 378 379
f 392 379 380
f 392 380 381
f 392 381 382
f 392 382 383
f 392 383 384
f 392 384 385
f 392 385 386
f 392 386 387
f 392 387 388
f 392 388 389
f 392 389 390
f 392 390 391
f 198 197 2
f 2 197 1
f 199 198 3
f 3 198 2
f 200 199 4
f 4 199 3
f 201 200 5
f 5 200 4
f 202 201 6
f 6 201 5
f 203 202 7
f 7 202 6
f 204 203 8
f 8 203 7
f 205 204 9
f 9 204 8
f 206 205 10
f 10 205 9
f 207 206 11
f 11 206 10
f 208 207 12
f 12 207 11
f 209 208 13
f 13 208 12
f 210 209 14
f 14 209 13
f 211 210 15
f 15 210 14
f 212 211 16
f 16 211 15
f 213 212 17
f 17 212 16
f 214 213 18
f 18 213 17
f 215 214 19
f 19 214 18
f 216 215 20
f 20 215 19
f 217 216 21
f 21 216 20
f 218 217 22
f 22 217 21
f 219 218 23
f 23 218 22
f 220 219 24
f 24 219 23
f 221 220 25
f 25 220 24
f 222 221 26
f 26 221 25
f 223 222 27
f 27 222 26
f 224 223 28
f 28 223 27
f 225 224 29
f 29 224 28
f 226 225 30
f 30 225 29
f 227 226 31
f 31 226 30
f 228 227 32
f 32 227 31
f 229 228 33
f 33 228 32
f 230 229 34
f 34 229 33
f 231 230 35
f 35 230 34
f 232 231 36
f 36 231 35
f 233 232 37
f 37 232 36
f 234 233 38
f 38 233 37
f 235 234 39
f 39 234 38
f 236 235 40
f 40 235 39
f 237 236 41
f 41 236 40
f 238 237 42
f 42 237 41
f 239 238 43
f 43 238 42
f 240 239 44
f 44 239 43
f 241 240 45
f 45 240 44
f 242 241 46
f 46 241 45
f 243 242 47
f 47 242 46
f 244 243 48
f 48 243 47
f 245 244 49
f 49 244 48
f 246 245 50
f 50 245 49
f 247 246 51
f 51 246 50
f 248 247 52
f 52 247 51
f 249 248 53
f 53 248 52
f 250 249 54
f 54 249 53
f 251 250 55
f 55 250 54
f 252 251 56
f 56 251 55
f 253 252 57
f 57 252 56
f 254 253 58
f 58 253 57
f 255 254 59
f 59 254 58
f 256 255 60
f 60 255 59
f 257 256 61
f 61 256 60
f 258 257 62
f 62 257 61
f 259 258 63
f 63 258 62
f 260 259 64
f 64 259 63
f 261 260 65
f 65 260 64
f 262 261 66
f 66 261 65
f 263 262 67
f 67 262 66
f 264 263 68
f 68 263 67
f 265 264 69
f 69 264 68
f 266 265 70
f 70 265 69
f 267 266 71
f 71 266 70
f 268 267 72
f 72 267 71
f 269 268 73
f 73 268 72
f 270 269 74
f 74 269 73
f 271 270 75
f 75 270 74
f 272 271 76
f 76 271 75
f 273 272 77
f 77 272 76
f 274 273 78
f 78 273 77
f 275 274 79
f 79 274 78
f 276 275 80
f 80 275 79
f 277 276 81
f 81 276 80
f 278 277 82
f 82 277 81
f 279 278 83
f 83 278 82
f 280 279 84
f 84 279 83
f 281 280 85
f 85 280 84
f 282 281 86
f 86 281 85
f 283 282 87
f 87 282 86
f 284 283 88
f 88 283 87
f 285 284 89
f 89 284 88
f 286 285 90
f 90 285 89
f 287 286 91
f 91 286 90
f 288 287 92
f 92 287 91
f 289 288 93
f 93 288 92
f 290 289 94
f 94 289 93
f 291 290 95
f 95 290 94
f 292 291 96
f 96 291 95
f 293 292 97
f 97 292 96
f 294 293 98
f 98 293 97
f 295 294 99
f 99 294 98
f 296 295 100
f 100 295 99
f 297 296 101
f 101 296 100
f 298 297 102
f 102 297 101
f 299 298 103
f 103 298 102
f 300 299 104
f 104 299 103
f 301 300 105
f 105 300 104
f 302 301 106
f 106 301 105
f 303 302 107
f 107 302 106
f 304 303 108
f 108 303 107
f 305 304 109
f 109 304 108
f 306 305 110
f 110 305 109
f 307 306 111
f 111 306 110
f 308 307 112
f 112 307 111
f 309 308 113
f 113 308 112
f 310 309 114
f 114 309 113
f 311 310 115
f 115 310 114
f 312 311 116
f 116 311 115
f 313 312 117
f 117 312 116
f 314 313 118
f 118 313 117
f 315 314 119
f 119 314 118
f 316 315 120
f 120 315 119
f 317 316 121
f 121 316 120
f 318 317 122
f 122 317 121
f 319 318 123
f 123 318 122
f 320 319 124
f 124 319 123
f 321 320 125
f 125 320 124
f 322 321 126
f 126 321 125
f 323 322 127
f 127 322 126
f 324 323 128
f 128 323 127
f 325 324 129
f 129 324 128
f 326 325 130
f 130 325 129
f 327 326 131
f 131 326 130
f 328 327 132
f 132 327 131
f 329 328 133
f 133 328 132
f 330 329 134
f 134 329 133
f 331 330 135
f 135 330 134
f 332 331 136
f 136 331 135
f 333 332 137
f 137 332 136
f 334 333 138
f 138 333 137
f 335 334 139
f 139 334 138
f 336 335 140
f 140 335 139
f 337 336 141
f 141 336 140
f 338 337 142
f 142 337 141
f 339 338 143
f 143 338 142
f 340 339 144
f 144 339 143
f 341 340 145
f 145 340 144
f 342 341 146
f 146 341 145
f 343 342 147
f 147 342 146
f 344 343 148
f 148 343 147
f 345 344 149
f 149 344 148
f 346 345 150
f 150 345 149
f 347 346 151
f 151 346 150
f 348 347 152
f 152 347 151
f 349 348 153
f 153 348 152
f 350 349 154
f 154 349 153
f 351 350 155
f 155 350 154
f 352 351 156
f 156 351 155
f 353 352 157
f 157 352 156
f 354 353 158
f 158 353 157
f 355 354 159
f 159 354 158
f 356 355 160
f 160 355 159
f 357 356 161
f 161 356 160
f 358 357 162
f 162 357 161
f 359 358 163
f 163 358 162
f 360 359 164
f 164 359 163
f 361 360 165
f 165 360 164
f 362 361 166
f 166 361 165
f 363 362 167
f 167 362 166
f 364 363 168
f 168 363 167
f 365 364 169
f 169 364 168
f 366 365 170
f 170 365 169
f 367 366 171
f 171 366 170
f 368 367 172
f 172 367 171
f 369 368 173
f 173 368 172
f 370 369 174
f 174 369 173
f 371 370 175
f 175 370 174
f 372 371 176
f 176 371 175
f 373 372 177
f 177 372 176
f 374 373 178
f 178 373 177
f 375 374 179
f 179 374 178
f 376 375 180
f 180 375 179
f 377 376 181
f 181 376 180
f 378 377 182
f 182 377 181
f 379 378 183
f 183 378 182
f 380 379 184
f 184 379 183
f 381 380 185
f 185 380 184
f 382 381 186
f 186 381 185
f 383 382 187
f 187 382 186
f 384 383 188
f 188 383 187
f 385 384 189
f 189 384 188
f 386 385 190
f 190 385 189
f 387 386 191
f 191 386 190
f 388 387 192
f 192 387 191
f 389 388 193
f 193 388 192
f 390 389 194
f 194 389 193
f 391 390 195
f 195 390 194
f 197 392 1
f 1 392 196
f 392 391 196
f 196 391 195

