# https://github.com/mikedh/trimesh
v 43.21563721 48.81059265 4.98436356
v 43.74115753 48.92860413 4.45884323
v 43.53455734 48.86593246 4.66544342
v 43.63862610 48.89472961 4.56137466
v 43.42919922 48.84227371 4.77080154
v 43.32280731 48.82381058 4.87719345
v 43.84190369 48.96746445 4.35809708
v 43.94062042 49.01122284 4.25938034
v 44.03707123 49.05977249 4.16292953
v 44.13102722 49.11299896 4.06897354
v 44.47742844 49.36990738 3.72257233
v 44.55563354 49.44436646 3.64436722
v 44.63009262 49.52257156 3.56990814
v 44.76705551 49.68946075 3.43294525
v 44.82923126 49.77774429 3.37076950
v 44.70062256 49.60433578 3.49937820
v 45.10527039 50.36137390 3.09473038
v 45.13406754 50.46544266 3.06593323
v 44.88700104 49.86897278 3.31299973
v 44.94022751 49.96292877 3.25977325
v 44.98877716 50.05937958 3.21122360
v 45.03253555 50.15809631 3.16746521
v 45.07139587 50.25884247 3.12860489
v 44.31053925 49.23294449 3.88946152
v 44.22225571 49.17076874 3.97774506
v 44.39566422 49.29937744 3.80433655
v 38.20000076 45.00000000 10.00000000
v 41.86897278 49.11299896 6.33102798
v 40.96746445 50.15809631 7.23253632
v 40.92860413 50.25884247 7.27139664
v 40.89472961 50.36137390 7.30527115
v 40.86593246 50.46544266 7.33406830
v 41.36990738 49.52257156 6.83009338
v 41.77774429 49.17076874 6.42225647
v 41.68946075 49.23294449 6.51054001
v 41.52257156 49.36990738 6.67742920
v 41.60433578 49.29937744 6.59566498
v 41.44436646 49.44436646 6.75563431
v 41.17076874 49.77774429 7.02923203
v 41.29937744 49.60433578 6.90062332
v 41.23294449 49.68946075 6.96705627
v 41.05977249 49.96292877 7.14022827
v 41.11299896 49.86897278 7.08700180
v 41.01122284 50.05937958 7.18877792
v 40.94939041 48.94939041 10.00000000
v 40.85124207 49.05247879 10.00000000
v 41.76008987 48.37842941 10.00000000
v 41.89021683 48.32074738 10.00000000
v 41.86897278 49.11299896 9.30000019
v 41.16025925 48.75827026 10.00000000
v 41.38884735 48.58873749 10.00000000
v 41.27247238 48.67070007 10.00000000
v 41.05247879 48.85124207 10.00000000
v 41.50910187 48.51258850 10.00000000
v 41.63294983 48.44242859 10.00000000
v 40.44242859 49.63294983 10.00000000
v 40.37842941 49.76008987 10.00000000
v 40.67070007 49.27247238 10.00000000
v 40.58873749 49.38884735 10.00000000
v 40.75827026 49.16025925 10.00000000
v 40.51258850 49.50910187 10.00000000
v 40.96746445 50.15809631 9.30000019
v 40.92860413 50.25884247 9.30000019
v 40.89472961 50.36137390 9.30000019
v 40.86593246 50.46544266 9.30000019
v 40.26952362 50.02301788 10.00000000
v 40.32074738 49.89021683 10.00000000
v 40.22487259 50.15817261 10.00000000
v 40.18690872 50.29535675 10.00000000
v 40.15572357 50.43423843 10.00000000
v 41.17076874 49.77774429 9.30000019
v 41.29937744 49.60433578 9.30000019
v 41.36990738 49.52257156 9.30000019
v 41.23294449 49.68946075 9.30000019
v 41.52257156 49.36990738 9.30000019
v 41.44436646 49.44436646 9.30000019
v 41.60433578 49.29937744 9.30000019
v 41.77774429 49.17076874 9.30000019
v 41.68946075 49.23294449 9.30000019
v 41.05977249 49.96292877 9.30000019
v 41.11299896 49.86897278 9.30000019
v 41.01122284 50.05937958 9.30000019
v 42.78436279 48.81059265 5.41563797
v 42.67719269 48.82381058 5.52280807
v 42.36137390 48.89472961 5.83862686
v 41.96292877 49.05977249 6.23707199
v 42.05937958 49.01122284 6.14062119
v 42.25884247 48.92860413 5.94115829
v 42.15809631 48.96746445 6.04190445
v 42.46544266 48.86593246 5.73455811
v 42.57080078 48.84227371 5.62919998
v 42.89205170 48.80265045 5.30794907
v 43.00000000 48.79999924 5.20000076
v 43.10794830 48.80265045 5.09205246
v 42.02301788 48.26952362 10.00000000
v 42.15817261 48.22487259 10.00000000
v 42.29535675 48.18690872 10.00000000
v 42.43423843 48.15572357 10.00000000
v 42.57448196 48.13138962 10.00000000
v 42.71575165 48.11396408 10.00000000
v 41.96292877 49.05977249 9.30000019
v 42.05937958 49.01122284 9.30000019
v 42.25884247 48.92860413 9.30000019
v 42.36137390 48.89472961 9.30000019
v 42.15809631 48.96746445 9.30000019
v 42.46544266 48.86593246 9.30000019
v 42.57080078 48.84227371 9.30000019
v 42.67719269 48.82381058 9.30000019
v 42.78436279 48.81059265 9.30000019
v 42.85770416 48.10349274 10.00000000
v 43.00000000 48.09999847 10.00000000
v 43.14229584 48.10349274 10.00000000
v 43.28424835 48.11396408 10.00000000
v 43.42551804 48.13138962 10.00000000
v 43.56576157 48.15572357 10.00000000
v 43.70464325 48.18690872 10.00000000
v 42.89205170 48.80265045 9.30000019
v 43.00000000 48.79999924 9.30000019
v 43.10794830 48.80265045 9.30000019
v 43.21563721 48.81059265 9.30000019
v 43.32280731 48.82381058 9.30000019
v 43.42919922 48.84227371 9.30000019
v 43.53455734 48.86593246 9.30000019
v 43.63862610 48.89472961 9.30000019
v 43.74115753 48.92860413 9.30000019
v 43.84182739 48.22487259 10.00000000
v 43.97698212 48.26952362 10.00000000
v 44.10978317 48.32074738 10.00000000
v 44.23991013 48.37842941 10.00000000
v 43.84190369 48.96746445 9.30000019
v 43.94062042 49.01122284 9.30000019
v 44.03707123 49.05977249 9.30000019
v 44.13102722 49.11299896 9.30000019
v 44.36705017 48.44242859 10.00000000
v 44.49089813 48.51258850 10.00000000
v 44.61115265 48.58873749 10.00000000
v 44.72752762 48.67070007 10.00000000
v 44.83974075 48.75827026 10.00000000
v 44.94752121 48.85124207 10.00000000
v 45.05060959 48.94939041 10.00000000
v 45.14875793 49.05247879 10.00000000
v 44.22225571 49.17076874 9.30000019
v 44.31053925 49.23294449 9.30000019
v 44.39566422 49.29937744 9.30000019
v 44.47742844 49.36990738 9.30000019
v 44.55563354 49.44436646 9.30000019
v 44.63009262 49.52257156 9.30000019
v 44.70062256 49.60433578 9.30000019
v 44.76705551 49.68946075 9.30000019
v 44.82923126 49.77774429 9.30000019
v 45.24172974 49.16025925 10.00000000
v 45.32929993 49.27247238 10.00000000
v 45.41126251 49.38884735 10.00000000
v 45.48741150 49.50910187 10.00000000
v 45.55757141 49.63294983 10.00000000
v 44.88700104 49.86897278 9.30000019
v 44.94022751 49.96292877 9.30000019
v 44.98877716 50.05937958 9.30000019
v 45.03253555 50.15809631 9.30000019
v 45.07139587 50.25884247 9.30000019
v 45.10527039 50.36137390 9.30000019
v 45.13406754 50.46544266 9.30000019
v 43.21563721 53.18940735 4.98436356
v 43.74115753 53.07139587 4.45884323
v 43.53455734 53.13406754 4.66544342
v 43.63862610 53.10527039 4.56137466
v 43.42919922 53.15772629 4.77080154
v 43.32280731 53.17618942 4.87719345
v 45.15772629 50.57080078 3.04227448
v 45.17618942 50.67719269 3.02381134
v 45.18940735 50.78436279 3.01059341
v 45.19734955 50.89205170 3.00265121
v 45.20000076 51.00000000 3.00000000
v 45.19734955 51.10794830 3.00265121
v 45.13406754 51.53455734 3.06593323
v 45.10527039 51.63862610 3.09473038
v 45.18940735 51.21563721 3.01059341
v 45.17618942 51.32280731 3.02381134
v 45.15772629 51.42919922 3.04227448
v 45.07139587 51.74115753 3.12860489
v 45.03253555 51.84190369 3.16746521
v 44.63009262 52.47742844 3.56990814
v 44.55563354 52.55563354 3.64436722
v 44.47742844 52.63009262 3.72257233
v 44.88700104 52.13102722 3.31299973
v 44.98877716 51.94062042 3.21122360
v 44.94022751 52.03707123 3.25977325
v 44.76705551 52.31053925 3.43294525
v 44.82923126 52.22225571 3.37076950
v 44.70062256 52.39566422 3.49937820
v 44.13102722 52.88700104 4.06897354
v 43.84190369 53.03253555 4.35809708
v 43.94062042 52.98877716 4.25938034
v 44.03707123 52.94022751 4.16292953
v 44.39566422 52.70062256 3.80433655
v 44.31053925 52.76705551 3.88946152
v 44.22225571 52.82923126 3.97774506
v 40.84227371 50.57080078 7.35772705
v 40.82381058 50.67719269 7.37619019
v 40.81059265 50.78436279 7.38940811
v 40.80265045 50.89205170 7.39735031
v 40.79999924 51.00000000 7.40000153
v 40.80265045 51.10794830 7.39735031
v 40.81059265 51.21563721 7.38940811
v 40.82381058 51.32280731 7.37619019
v 40.84227371 51.42919922 7.35772705
v 40.86593246 51.53455734 7.33406830
v 40.89472961 51.63862610 7.30527115
v 40.92860413 51.74115753 7.27139664
v 40.96746445 51.84190369 7.23253632
v 41.36990738 52.47742844 6.83009338
v 41.44436646 52.55563354 6.75563431
v 41.05977249 52.03707123 7.14022827
v 41.11299896 52.13102722 7.08700180
v 41.01122284 51.94062042 7.18877792
v 41.17076874 52.22225571 7.02923203
v 41.23294449 52.31053925 6.96705627
v 41.29937744 52.39566422 6.90062332
v 41.86897278 52.88700104 6.33102798
v 41.68946075 52.76705551 6.51054001
v 41.77774429 52.82923126 6.42225647
v 41.52257156 52.63009262 6.67742920
v 41.60433578 52.70062256 6.59566498
v 40.84227371 50.57080078 9.30000019
v 40.82381058 50.67719269 9.30000019
v 40.81059265 50.78436279 9.30000019
v 40.80265045 50.89205170 9.30000019
v 40.79999924 51.00000000 9.30000019
v 40.80265045 51.10794830 9.30000019
v 40.13138962 50.57448196 10.00000000
v 40.11396408 50.71575165 10.00000000
v 40.10349274 50.85770416 10.00000000
v 40.09999847 51.00000000 10.00000000
v 40.10349274 51.14229584 10.00000000
v 40.81059265 51.21563721 9.30000019
v 40.82381058 51.32280731 9.30000019
v 40.84227371 51.42919922 9.30000019
v 40.86593246 51.53455734 9.30000019
v 40.89472961 51.63862610 9.30000019
v 40.92860413 51.74115753 9.30000019
v 40.96746445 51.84190369 9.30000019
v 40.11396408 51.28424835 10.00000000
v 40.13138962 51.42551804 10.00000000
v 40.15572357 51.56576157 10.00000000
v 40.18690872 51.70464325 10.00000000
v 40.22487259 51.84182739 10.00000000
v 40.26952362 51.97698212 10.00000000
v 40.32074738 52.10978317 10.00000000
v 40.37842941 52.23991013 10.00000000
v 40.44242859 52.36705017 10.00000000
v 40.51258850 52.49089813 10.00000000
v 40.58873749 52.61115265 10.00000000
v 40.67070007 52.72752762 10.00000000
v 40.75827026 52.83974075 10.00000000
v 40.85124207 52.94752121 10.00000000
v 40.94939041 53.05060959 10.00000000
v 41.01122284 51.94062042 9.30000019
v 41.05977249 52.03707123 9.30000019
v 41.11299896 52.13102722 9.30000019
v 41.17076874 52.22225571 9.30000019
v 41.23294449 52.31053925 9.30000019
v 41.29937744 52.39566422 9.30000019
v 41.36990738 52.47742844 9.30000019
v 41.44436646 52.55563354 9.30000019
v 41.52257156 52.63009262 9.30000019
v 41.60433578 52.70062256 9.30000019
v 41.68946075 52.76705551 9.30000019
v 41.77774429 52.82923126 9.30000019
v 41.86897278 52.88700104 9.30000019
v 41.05247879 53.14875793 10.00000000
v 41.16025925 53.24172974 10.00000000
v 38.20000076 55.99988174 10.00000000
v 41.27247238 53.32929993 10.00000000
v 41.38884735 53.41126251 10.00000000
v 41.50910187 53.48741150 10.00000000
v 41.63294983 53.55757141 10.00000000
v 41.76008987 53.62157059 10.00000000
v 41.89021683 53.67925262 10.00000000
v 42.78436279 53.18940735 5.41563797
v 42.67719269 53.17618942 5.52280807
v 42.36137390 53.10527039 5.83862686
v 41.96292877 52.94022751 6.23707199
v 42.05937958 52.98877716 6.14062119
v 42.15809631 53.03253555 6.04190445
v 42.25884247 53.07139587 5.94115829
v 42.46544266 53.13406754 5.73455811
v 42.57080078 53.15772629 5.62919998
v 42.89205170 53.19734955 5.30794907
v 43.00000000 53.20000076 5.20000076
v 43.10794830 53.19734955 5.09205246
v 41.96292877 52.94022751 9.30000019
v 42.05937958 52.98877716 9.30000019
v 42.15809631 53.03253555 9.30000019
v 42.25884247 53.07139587 9.30000019
v 42.36137390 53.10527039 9.30000019
v 42.46544266 53.13406754 9.30000019
v 42.57080078 53.15772629 9.30000019
v 42.67719269 53.17618942 9.30000019
v 42.78436279 53.18940735 9.30000019
v 42.89205170 53.19734955 9.30000019
v 43.00000000 53.20000076 9.30000019
v 43.10794830 53.19734955 9.30000019
v 43.21563721 53.18940735 9.30000019
v 43.32280731 53.17618942 9.30000019
v 43.42919922 53.15772629 9.30000019
v 43.74115753 53.07139587 9.30000019
v 43.53455734 53.13406754 9.30000019
v 43.63862610 53.10527039 9.30000019
v 45.15772629 50.57080078 9.30000019
v 45.17618942 50.67719269 9.30000019
v 45.18940735 50.78436279 9.30000019
v 45.19734955 50.89205170 9.30000019
v 45.20000076 51.00000000 9.30000019
v 45.19734955 51.10794830 9.30000019
v 45.13406754 51.53455734 9.30000019
v 45.10527039 51.63862610 9.30000019
v 45.07139587 51.74115753 9.30000019
v 45.03253555 51.84190369 9.30000019
v 45.18940735 51.21563721 9.30000019
v 45.17618942 51.32280731 9.30000019
v 45.15772629 51.42919922 9.30000019
v 44.55563354 52.55563354 9.30000019
v 44.63009262 52.47742844 9.30000019
v 44.13102722 52.88700104 9.30000019
v 43.84190369 53.03253555 9.30000019
v 43.94062042 52.98877716 9.30000019
v 44.03707123 52.94022751 9.30000019
v 44.39566422 52.70062256 9.30000019
v 44.31053925 52.76705551 9.30000019
v 44.22225571 52.82923126 9.30000019
v 44.47742844 52.63009262 9.30000019
v 44.88700104 52.13102722 9.30000019
v 44.98877716 51.94062042 9.30000019
v 44.94022751 52.03707123 9.30000019
v 44.76705551 52.31053925 9.30000019
v 44.82923126 52.22225571 9.30000019
v 44.70062256 52.39566422 9.30000019
v 45.55757141 52.36705017 10.00000000
v 45.48741150 52.49089813 10.00000000
v 44.83974075 53.24172974 10.00000000
v 45.05060959 53.05060959 10.00000000
v 44.94752121 53.14875793 10.00000000
v 45.32929993 52.72752762 10.00000000
v 45.24172974 52.83974075 10.00000000
v 45.41126251 52.61115265 10.00000000
v 45.14875793 52.94752121 10.00000000
v 42.02301788 53.73047638 10.00000000
v 42.15817261 53.77512741 10.00000000
v 42.29535675 53.81309128 10.00000000
v 42.43423843 53.84427643 10.00000000
v 42.57448196 53.86861038 10.00000000
v 42.71575165 53.88603592 10.00000000
v 42.85770416 53.89650726 10.00000000
v 43.00000000 53.90000153 10.00000000
v 43.14229584 53.89650726 10.00000000
v 43.28424835 53.88603592 10.00000000
v 43.42551804 53.86861038 10.00000000
v 43.56576157 53.84427643 10.00000000
v 43.70464325 53.81309128 10.00000000
v 43.97698212 53.73047638 10.00000000
v 43.84182739 53.77512741 10.00000000
v 44.10978317 53.67925262 10.00000000
v 44.36705017 53.55757141 10.00000000
v 44.61115265 53.41126251 10.00000000
v 44.49089813 53.48741150 10.00000000
v 44.23991013 53.62157059 10.00000000
v 44.72752762 53.32929993 10.00000000
v 48.20000076 45.00000000 0.00000000
v 51.99181747 45.00000000 0.00000000
v 52.04906082 45.00133896 0.00000000
v 52.11426926 45.00668335 0.00000000
v 52.14670944 45.01095581 0.00000000
v 52.21108246 45.02266693 0.00000000
v 52.27455139 45.03856659 0.00000000
v 52.30586243 45.04806519 0.00000000
v 52.36746597 45.07010651 0.00000000
v 52.42749786 45.09613037 0.00000000
v 52.48569870 45.12602615 0.00000000
v 52.51403427 45.14238739 0.00000000
v 52.56902313 45.17784119 0.00000000
v 52.59561920 45.19689941 0.00000000
v 52.64686966 45.23757553 0.00000000
v 52.67146683 45.25914764 0.00000000
v 52.69535065 45.28151321 0.00000000
v 52.74085236 45.32852936 0.00000000
v 52.78318024 45.37842178 0.00000000
v 52.80310059 45.40438080 0.00000000
v 52.84033585 45.45817947 0.00000000
v 52.87397385 45.51430130 0.00000000
v 52.90386963 45.57250214 0.00000000
v 52.91736984 45.60230255 0.00000000
v 52.94141769 45.66315460 0.00000000
v 52.95193481 45.69413757 0.00000000
v 52.96143341 45.72544861 0.00000000
v 52.97732925 45.78891754 0.00000000
v 52.98904419 45.85328674 0.00000000
v 52.99652100 45.91828918 0.00000000
v 53.00000000 46.00818253 0.00000000
v 51.13163757 50.11471176 0.00000000
v 51.08844376 50.24012375 0.00000000
v 51.10900116 50.17705917 0.00000000
v 51.06999207 50.30383682 0.00000000
v 51.02743912 50.49815369 0.00000000
v 51.05366135 50.36812973 0.00000000
v 51.03947067 50.43292236 0.00000000
v 51.96724701 49.11558533 0.00000000
v 52.02460861 49.08227921 0.00000000
v 52.99973297 48.01635742 0.00000000
v 52.99652100 48.08171082 0.00000000
v 52.99331665 48.11426926 0.00000000
v 52.98904419 48.14670944 0.00000000
v 52.97733307 48.21108246 0.00000000
v 52.94141769 48.33684540 0.00000000
v 52.96143341 48.27455139 0.00000000
v 52.95193481 48.30586243 0.00000000
v 52.91737366 48.39769363 0.00000000
v 52.14249039 49.02146530 0.00000000
v 52.08304596 49.05089569 0.00000000
v 52.20288086 48.99402237 0.00000000
v 52.26414490 48.96859741 0.00000000
v 52.39769745 48.91736984 0.00000000
v 52.45684433 48.88939667 0.00000000
v 52.48569870 48.87397385 0.00000000
v 52.64686966 48.76242447 0.00000000
v 52.74085236 48.67146683 0.00000000
v 52.69535065 48.71848297 0.00000000
v 52.85761261 48.51403427 0.00000000
v 52.82215881 48.56902313 0.00000000
v 52.88939667 48.45684052 0.00000000
v 52.78318405 48.62157822 0.00000000
v 52.54182053 48.84033585 0.00000000
v 52.62157822 48.78318024 0.00000000
v 52.59561920 48.80310059 0.00000000
v 51.55425262 49.44634628 0.00000000
v 51.60087585 49.39916611 0.00000000
v 51.34595871 49.70396423 0.00000000
v 51.30958176 49.75943375 0.00000000
v 51.46582794 49.54521942 0.00000000
v 51.42412186 49.59679794 0.00000000
v 51.50922012 49.49504852 0.00000000
v 51.38415146 49.64973450 0.00000000
v 51.74976349 49.26724625 0.00000000
v 51.80221558 49.22664642 0.00000000
v 51.64903641 49.35355377 0.00000000
v 51.69868469 49.30956650 0.00000000
v 51.85598755 49.18780899 0.00000000
v 51.91101837 49.15077209 0.00000000
v 51.24245071 49.87383652 0.00000000
v 51.21176529 49.93264008 0.00000000
v 51.27506638 49.81607819 0.00000000
v 51.18304825 49.99243546 0.00000000
v 51.15633011 50.05314636 0.00000000
v 45.62157059 49.76008987 10.00000000
v 45.67925262 49.89021683 10.00000000
v 45.73047638 50.02301788 10.00000000
v 45.77512741 50.15817261 10.00000000
v 45.81309128 50.29535675 10.00000000
v 45.84427643 50.43423843 10.00000000
v 51.99181747 45.00000000 10.00000000
v 52.04906082 45.00133896 10.00000000
v 52.11426926 45.00668335 10.00000000
v 52.14670944 45.01095581 10.00000000
v 52.21108246 45.02266693 10.00000000
v 52.27455139 45.03856659 10.00000000
v 52.30586243 45.04806519 10.00000000
v 52.36746597 45.07010651 10.00000000
v 52.42749786 45.09613037 10.00000000
v 52.48569870 45.12602615 10.00000000
v 52.51403427 45.14238739 10.00000000
v 52.56902313 45.17784119 10.00000000
v 52.59561920 45.19689941 10.00000000
v 52.64686966 45.23757553 10.00000000
v 52.67146683 45.25914764 10.00000000
v 52.69535065 45.28151321 10.00000000
v 52.74085236 45.32852936 10.00000000
v 52.78318024 45.37842178 10.00000000
v 52.80310059 45.40438080 10.00000000
v 52.84033585 45.45817947 10.00000000
v 52.87397385 45.51430130 10.00000000
v 52.90386963 45.57250214 10.00000000
v 52.91736984 45.60230255 10.00000000
v 52.94141769 45.66315460 10.00000000
v 52.95193481 45.69413757 10.00000000
v 52.96143341 45.72544861 10.00000000
v 52.97732925 45.78891754 10.00000000
v 52.98904419 45.85328674 10.00000000
v 52.99652100 45.91828918 10.00000000
v 53.00000000 46.00818253 10.00000000
v 51.13163757 50.11471176 10.00000000
v 51.08844376 50.24012375 10.00000000
v 51.10900116 50.17705917 10.00000000
v 51.06999207 50.30383682 10.00000000
v 51.02743912 50.49815369 10.00000000
v 51.05366135 50.36812973 10.00000000
v 51.03947067 50.43292236 10.00000000
v 51.96724701 49.11558533 10.00000000
v 52.02460861 49.08227921 10.00000000
v 52.99973297 48.01635742 10.00000000
v 52.99652100 48.08171082 10.00000000
v 52.99331665 48.11426926 10.00000000
v 52.98904419 48.14670944 10.00000000
v 52.97733307 48.21108246 10.00000000
v 52.94141769 48.33684540 10.00000000
v 52.96143341 48.27455139 10.00000000
v 52.95193481 48.30586243 10.00000000
v 52.91737366 48.39769363 10.00000000
v 52.14249039 49.02146530 10.00000000
v 52.08304596 49.05089569 10.00000000
v 52.20288086 48.99402237 10.00000000
v 52.26414490 48.96859741 10.00000000
v 52.39769745 48.91736984 10.00000000
v 52.45684433 48.88939667 10.00000000
v 52.48569870 48.87397385 10.00000000
v 52.64686966 48.76242447 10.00000000
v 52.74085236 48.67146683 10.00000000
v 52.69535065 48.71848297 10.00000000
v 52.85761261 48.51403427 10.00000000
v 52.82215881 48.56902313 10.00000000
v 52.88939667 48.45684052 10.00000000
v 52.78318405 48.62157822 10.00000000
v 52.54182053 48.84033585 10.00000000
v 52.62157822 48.78318024 10.00000000
v 52.59561920 48.80310059 10.00000000
v 51.55425262 49.44634628 10.00000000
v 51.60087585 49.39916611 10.00000000
v 51.34595871 49.70396423 10.00000000
v 51.30958176 49.75943375 10.00000000
v 51.46582794 49.54521942 10.00000000
v 51.42412186 49.59679794 10.00000000
v 51.50922012 49.49504852 10.00000000
v 51.38415146 49.64973450 10.00000000
v 51.74976349 49.26724625 10.00000000
v 51.80221558 49.22664642 10.00000000
v 51.64903641 49.35355377 10.00000000
v 51.69868469 49.30956650 10.00000000
v 51.85598755 49.18780899 10.00000000
v 51.91101837 49.15077209 10.00000000
v 51.24245071 49.87383652 10.00000000
v 51.21176529 49.93264008 10.00000000
v 51.27506638 49.81607819 10.00000000
v 51.18304825 49.99243546 10.00000000
v 51.15633011 50.05314636 10.00000000
v 48.20000076 55.99999237 0.00000000
v 48.99181747 56.00000000 0.00000000
v 49.08177948 55.99812698 0.00000000
v 49.14711380 55.99438095 0.00000000
v 49.21229172 55.98849869 0.00000000
v 51.01757431 50.56374741 0.00000000
v 51.00989151 50.62963104 0.00000000
v 51.00439835 50.69573593 0.00000000
v 51.00109863 50.76198578 0.00000000
v 51.00000000 50.82830811 0.00000000
v 51.00000000 53.99181747 0.00000000
v 50.99812698 54.08177948 0.00000000
v 50.99438095 54.14711380 0.00000000
v 50.98476028 54.24479675 0.00000000
v 50.91837311 54.56483459 0.00000000
v 50.97568893 54.30960464 0.00000000
v 50.95811462 54.40617371 0.00000000
v 50.94377899 54.47002411 0.00000000
v 49.30960464 55.97568893 0.00000000
v 49.37408066 55.96450043 0.00000000
v 49.43815994 55.95121002 0.00000000
v 49.50176620 55.93582916 0.00000000
v 49.62730026 55.89886475 0.00000000
v 49.56483459 55.91837311 0.00000000
v 49.68909454 55.87732315 0.00000000
v 49.75014877 55.85377121 0.00000000
v 50.15150070 55.63500595 0.00000000
v 50.20438004 55.59645462 0.00000000
v 49.86978531 55.80074310 0.00000000
v 49.98569870 55.73999786 0.00000000
v 49.92823792 55.77132034 0.00000000
v 49.81040192 55.82823563 0.00000000
v 50.04209900 55.70681763 0.00000000
v 50.09738922 55.67180634 0.00000000
v 50.65362549 55.12459564 0.00000000
v 50.53543472 55.28126526 0.00000000
v 50.61594772 55.17809677 0.00000000
v 50.57653427 55.23033905 0.00000000
v 50.89886475 54.62730026 0.00000000
v 50.87732315 54.68909454 0.00000000
v 50.85377121 54.75014877 0.00000000
v 50.78627014 54.89913177 0.00000000
v 50.75589371 54.95709610 0.00000000
v 50.81473160 54.84020615 0.00000000
v 50.72364044 55.01403427 0.00000000
v 50.68953705 55.06988907 0.00000000
v 50.44834900 55.37894440 0.00000000
v 50.35506058 55.47071838 0.00000000
v 50.40245438 55.42559433 0.00000000
v 50.25597000 55.55619431 0.00000000
v 50.30621338 55.51426697 0.00000000
v 50.49269104 55.33081436 0.00000000
v 45.86861038 50.57448196 10.00000000
v 45.88603592 50.71575165 10.00000000
v 45.89650726 50.85770416 10.00000000
v 45.90000153 51.00000000 10.00000000
v 45.89650726 51.14229584 10.00000000
v 45.88603592 51.28424835 10.00000000
v 45.86861038 51.42551804 10.00000000
v 45.81309128 51.70464325 10.00000000
v 45.77512741 51.84182739 10.00000000
v 45.84427643 51.56576157 10.00000000
v 45.73047638 51.97698212 10.00000000
v 45.67925262 52.10978317 10.00000000
v 45.62157059 52.23991013 10.00000000
v 48.99181747 56.00000000 10.00000000
v 49.08177948 55.99812698 10.00000000
v 49.14711380 55.99438095 10.00000000
v 49.21229172 55.98849869 10.00000000
v 51.01757431 50.56374741 10.00000000
v 51.00989151 50.62963104 10.00000000
v 51.00439835 50.69573593 10.00000000
v 51.00109863 50.76198578 10.00000000
v 51.00000000 50.82830811 10.00000000
v 51.00000000 53.99181747 10.00000000
v 50.99812698 54.08177948 10.00000000
v 50.99438095 54.14711380 10.00000000
v 50.98476028 54.24479675 10.00000000
v 50.91837311 54.56483459 10.00000000
v 50.97568893 54.30960464 10.00000000
v 50.95811462 54.40617371 10.00000000
v 50.94377899 54.47002411 10.00000000
v 49.30960464 55.97568893 10.00000000
v 49.37408066 55.96450043 10.00000000
v 49.43815994 55.95121002 10.00000000
v 49.50176620 55.93582916 10.00000000
v 49.62730026 55.89886475 10.00000000
v 49.56483459 55.91837311 10.00000000
v 49.68909454 55.87732315 10.00000000
v 49.75014877 55.85377121 10.00000000
v 50.15150070 55.63500595 10.00000000
v 50.20438004 55.59645462 10.00000000
v 49.86978531 55.80074310 10.00000000
v 49.98569870 55.73999786 10.00000000
v 49.92823792 55.77132034 10.00000000
v 49.81040192 55.82823563 10.00000000
v 50.04209900 55.70681763 10.00000000
v 50.09738922 55.67180634 10.00000000
v 50.65362549 55.12459564 10.00000000
v 50.53543472 55.28126526 10.00000000
v 50.61594772 55.17809677 10.00000000
v 50.57653427 55.23033905 10.00000000
v 50.89886475 54.62730026 10.00000000
v 50.87732315 54.68909454 10.00000000
v 50.85377121 54.75014877 10.00000000
v 50.78627014 54.89913177 10.00000000
v 50.75589371 54.95709610 10.00000000
v 50.81473160 54.84020615 10.00000000
v 50.72364044 55.01403427 10.00000000
v 50.68953705 55.06988907 10.00000000
v 50.44834900 55.37894440 10.00000000
v 50.35506058 55.47071838 10.00000000
v 50.40245438 55.42559433 10.00000000
v 50.25597000 55.55619431 10.00000000
v 50.30621338 55.51426697 10.00000000
v 50.49269104 55.33081436 10.00000000
f 27 4 368
f 368 8 9
f 368 9 10
f 368 7 8
f 368 2 7
f 368 4 2
f 368 25 24
f 368 10 25
f 27 86 87
f 27 88 85
f 27 89 88
f 27 87 89
f 27 93 94
f 27 92 93
f 27 6 5
f 27 5 3
f 27 3 4
f 27 94 1
f 27 1 6
f 27 90 91
f 27 91 84
f 27 83 92
f 27 84 83
f 27 85 90
f 27 46 60
f 27 45 46
f 27 28 86
f 27 54 51
f 27 55 54
f 27 50 53
f 27 52 50
f 27 53 45
f 27 51 52
f 27 48 47
f 27 95 48
f 27 47 55
f 27 96 95
f 27 97 96
f 27 98 97
f 27 99 98
f 27 100 99
f 27 110 100
f 27 111 110
f 27 112 111
f 27 113 112
f 27 114 113
f 27 115 114
f 27 116 115
f 27 30 29
f 27 31 30
f 27 32 31
f 27 198 32
f 27 199 198
f 27 200 199
f 27 201 200
f 27 202 201
f 27 203 202
f 27 204 203
f 27 66 68
f 27 59 61
f 27 61 56
f 27 60 58
f 27 58 59
f 27 56 57
f 27 57 67
f 27 67 66
f 27 68 69
f 27 69 70
f 27 70 230
f 27 230 231
f 27 232 233
f 27 231 232
f 27 233 234
f 27 205 204
f 27 206 205
f 27 207 206
f 27 209 208
f 27 208 207
f 27 234 242
f 27 242 243
f 27 243 244
f 27 244 245
f 27 245 246
f 27 37 35
f 27 36 37
f 27 38 36
f 27 33 38
f 27 40 33
f 27 41 40
f 27 43 39
f 27 39 41
f 27 44 42
f 27 42 43
f 27 35 34
f 27 34 28
f 27 29 44
f 27 126 116
f 27 127 126
f 27 616 127
f 543 288 279
f 543 279 280
f 543 280 287
f 543 196 197
f 543 197 191
f 543 166 165
f 543 194 193
f 543 191 194
f 543 193 192
f 543 192 164
f 543 164 166
f 543 290 289
f 543 163 290
f 543 165 167
f 543 167 168
f 543 168 163
f 543 289 288
f 543 287 286
f 543 286 281
f 272 544 543
f 27 272 209
f 27 246 272
f 272 210 209
f 272 283 282
f 272 281 285
f 272 285 284
f 272 284 283
f 272 246 247
f 272 247 248
f 272 248 249
f 272 249 250
f 272 250 251
f 272 251 252
f 272 252 253
f 272 253 254
f 272 254 255
f 272 255 256
f 272 213 215
f 272 214 213
f 272 218 217
f 272 216 214
f 272 217 216
f 272 222 212
f 272 220 223
f 272 223 222
f 272 212 211
f 272 211 218
f 272 221 220
f 272 219 221
f 272 215 210
f 272 282 219
f 272 256 270
f 272 270 271
f 272 271 273
f 272 273 274
f 272 274 275
f 272 275 276
f 272 276 277
f 272 277 278
f 272 278 347
f 272 347 348
f 272 348 349
f 272 349 350
f 272 350 351
f 272 351 352
f 272 352 353
f 272 353 354
f 272 354 355
f 272 355 356
f 272 356 357
f 272 357 358
f 272 358 359
f 272 543 281
f 272 608 544
f 272 359 361
f 272 361 608
f 368 12 13
f 368 11 12
f 368 13 16
f 368 20 21
f 368 16 14
f 368 14 15
f 368 15 19
f 368 19 20
f 368 21 22
f 368 22 23
f 368 23 17
f 368 17 18
f 368 169 170
f 368 18 169
f 368 170 171
f 368 171 172
f 368 172 173
f 368 173 174
f 368 174 177
f 368 178 179
f 368 177 178
f 368 179 175
f 368 175 176
f 368 176 180
f 368 24 26
f 368 26 11
f 368 370 369
f 368 371 370
f 368 372 371
f 368 373 372
f 368 374 373
f 368 375 374
f 368 376 375
f 368 377 376
f 368 378 377
f 368 379 378
f 368 380 379
f 368 381 380
f 368 382 381
f 368 406 407
f 368 407 418
f 368 419 420
f 368 418 417
f 368 417 419
f 368 423 431
f 368 433 432
f 368 431 433
f 368 420 421
f 368 421 422
f 368 422 423
f 368 383 382
f 368 384 383
f 368 385 384
f 368 386 385
f 368 387 386
f 368 388 387
f 368 389 388
f 368 390 389
f 368 391 390
f 368 392 391
f 368 393 392
f 368 394 393
f 368 395 394
f 368 396 395
f 368 397 396
f 368 398 397
f 368 408 398
f 368 409 408
f 368 414 412
f 368 415 414
f 368 413 415
f 368 416 413
f 368 429 416
f 368 428 427
f 368 427 429
f 368 430 428
f 368 410 409
f 368 411 410
f 368 412 411
f 368 425 430
f 368 426 425
f 368 432 424
f 368 424 426
f 368 369 459
f 369 370 459
f 370 371 460
f 371 372 461
f 372 373 462
f 373 374 463
f 374 375 464
f 375 376 465
f 376 377 466
f 377 378 467
f 378 379 468
f 379 380 469
f 380 381 470
f 381 382 471
f 382 383 472
f 383 384 473
f 384 385 474
f 385 386 475
f 386 387 476
f 387 388 477
f 388 389 478
f 389 390 479
f 390 391 480
f 391 392 481
f 392 393 482
f 393 394 483
f 394 395 484
f 395 396 485
f 396 397 486
f 397 398 487
f 398 408 488
f 368 449 448
f 368 451 449
f 368 452 451
f 368 399 452
f 368 401 399
f 368 404 402
f 368 405 404
f 368 400 401
f 368 402 400
f 368 403 405
f 368 548 403
f 368 549 548
f 368 550 549
f 368 551 550
f 368 552 551
f 368 441 439
f 368 434 435
f 368 440 434
f 368 439 438
f 368 438 440
f 368 435 444
f 368 445 442
f 368 444 445
f 368 442 443
f 368 443 446
f 368 446 447
f 368 436 441
f 368 437 436
f 368 450 437
f 368 448 450
f 368 447 406
f 399 542 452
f 399 401 489
f 400 491 401
f 400 402 490
f 402 404 492
f 404 405 494
f 403 495 405
f 406 497 407
f 407 508 418
f 408 409 498
f 409 410 499
f 410 411 500
f 411 412 501
f 412 414 502
f 414 415 504
f 413 505 415
f 413 416 503
f 416 429 506
f 417 418 507
f 417 509 419
f 419 510 420
f 420 511 421
f 423 521 431
f 421 512 422
f 422 513 423
f 424 432 514
f 425 426 515
f 424 516 426
f 427 519 429
f 428 430 518
f 427 428 517
f 425 520 430
f 431 523 433
f 432 433 522
f 434 440 524
f 434 525 435
f 436 531 441
f 436 437 526
f 437 450 527
f 438 530 440
f 439 441 529
f 438 439 528
f 443 536 446
f 442 533 443
f 442 445 532
f 435 534 444
f 444 535 445
f 446 537 447
f 406 447 496
f 448 540 450
f 448 449 538
f 449 451 539
f 451 452 541
f 27 368 459
f 27 459 460
f 27 497 496
f 27 508 497
f 27 460 461
f 27 461 462
f 27 462 463
f 27 463 464
f 27 464 465
f 27 465 466
f 27 466 467
f 27 467 468
f 27 468 469
f 27 469 470
f 27 470 471
f 27 471 472
f 27 472 473
f 27 473 474
f 27 474 475
f 27 475 476
f 27 476 477
f 27 477 478
f 27 478 479
f 27 479 480
f 27 480 481
f 27 481 482
f 27 482 483
f 27 483 484
f 27 484 485
f 27 485 486
f 27 486 487
f 27 487 488
f 27 488 498
f 27 498 499
f 27 510 509
f 27 507 508
f 27 509 507
f 27 511 510
f 27 521 513
f 27 523 521
f 27 520 515
f 27 515 516
f 27 522 523
f 27 514 522
f 27 516 514
f 27 512 511
f 27 513 512
f 27 499 500
f 27 500 501
f 27 501 502
f 27 502 504
f 27 504 505
f 27 505 503
f 27 503 506
f 27 506 519
f 27 517 518
f 27 518 520
f 27 519 517
f 27 531 526
f 27 526 527
f 27 527 540
f 27 540 538
f 27 539 541
f 27 541 542
f 27 489 491
f 27 542 489
f 27 538 539
f 27 534 525
f 27 532 535
f 27 535 534
f 27 524 530
f 27 528 529
f 27 529 531
f 27 530 528
f 27 525 524
f 27 533 532
f 27 537 536
f 27 536 533
f 27 496 537
f 27 495 493
f 27 493 612
f 27 612 613
f 27 613 614
f 27 491 490
f 27 490 492
f 27 492 494
f 27 494 495
f 27 614 615
f 27 615 616
f 616 128 127
f 616 129 128
f 616 134 129
f 616 135 134
f 616 136 135
f 616 137 136
f 616 138 137
f 616 139 138
f 616 140 139
f 616 141 140
f 616 151 141
f 616 152 151
f 616 153 152
f 616 154 153
f 616 155 154
f 616 453 155
f 616 454 453
f 616 455 454
f 616 456 455
f 616 457 456
f 370 460 459
f 371 461 460
f 372 462 461
f 373 463 462
f 374 464 463
f 375 465 464
f 376 466 465
f 377 467 466
f 378 468 467
f 379 469 468
f 380 470 469
f 381 471 470
f 382 472 471
f 383 473 472
f 384 474 473
f 385 475 474
f 386 476 475
f 387 477 476
f 388 478 477
f 389 479 478
f 390 480 479
f 391 481 480
f 392 482 481
f 393 483 482
f 394 484 483
f 395 485 484
f 396 486 485
f 397 487 486
f 398 488 487
f 408 498 488
f 399 489 542
f 401 491 489
f 400 490 491
f 402 492 490
f 403 493 495
f 404 494 492
f 405 495 494
f 406 496 497
f 407 497 508
f 409 499 498
f 410 500 499
f 411 501 500
f 412 502 501
f 414 504 502
f 415 505 504
f 413 503 505
f 416 506 503
f 429 519 506
f 417 507 509
f 418 508 507
f 419 509 510
f 420 510 511
f 421 511 512
f 423 513 521
f 422 512 513
f 432 522 514
f 425 515 520
f 426 516 515
f 424 514 516
f 427 517 519
f 430 520 518
f 428 518 517
f 431 521 523
f 433 523 522
f 434 524 525
f 436 526 531
f 437 527 526
f 450 540 527
f 438 528 530
f 439 529 528
f 441 531 529
f 440 530 524
f 445 535 532
f 442 532 533
f 443 533 536
f 444 534 535
f 435 525 534
f 446 536 537
f 447 537 496
f 448 538 540
f 451 541 539
f 449 539 538
f 452 542 541
f 368 180 543
f 543 180 181
f 368 543 552
f 543 186 187
f 543 187 185
f 543 189 188
f 543 188 190
f 543 185 189
f 543 182 183
f 543 183 184
f 543 190 182
f 543 181 186
f 543 544 575
f 543 195 196
f 543 184 195
f 544 609 545
f 545 610 546
f 546 611 547
f 547 625 561
f 403 548 493
f 548 549 612
f 549 550 613
f 550 551 614
f 551 552 615
f 552 553 616
f 543 553 552
f 543 554 553
f 543 555 554
f 543 556 555
f 543 558 556
f 543 559 558
f 543 560 559
f 543 582 581
f 543 583 582
f 543 586 583
f 543 584 586
f 543 585 584
f 543 557 560
f 543 581 557
f 543 589 594
f 543 594 578
f 543 591 589
f 543 590 591
f 543 575 576
f 543 576 569
f 543 569 570
f 544 545 575
f 545 546 575
f 546 547 575
f 547 561 575
f 543 592 593
f 543 570 592
f 543 593 590
f 561 562 575
f 562 563 575
f 563 564 575
f 564 566 575
f 565 575 566
f 543 577 588
f 543 588 587
f 543 580 579
f 543 579 577
f 543 587 585
f 543 578 580
f 565 567 575
f 567 568 575
f 568 574 575
f 572 575 573
f 571 575 574
f 571 573 575
f 553 554 617
f 554 555 618
f 555 556 619
f 556 558 620
f 557 581 621
f 558 559 622
f 559 560 623
f 557 624 560
f 561 626 562
f 562 627 563
f 563 628 564
f 565 566 629
f 564 630 566
f 565 631 567
f 567 632 568
f 569 576 633
f 569 634 570
f 571 574 635
f 571 637 573
f 572 573 636
f 568 638 574
f 572 639 575
f 575 640 576
f 577 652 588
f 578 644 580
f 578 594 642
f 579 580 643
f 577 579 641
f 581 582 645
f 582 583 646
f 583 586 647
f 584 585 648
f 584 650 586
f 585 587 649
f 587 588 651
f 589 591 653
f 590 655 591
f 570 656 592
f 590 593 654
f 592 657 593
f 589 658 594
f 642 601 600
f 655 604 601
f 656 602 604
f 640 603 602
f 618 458 457
f 620 595 458
f 616 617 457
f 624 596 595
f 645 597 596
f 647 598 597
f 649 599 598
f 641 600 599
f 617 618 457
f 618 619 458
f 619 620 458
f 620 622 595
f 622 623 595
f 623 624 595
f 544 608 609
f 545 609 610
f 546 610 611
f 547 611 625
f 608 346 344
f 608 344 343
f 608 362 366
f 608 361 360
f 608 360 362
f 608 366 363
f 608 363 365
f 608 365 364
f 608 364 367
f 608 367 340
f 608 340 342
f 608 341 346
f 608 342 341
f 608 338 607
f 608 605 603
f 608 606 605
f 608 607 606
f 608 345 339
f 608 339 338
f 608 343 345
f 608 603 639
f 621 645 596
f 621 596 624
f 645 646 597
f 648 598 650
f 646 647 597
f 647 650 598
f 642 600 644
f 641 643 600
f 643 644 600
f 648 649 598
f 649 651 599
f 651 652 599
f 641 599 652
f 654 657 604
f 656 604 657
f 633 640 602
f 639 603 640
f 633 602 634
f 634 602 656
f 653 601 658
f 653 655 601
f 642 658 601
f 654 604 655
f 493 548 612
f 549 613 612
f 550 614 613
f 551 615 614
f 552 616 615
f 553 617 616
f 554 618 617
f 555 619 618
f 556 620 619
f 581 645 621
f 558 622 620
f 559 623 622
f 560 624 623
f 557 621 624
f 561 625 626
f 562 626 627
f 563 627 628
f 564 628 630
f 566 630 629
f 565 629 631
f 567 631 632
f 570 634 656
f 569 633 634
f 574 638 635
f 571 635 637
f 573 637 636
f 568 632 638
f 572 636 639
f 575 639 640
f 576 640 633
f 577 641 652
f 578 642 644
f 579 643 641
f 580 644 643
f 582 646 645
f 583 647 646
f 584 648 650
f 585 649 648
f 586 650 647
f 587 651 649
f 588 652 651
f 590 654 655
f 591 655 653
f 592 656 657
f 593 657 654
f 594 658 642
f 589 653 658
f 608 639 609
f 609 639 610
f 610 639 611
f 611 639 625
f 625 639 626
f 626 639 627
f 627 639 628
f 628 639 630
f 629 630 639
f 629 639 631
f 631 639 632
f 632 639 638
f 636 637 639
f 635 638 639
f 635 639 637
f 77 35 37
f 79 34 35
f 78 28 34
f 75 45 53
f 79 50 52
f 77 53 50
f 49 51 54
f 101 54 55
f 102 55 47
f 77 50 79
f 78 79 52
f 49 54 101
f 101 55 102
f 78 51 49
f 78 52 51
f 63 29 30
f 64 30 31
f 65 31 32
f 62 29 63
f 63 30 64
f 64 31 65
f 71 41 39
f 73 38 33
f 72 33 40
f 74 40 41
f 75 37 36
f 76 36 38
f 71 39 81
f 74 72 40
f 73 33 72
f 76 38 73
f 71 74 41
f 77 79 35
f 76 75 36
f 75 77 37
f 78 34 79
f 78 49 28
f 81 39 43
f 80 43 42
f 82 42 44
f 62 44 29
f 81 43 80
f 80 42 82
f 62 82 44
f 74 59 58
f 72 58 60
f 71 81 61
f 80 57 56
f 81 56 61
f 71 61 59
f 63 68 66
f 64 69 68
f 65 70 69
f 62 63 66
f 80 82 57
f 81 80 56
f 62 67 82
f 82 67 57
f 62 66 67
f 63 64 68
f 65 224 70
f 64 65 69
f 73 72 60
f 76 45 75
f 75 53 77
f 76 73 46
f 76 46 45
f 73 60 46
f 74 58 72
f 71 59 74
f 122 3 5
f 123 4 3
f 124 2 4
f 109 92 83
f 107 84 91
f 108 83 84
f 102 89 87
f 103 85 88
f 105 88 89
f 101 87 86
f 49 86 28
f 104 90 85
f 106 91 90
f 118 94 93
f 120 6 1
f 119 1 94
f 117 93 92
f 121 5 6
f 131 9 8
f 132 10 9
f 125 7 2
f 130 8 7
f 144 11 26
f 145 12 11
f 147 16 13
f 146 13 12
f 133 25 10
f 142 24 25
f 143 26 24
f 148 14 16
f 149 15 14
f 150 19 15
f 156 20 19
f 157 21 20
f 158 22 21
f 159 23 22
f 160 17 23
f 161 18 17
f 142 143 24
f 143 144 26
f 144 145 11
f 145 146 12
f 146 147 13
f 147 148 16
f 149 150 15
f 148 149 14
f 150 156 19
f 156 157 20
f 157 158 21
f 158 159 22
f 159 160 23
f 160 161 17
f 161 162 18
f 104 106 90
f 106 107 91
f 108 84 107
f 108 109 83
f 49 101 86
f 101 102 87
f 102 105 89
f 105 103 88
f 103 104 85
f 117 118 93
f 109 117 92
f 118 119 94
f 119 120 1
f 120 121 6
f 121 122 5
f 122 123 3
f 123 124 4
f 124 125 2
f 106 96 97
f 107 97 98
f 108 98 99
f 109 99 100
f 117 100 110
f 105 48 103
f 103 95 104
f 104 96 106
f 105 47 48
f 103 48 95
f 104 95 96
f 102 47 105
f 108 107 98
f 106 97 107
f 108 99 109
f 109 100 117
f 118 110 111
f 119 111 112
f 120 112 113
f 121 113 114
f 122 114 115
f 123 115 116
f 124 116 126
f 117 110 118
f 118 111 119
f 119 112 120
f 120 113 121
f 121 114 122
f 122 115 123
f 123 116 124
f 124 126 125
f 125 130 7
f 130 131 8
f 131 132 9
f 132 133 10
f 125 127 130
f 130 128 131
f 125 126 127
f 130 127 128
f 131 128 129
f 131 129 132
f 132 134 133
f 132 129 134
f 133 134 135
f 142 135 136
f 133 135 142
f 142 136 143
f 143 137 144
f 143 136 137
f 144 137 138
f 145 138 139
f 146 139 140
f 133 142 25
f 144 138 145
f 145 139 146
f 146 140 147
f 147 141 148
f 147 140 141
f 148 141 151
f 149 151 152
f 148 151 149
f 149 152 150
f 150 153 156
f 156 154 157
f 150 152 153
f 156 153 154
f 157 154 155
f 157 155 158
f 158 453 159
f 159 454 160
f 158 155 453
f 159 453 454
f 160 454 455
f 160 455 161
f 161 456 162
f 162 457 309
f 161 455 456
f 162 456 457
f 267 223 220
f 268 220 221
f 269 221 219
f 224 32 198
f 225 198 199
f 226 199 200
f 227 200 201
f 228 201 202
f 229 202 203
f 235 203 204
f 65 32 224
f 225 224 198
f 225 199 226
f 226 200 227
f 227 201 228
f 228 202 229
f 229 203 235
f 236 204 205
f 237 205 206
f 238 206 207
f 239 207 208
f 240 208 209
f 241 209 210
f 235 204 236
f 236 205 237
f 237 206 238
f 238 207 239
f 239 208 240
f 240 209 241
f 241 210 257
f 224 230 70
f 225 231 230
f 226 232 231
f 227 233 232
f 228 234 233
f 229 242 234
f 225 230 224
f 225 226 231
f 226 227 232
f 227 228 233
f 228 229 234
f 235 243 242
f 236 244 243
f 237 245 244
f 238 246 245
f 239 247 246
f 229 235 242
f 235 236 243
f 236 237 244
f 237 238 245
f 238 239 246
f 239 240 247
f 260 214 216
f 257 210 215
f 258 215 213
f 259 213 214
f 261 216 217
f 262 217 218
f 264 211 212
f 263 218 211
f 257 215 258
f 258 213 259
f 259 214 260
f 260 216 261
f 261 217 262
f 262 218 263
f 263 211 264
f 265 212 222
f 266 222 223
f 265 222 266
f 266 223 267
f 267 220 268
f 268 221 269
f 264 212 265
f 240 248 247
f 240 241 248
f 241 257 249
f 257 258 250
f 241 249 248
f 257 250 249
f 258 259 251
f 259 260 252
f 258 251 250
f 259 252 251
f 260 253 252
f 261 254 253
f 262 255 254
f 260 261 253
f 261 262 254
f 262 263 255
f 263 264 256
f 264 265 270
f 265 266 271
f 263 256 255
f 264 270 256
f 265 271 270
f 266 273 271
f 266 267 273
f 267 268 274
f 268 269 275
f 269 291 276
f 267 274 273
f 268 275 274
f 269 276 275
f 291 277 276
f 307 167 165
f 308 165 166
f 306 166 164
f 298 287 280
f 299 280 279
f 293 283 284
f 294 284 285
f 295 285 281
f 291 219 282
f 292 282 283
f 296 281 286
f 297 286 287
f 304 163 168
f 302 289 290
f 303 290 163
f 300 279 288
f 301 288 289
f 305 168 167
f 162 169 18
f 309 170 169
f 310 171 170
f 311 172 171
f 312 173 172
f 313 174 173
f 314 177 174
f 315 176 175
f 316 180 176
f 318 186 181
f 317 181 180
f 319 178 177
f 320 179 178
f 321 175 179
f 162 309 169
f 309 310 170
f 310 311 171
f 311 312 172
f 312 313 173
f 313 314 174
f 314 319 177
f 315 316 176
f 316 317 180
f 317 318 181
f 319 320 178
f 321 179 320
f 321 315 175
f 323 183 182
f 322 184 183
f 331 195 184
f 324 194 191
f 330 191 197
f 327 193 194
f 325 164 192
f 326 192 193
f 328 196 195
f 329 197 196
f 333 187 186
f 334 185 187
f 332 189 185
f 335 190 188
f 336 188 189
f 337 182 190
f 337 323 182
f 323 322 183
f 328 195 331
f 329 196 328
f 331 184 322
f 334 332 185
f 332 336 189
f 333 186 318
f 333 334 187
f 335 188 336
f 337 190 335
f 296 286 297
f 297 287 298
f 298 280 299
f 299 279 300
f 269 219 291
f 291 282 292
f 292 283 293
f 293 284 294
f 294 285 295
f 295 281 296
f 301 289 302
f 300 288 301
f 302 290 303
f 303 163 304
f 305 167 307
f 307 165 308
f 308 166 306
f 305 304 168
f 291 292 277
f 292 293 278
f 309 458 310
f 310 595 311
f 311 596 312
f 312 597 313
f 313 598 314
f 314 599 319
f 319 600 320
f 321 320 601
f 321 604 315
f 315 602 316
f 316 603 317
f 317 605 318
f 315 604 602
f 316 602 603
f 317 603 605
f 324 191 330
f 326 193 327
f 325 192 326
f 306 164 325
f 327 194 324
f 329 330 197
f 325 326 366
f 326 327 363
f 329 328 340
f 328 331 342
f 324 330 364
f 329 367 330
f 327 324 365
f 330 367 364
f 329 340 367
f 334 338 332
f 335 336 345
f 332 339 336
f 337 335 343
f 333 318 606
f 333 607 334
f 318 605 606
f 333 606 607
f 334 607 338
f 332 338 339
f 336 339 345
f 335 345 343
f 323 346 322
f 337 344 323
f 331 322 341
f 337 343 344
f 323 344 346
f 322 346 341
f 328 342 340
f 331 341 342
f 293 294 347
f 294 295 348
f 292 278 277
f 293 347 278
f 294 348 347
f 295 349 348
f 295 296 349
f 296 297 350
f 297 298 351
f 298 299 352
f 296 350 349
f 297 351 350
f 298 352 351
f 299 353 352
f 299 300 353
f 300 301 354
f 301 302 355
f 302 303 356
f 300 354 353
f 301 355 354
f 302 356 355
f 303 304 357
f 305 358 304
f 305 307 359
f 307 308 361
f 307 361 359
f 303 357 356
f 304 358 357
f 305 359 358
f 308 306 360
f 306 325 362
f 308 360 361
f 306 362 360
f 326 363 366
f 325 366 362
f 327 365 363
f 324 364 365
f 309 457 458
f 310 458 595
f 311 595 596
f 312 596 597
f 313 597 598
f 314 598 599
f 319 599 600
f 320 600 601
f 321 601 604

