# https://github.com/mikedh/trimesh
v 35.52928162 -7.35506058 0.00000000
v 35.69378662 -7.51426554 0.00000000
v 35.74403000 -7.55619287 0.00000000
v 35.57440567 -7.40245533 0.00000000
v 35.62105560 -7.44834852 0.00000000
v 35.29318237 -7.04210091 0.00000000
v 35.17176437 -6.81040144 0.00000000
v 35.24410629 -6.95709610 0.00000000
v 35.19925690 -6.86978579 0.00000000
v 35.14622879 -6.75014925 0.00000000
v 35.12267685 -6.68909359 0.00000000
v 35.10113525 -6.62730026 0.00000000
v 35.36499405 -7.15150070 0.00000000
v 35.40354538 -7.20438004 0.00000000
v 35.48573303 -7.30621433 0.00000000
v 35.44380569 -7.25597000 0.00000000
v 35.32819366 -7.09738827 0.00000000
v 35.90261078 -7.67180634 0.00000000
v 35.95790100 -7.70681667 0.00000000
v 36.18959808 -7.82823610 0.00000000
v 36.07176208 -7.77131891 0.00000000
v 36.01430130 -7.73999929 0.00000000
v 36.13021469 -7.80074167 0.00000000
v 35.79561996 -7.59645414 0.00000000
v 35.84849930 -7.63500547 0.00000000
v 36.24985123 -7.85377264 0.00000000
v 36.34171295 -7.88834763 0.00000000
v 36.43516541 -7.91837358 0.00000000
v 36.49823380 -7.93582773 0.00000000
v 36.59382629 -7.95811605 0.00000000
v 36.65811157 -7.97035742 0.00000000
v 35.06417084 -6.50176573 0.00000000
v 35.04188538 -6.40617466 0.00000000
v 35.02964401 -6.34188938 0.00000000
v 35.08162689 -6.56483555 0.00000000
v 35.01951218 -6.27723789 0.00000000
v 35.00829315 -6.17972612 0.00000000
v 35.00347900 -6.11446333 0.00000000
v 35.00080490 -6.04907751 0.00000000
v 35.00000000 -2.82830763 0.00000000
v 34.99890137 -2.76198554 0.00000000
v 34.99560165 -2.69573641 0.00000000
v 34.99010849 -2.62963295 0.00000000
v 34.98242569 -2.56374812 0.00000000
v 36.72276306 -7.98048878 0.00000000
v 36.82027435 -7.99170685 0.00000000
v 36.91822052 -7.99812651 0.00000000
v 37.00818253 -8.00000000 0.00000000
v 35.52928162 -7.35506058 10.00000000
v 35.69378662 -7.51426554 10.00000000
v 35.74403000 -7.55619287 10.00000000
v 35.57440567 -7.40245533 10.00000000
v 35.62105560 -7.44834852 10.00000000
v 35.29318237 -7.04210091 10.00000000
v 35.17176437 -6.81040144 10.00000000
v 35.24410629 -6.95709610 10.00000000
v 35.19925690 -6.86978579 10.00000000
v 35.14622879 -6.75014925 10.00000000
v 35.12267685 -6.68909359 10.00000000
v 35.10113525 -6.62730026 10.00000000
v 35.36499405 -7.15150070 10.00000000
v 35.40354538 -7.20438004 10.00000000
v 35.48573303 -7.30621433 10.00000000
v 35.44380569 -7.25597000 10.00000000
v 35.32819366 -7.09738827 10.00000000
v 35.90261078 -7.67180634 10.00000000
v 35.95790100 -7.70681667 10.00000000
v 36.18959808 -7.82823610 10.00000000
v 36.07176208 -7.77131891 10.00000000
v 36.01430130 -7.73999929 10.00000000
v 36.13021469 -7.80074167 10.00000000
v 35.79561996 -7.59645414 10.00000000
v 35.84849930 -7.63500547 10.00000000
v 36.24985123 -7.85377264 10.00000000
v 36.34171295 -7.88834763 10.00000000
v 36.43516541 -7.91837358 10.00000000
v 36.49823380 -7.93582773 10.00000000
v 36.59382629 -7.95811605 10.00000000
v 36.65811157 -7.97035742 10.00000000
v 35.06417084 -6.50176573 10.00000000
v 35.04188538 -6.40617466 10.00000000
v 35.02964401 -6.34188938 10.00000000
v 35.08162689 -6.56483555 10.00000000
v 35.01951218 -6.27723789 10.00000000
v 35.00829315 -6.17972612 10.00000000
v 35.00347900 -6.11446333 10.00000000
v 35.00080490 -6.04907751 10.00000000
v 35.00000000 -2.82830763 10.00000000
v 34.99890137 -2.76198554 10.00000000
v 34.99560165 -2.69573641 10.00000000
v 34.99010849 -2.62963295 10.00000000
v 34.98242569 -2.56374812 10.00000000
v 36.72276306 -7.98048878 10.00000000
v 36.82027435 -7.99170685 10.00000000
v 36.91822052 -7.99812651 10.00000000
v 37.00818253 -8.00000000 10.00000000
v 37.79999924 -8.00000000 10.00000000
v 34.84366989 -2.05314612 0.00000000
v 34.81695175 -1.99243426 0.00000000
v 34.72493362 -1.81607735 0.00000000
v 34.78823471 -1.93264186 0.00000000
v 34.75754929 -1.87383473 0.00000000
v 34.08898163 -1.15077388 0.00000000
v 34.14401245 -1.18780828 0.00000000
v 34.30131531 -1.30956554 0.00000000
v 34.35096359 -1.35355377 0.00000000
v 34.19778442 -1.22664714 0.00000000
v 34.25023651 -1.26724780 0.00000000
v 34.61584854 -1.64973390 0.00000000
v 34.49077988 -1.49504936 0.00000000
v 34.57587814 -1.59679890 0.00000000
v 34.53417206 -1.54521847 0.00000000
v 34.69041824 -1.75943351 0.00000000
v 34.65404129 -1.70396531 0.00000000
v 34.39912415 -1.39916432 0.00000000
v 34.44574738 -1.44634676 0.00000000
v 33.40438080 -0.80309933 0.00000000
v 33.37842178 -0.78318119 0.00000000
v 33.45817947 -0.84033531 0.00000000
v 33.21681595 -0.62157649 0.00000000
v 33.17784119 -0.56902307 0.00000000
v 33.14238739 -0.51403296 0.00000000
v 33.12602615 -0.48569742 0.00000000
v 33.28151321 -0.69534874 0.00000000
v 33.32852936 -0.74085122 0.00000000
v 33.25914764 -0.67146826 0.00000000
v 33.51430130 -0.87397277 0.00000000
v 33.57250214 -0.90386784 0.00000000
v 33.60230255 -0.91737121 0.00000000
v 33.73585510 -0.96859843 0.00000000
v 33.79711914 -0.99402297 0.00000000
v 33.91695404 -1.05089474 0.00000000
v 33.85750961 -1.02146506 0.00000000
v 33.08262634 -0.39769423 0.00000000
v 33.09613037 -0.42749688 0.00000000
v 33.03856659 -0.27455080 0.00000000
v 33.05858231 -0.33684373 0.00000000
v 33.02266693 -0.21108222 0.00000000
v 33.01628494 -0.17899182 0.00000000
v 33.00668335 -0.11427058 0.00000000
v 33.00133896 -0.04906001 0.00000000
v 33.00013351 -0.00818018 0.00000000
v 33.97539139 -1.08227944 0.00000000
v 34.03275299 -1.11558473 0.00000000
v 34.96052933 -2.43292356 0.00000000
v 34.94633865 -2.36812782 0.00000000
v 34.97256088 -2.49815440 0.00000000
v 34.93000793 -2.30383825 0.00000000
v 34.89099884 -2.17705989 0.00000000
v 34.91155624 -2.24012566 0.00000000
v 34.86836243 -2.11471057 0.00000000
v 33.00000000 1.99181867 0.00000000
v 33.00133896 2.04906225 0.00000000
v 33.00668716 2.11427283 0.00000000
v 33.01628494 2.17899394 0.00000000
v 33.02267075 2.21108437 0.00000000
v 33.03856659 2.27455282 0.00000000
v 33.05858231 2.33684587 0.00000000
v 33.08263016 2.39769626 0.00000000
v 33.11060333 2.45684361 0.00000000
v 33.14238739 2.51403475 0.00000000
v 33.17784119 2.56902480 0.00000000
v 33.21681976 2.62157822 0.00000000
v 33.25914764 2.67146993 0.00000000
v 33.30464935 2.71848607 0.00000000
v 33.35313034 2.76242590 0.00000000
v 33.40438080 2.80310059 0.00000000
v 33.45818329 2.84033656 0.00000000
v 33.51430130 2.87397385 0.00000000
v 33.57250214 2.90386868 0.00000000
v 33.60230637 2.91737223 0.00000000
v 33.66315460 2.94141841 0.00000000
v 33.72544861 2.96143341 0.00000000
v 33.78891754 2.97733140 0.00000000
v 33.85329056 2.98904419 0.00000000
v 33.91828918 2.99652195 0.00000000
v 34.00818253 3.00000000 0.00000000
v 34.84366989 -2.05314612 10.00000000
v 34.81695175 -1.99243426 10.00000000
v 34.72493362 -1.81607735 10.00000000
v 34.78823471 -1.93264186 10.00000000
v 34.75754929 -1.87383473 10.00000000
v 34.08898163 -1.15077388 10.00000000
v 34.14401245 -1.18780828 10.00000000
v 34.30131531 -1.30956554 10.00000000
v 34.35096359 -1.35355377 10.00000000
v 34.19778442 -1.22664714 10.00000000
v 34.25023651 -1.26724780 10.00000000
v 34.61584854 -1.64973390 10.00000000
v 34.49077988 -1.49504936 10.00000000
v 34.57587814 -1.59679890 10.00000000
v 34.53417206 -1.54521847 10.00000000
v 34.69041824 -1.75943351 10.00000000
v 34.65404129 -1.70396531 10.00000000
v 34.39912415 -1.39916432 10.00000000
v 34.44574738 -1.44634676 10.00000000
v 33.40438080 -0.80309933 10.00000000
v 33.37842178 -0.78318119 10.00000000
v 33.45817947 -0.84033531 10.00000000
v 33.21681595 -0.62157649 10.00000000
v 33.17784119 -0.56902307 10.00000000
v 33.14238739 -0.51403296 10.00000000
v 33.12602615 -0.48569742 10.00000000
v 33.28151321 -0.69534874 10.00000000
v 33.32852936 -0.74085122 10.00000000
v 33.25914764 -0.67146826 10.00000000
v 33.51430130 -0.87397277 10.00000000
v 33.57250214 -0.90386784 10.00000000
v 33.60230255 -0.91737121 10.00000000
v 33.73585510 -0.96859843 10.00000000
v 33.79711914 -0.99402297 10.00000000
v 33.91695404 -1.05089474 10.00000000
v 33.85750961 -1.02146506 10.00000000
v 33.08262634 -0.39769423 10.00000000
v 33.09613037 -0.42749688 10.00000000
v 33.03856659 -0.27455080 10.00000000
v 33.05858231 -0.33684373 10.00000000
v 33.02266693 -0.21108222 10.00000000
v 33.01628494 -0.17899182 10.00000000
v 33.00668335 -0.11427058 10.00000000
v 33.00133896 -0.04906001 10.00000000
v 33.00013351 -0.00818018 10.00000000
v 33.97539139 -1.08227944 10.00000000
v 34.03275299 -1.11558473 10.00000000
v 34.96052933 -2.43292356 10.00000000
v 34.94633865 -2.36812782 10.00000000
v 34.97256088 -2.49815440 10.00000000
v 34.93000793 -2.30383825 10.00000000
v 34.89099884 -2.17705989 10.00000000
v 34.91155624 -2.24012566 10.00000000
v 34.86836243 -2.11471057 10.00000000
v 33.00000000 1.99181867 10.00000000
v 33.00133896 2.04906225 10.00000000
v 33.00668716 2.11427283 10.00000000
v 33.01628494 2.17899394 10.00000000
v 33.02267075 2.21108437 10.00000000
v 33.03856659 2.27455282 10.00000000
v 33.05858231 2.33684587 10.00000000
v 33.08263016 2.39769626 10.00000000
v 33.11060333 2.45684361 10.00000000
v 33.14238739 2.51403475 10.00000000
v 33.17784119 2.56902480 10.00000000
v 33.21681976 2.62157822 10.00000000
v 33.25914764 2.67146993 10.00000000
v 33.30464935 2.71848607 10.00000000
v 33.35313034 2.76242590 10.00000000
v 33.40438080 2.80310059 10.00000000
v 33.45818329 2.84033656 10.00000000
v 33.51430130 2.87397385 10.00000000
v 33.57250214 2.90386868 10.00000000
v 33.60230637 2.91737223 10.00000000
v 33.66315460 2.94141841 10.00000000
v 33.72544861 2.96143341 10.00000000
v 33.78891754 2.97733140 10.00000000
v 33.85329056 2.98904419 10.00000000
v 33.91828918 2.99652195 10.00000000
v 34.00818253 3.00000000 10.00000000
v 37.79999924 3.00000000 10.00000000
v 41.29937744 -4.39566517 0.00000000
v 41.17076874 -4.22225475 0.00000000
v 41.23294449 -4.31053829 0.00000000
v 41.05977249 -4.03707266 0.00000000
v 41.01122284 -3.94062114 0.00000000
v 41.11299896 -4.13102627 0.00000000
v 41.52257156 -4.63009262 0.00000000
v 41.77774429 -4.82923317 0.00000000
v 41.68946075 -4.76705647 0.00000000
v 41.60433578 -4.70062304 0.00000000
v 41.96292877 -4.94022655 0.00000000
v 42.05937958 -4.98877621 0.00000000
v 42.15809631 -5.03253508 0.00000000
v 41.86897278 -4.88700294 0.00000000
v 41.36990738 -4.47742987 0.00000000
v 41.44436646 -4.55563498 0.00000000
v 40.84227371 -3.42919874 0.00000000
v 40.82381058 -3.32280707 0.00000000
v 40.81059265 -3.21563768 0.00000000
v 40.96746445 -3.84190369 0.00000000
v 40.92860413 -3.74115753 0.00000000
v 40.89472961 -3.63862634 0.00000000
v 40.86593246 -3.53455639 0.00000000
v 40.80265045 -3.10794878 0.00000000
v 40.79999924 -3.00000000 0.00000000
v 40.80265045 -2.89205122 0.00000000
v 40.81059265 -2.78436232 0.00000000
v 40.82381058 -2.67719293 0.00000000
v 40.84227371 -2.57080126 0.00000000
v 42.36137390 -5.10526848 0.00000000
v 42.46544266 -5.13406849 0.00000000
v 42.25884247 -5.07139683 0.00000000
v 42.57080078 -5.15772772 0.00000000
v 42.67719269 -5.17618847 0.00000000
v 42.78436279 -5.18940639 0.00000000
v 42.89205170 -5.19735003 0.00000000
v 43.00000000 -5.19999981 0.00000000
v 43.10794830 -5.19735003 0.00000000
v 43.21563721 -5.18940639 0.00000000
v 43.32280731 -5.17618847 0.00000000
v 43.42919922 -5.15772772 0.00000000
v 43.53455734 -5.13406849 0.00000000
v 43.63862610 -5.10526848 0.00000000
v 43.74115753 -5.07139683 0.00000000
v 43.84190369 -5.03253508 0.00000000
v 43.94062042 -4.98877621 0.00000000
v 44.03707123 -4.94022655 0.00000000
v 42.89205170 -5.19735003 4.90794754
v 43.00000000 -5.19999981 4.79999924
v 43.10794830 -5.19735003 4.69205093
v 43.42919922 -5.15772772 4.37080002
v 43.53455734 -5.13406849 4.26544189
v 43.74115753 -5.07139683 4.05884171
v 43.84190369 -5.03253508 3.95809555
v 43.94062042 -4.98877621 3.85937881
v 44.03707123 -4.94022655 3.76292801
v 43.63862610 -5.10526848 4.16137314
v 43.32280731 -5.17618847 4.47719193
v 43.21563721 -5.18940639 4.58436203
v 47.79999924 -8.00000000 0.00000000
v 44.13102722 -4.88700294 0.00000000
v 44.22225571 -4.82923317 0.00000000
v 44.31053925 -4.76705647 0.00000000
v 44.39566422 -4.70062304 0.00000000
v 44.47742844 -4.63009262 0.00000000
v 44.55563354 -4.55563498 0.00000000
v 44.63009262 -4.47742987 0.00000000
v 44.70062256 -4.39566517 0.00000000
v 44.76705551 -4.31053829 0.00000000
v 44.82923126 -4.22225475 0.00000000
v 44.88700104 -4.13102627 0.00000000
v 44.94022751 -4.03707266 0.00000000
v 44.98877716 -3.94062114 0.00000000
v 45.03253555 -3.84190369 0.00000000
v 45.07139587 -3.74115753 0.00000000
v 45.10527039 -3.63862634 0.00000000
v 45.13406754 -3.53455639 0.00000000
v 45.15772629 -3.42919874 0.00000000
v 45.17618942 -3.32280707 0.00000000
v 45.18940735 -3.21563768 0.00000000
v 45.19734955 -3.10794878 0.00000000
v 45.20000076 -3.00000000 0.00000000
v 45.19734955 -2.89205122 0.00000000
v 45.18940735 -2.78436232 0.00000000
v 45.17618942 -2.67719293 0.00000000
v 45.15772629 -2.57080126 0.00000000
v 44.39566422 -4.70062304 3.40433502
v 44.47742844 -4.63009262 3.32257080
v 44.22225571 -4.82923317 3.57774353
v 44.31053925 -4.76705647 3.48945999
v 44.13102722 -4.88700294 3.66897202
v 44.70062256 -4.39566517 3.09937668
v 44.76705551 -4.31053829 3.03294373
v 44.82923126 -4.22225475 2.97076797
v 44.98877716 -3.94062114 2.81122208
v 44.88700104 -4.13102627 2.91299820
v 44.94022751 -4.03707266 2.85977173
v 44.55563354 -4.55563498 3.24436569
v 44.63009262 -4.47742987 3.16990662
v 45.03253555 -3.84190369 2.76746368
v 45.07139587 -3.74115753 2.72860336
v 45.10527039 -3.63862634 2.69472885
v 45.13406754 -3.53455639 2.66593170
v 45.15772629 -3.42919874 2.64227295
v 45.17618942 -3.32280707 2.62380981
v 45.18940735 -3.21563768 2.61059189
v 45.19734955 -3.10794878 2.60264969
v 45.20000076 -3.00000000 2.59999847
v 45.19734955 -2.89205122 2.60264969
v 45.18940735 -2.78436232 2.61059189
v 45.17618942 -2.67719293 2.62380981
v 45.15772629 -2.57080126 2.64227295
v 41.77774429 -4.82923317 6.02225494
v 41.68946075 -4.76705647 6.11053848
v 41.60433578 -4.70062304 6.19566345
v 41.96292877 -4.94022655 5.83707047
v 42.05937958 -4.98877621 5.74061966
v 42.15809631 -5.03253508 5.64190292
v 41.86897278 -4.88700294 5.93102646
v 41.29937744 -4.39566517 6.50062180
v 41.17076874 -4.22225475 6.62923050
v 41.23294449 -4.31053829 6.56705475
v 41.05977249 -4.03707266 6.74022675
v 41.01122284 -3.94062114 6.78877640
v 41.11299896 -4.13102627 6.68700027
v 41.52257156 -4.63009262 6.27742767
v 41.44436646 -4.55563498 6.35563278
v 41.36990738 -4.47742987 6.43009186
v 40.96746445 -3.84190369 6.83253479
v 40.92860413 -3.74115753 6.87139511
v 40.84227371 -3.42919874 6.95772552
v 40.82381058 -3.32280707 6.97618866
v 40.81059265 -3.21563768 6.98940659
v 40.89472961 -3.63862634 6.90526962
v 40.86593246 -3.53455639 6.93406677
v 40.80265045 -3.10794878 6.99734879
v 40.79999924 -3.00000000 7.00000000
v 40.80265045 -2.89205122 6.99734879
v 40.81059265 -2.78436232 6.98940659
v 40.82381058 -2.67719293 6.97618866
v 40.84227371 -2.57080126 6.95772552
v 42.67719269 -5.17618847 5.12280655
v 42.57080078 -5.15772772 5.22919846
v 42.36137390 -5.10526848 5.43862534
v 42.46544266 -5.13406849 5.33455658
v 42.25884247 -5.07139683 5.54115677
v 42.78436279 -5.18940639 5.01563644
v 40.86593246 -2.46544361 0.00000000
v 40.89472961 -2.36137366 0.00000000
v 40.92860413 -2.25884247 0.00000000
v 40.96746445 -2.15809631 0.00000000
v 41.01122284 -2.05937886 0.00000000
v 41.05977249 -1.96292722 0.00000000
v 41.11299896 -1.86897397 0.00000000
v 41.17076874 -1.77774549 0.00000000
v 41.23294449 -1.68946159 0.00000000
v 41.29937744 -1.60433483 0.00000000
v 41.36990738 -1.52257025 0.00000000
v 41.44436646 -1.44436502 0.00000000
v 41.52257156 -1.36990750 0.00000000
v 41.60433578 -1.29937696 0.00000000
v 41.68946075 -1.23294342 0.00000000
v 41.77774429 -1.17076683 0.00000000
v 41.86897278 -1.11299706 0.00000000
v 41.96292877 -1.05977321 0.00000000
v 42.05937958 -1.01122355 0.00000000
v 42.15809631 -0.96746492 0.00000000
v 42.25884247 -0.92860317 0.00000000
v 42.36137390 -0.89473128 0.00000000
v 42.46544266 -0.86593127 0.00000000
v 42.57080078 -0.84227228 0.00000000
v 42.67719269 -0.82381177 0.00000000
v 42.78436279 -0.81059361 0.00000000
v 42.89205170 -0.80264997 0.00000000
v 43.00000000 -0.79999995 0.00000000
v 43.10794830 -0.80264997 0.00000000
v 43.21563721 -0.81059361 0.00000000
v 43.32280731 -0.82381177 0.00000000
v 43.42919922 -0.84227228 0.00000000
v 43.53455734 -0.86593127 0.00000000
v 43.84190369 -0.96746492 0.00000000
v 43.63862610 -0.89473128 0.00000000
v 43.74115753 -0.92860317 0.00000000
v 43.94062042 -1.01122355 0.00000000
v 44.03707123 -1.05977321 0.00000000
v 42.89205170 -0.80264997 4.90794754
v 43.00000000 -0.79999995 4.79999924
v 43.10794830 -0.80264997 4.69205093
v 43.42919922 -0.84227228 4.37080002
v 43.53455734 -0.86593127 4.26544189
v 43.84190369 -0.96746492 3.95809555
v 43.74115753 -0.92860317 4.05884171
v 43.94062042 -1.01122355 3.85937881
v 44.03707123 -1.05977321 3.76292801
v 43.63862610 -0.89473128 4.16137314
v 43.32280731 -0.82381177 4.47719193
v 43.21563721 -0.81059361 4.58436203
v 44.98877716 -2.05937886 0.00000000
v 44.88700104 -1.86897397 0.00000000
v 44.94022751 -1.96292722 0.00000000
v 44.31053925 -1.23294342 0.00000000
v 44.22225571 -1.17076683 0.00000000
v 44.39566422 -1.29937696 0.00000000
v 44.55563354 -1.44436502 0.00000000
v 44.47742844 -1.36990750 0.00000000
v 44.76705551 -1.68946159 0.00000000
v 44.63009262 -1.52257025 0.00000000
v 44.70062256 -1.60433483 0.00000000
v 44.82923126 -1.77774549 0.00000000
v 45.13406754 -2.46544361 0.00000000
v 45.10527039 -2.36137366 0.00000000
v 45.07139587 -2.25884247 0.00000000
v 45.03253555 -2.15809631 0.00000000
v 44.13102722 -1.11299706 0.00000000
v 44.98877716 -2.05937886 2.81122208
v 44.88700104 -1.86897397 2.91299820
v 44.94022751 -1.96292722 2.85977173
v 44.76705551 -1.68946159 3.03294373
v 44.70062256 -1.60433483 3.09937668
v 44.82923126 -1.77774549 2.97076797
v 44.55563354 -1.44436502 3.24436569
v 44.39566422 -1.29937696 3.40433502
v 44.47742844 -1.36990750 3.32257080
v 44.31053925 -1.23294342 3.48945999
v 44.22225571 -1.17076683 3.57774353
v 44.63009262 -1.52257025 3.16990662
v 45.13406754 -2.46544361 2.66593170
v 45.10527039 -2.36137366 2.69472885
v 45.07139587 -2.25884247 2.72860336
v 45.03253555 -2.15809631 2.76746368
v 44.13102722 -1.11299706 3.66897202
v 47.79999924 3.00000000 0.00000000
v 41.60433578 -1.29937696 6.19566345
v 41.77774429 -1.17076683 6.02225494
v 41.68946075 -1.23294342 6.11053848
v 40.92860413 -2.25884247 6.87139511
v 40.96746445 -2.15809631 6.83253479
v 41.01122284 -2.05937886 6.78877640
v 41.05977249 -1.96292722 6.74022675
v 41.11299896 -1.86897397 6.68700027
v 40.86593246 -2.46544361 6.93406677
v 40.89472961 -2.36137366 6.90526962
v 41.29937744 -1.60433483 6.50062180
v 41.17076874 -1.77774549 6.62923050
v 41.23294449 -1.68946159 6.56705475
v 41.36990738 -1.52257025 6.43009186
v 41.44436646 -1.44436502 6.35563278
v 41.52257156 -1.36990750 6.27742767
v 41.86897278 -1.11299706 5.93102646
v 41.96292877 -1.05977321 5.83707047
v 42.05937958 -1.01122355 5.74061966
v 42.15809631 -0.96746492 5.64190292
v 42.67719269 -0.82381177 5.12280655
v 42.57080078 -0.84227228 5.22919846
v 42.36137390 -0.89473128 5.43862534
v 42.46544266 -0.86593127 5.33455658
v 42.25884247 -0.92860317 5.54115677
v 42.78436279 -0.81059361 5.01563644
f 2 40 3
f 3 40 24
f 21 22 40
f 20 23 40
f 21 40 23
f 18 25 40
f 18 40 19
f 19 40 22
f 24 40 25
f 15 16 40
f 6 8 40
f 13 17 40
f 14 40 16
f 13 40 14
f 6 40 17
f 11 12 40
f 12 35 40
f 32 40 35
f 8 9 40
f 7 40 9
f 7 10 40
f 10 11 40
f 1 40 4
f 4 40 5
f 1 15 40
f 2 5 40
f 20 40 26
f 26 40 27
f 27 40 28
f 28 40 29
f 29 40 30
f 30 40 31
f 31 40 45
f 40 46 45
f 40 47 46
f 40 48 47
f 1 63 15
f 2 3 50
f 3 24 51
f 4 5 52
f 2 53 5
f 1 4 49
f 6 17 54
f 6 56 8
f 7 9 55
f 8 57 9
f 7 58 10
f 10 59 11
f 11 60 12
f 14 16 62
f 13 14 61
f 15 64 16
f 13 65 17
f 18 19 66
f 19 22 67
f 20 26 68
f 21 70 22
f 21 23 69
f 20 71 23
f 24 25 72
f 18 73 25
f 26 27 74
f 28 29 76
f 27 28 75
f 29 30 77
f 30 31 78
f 31 45 79
f 32 35 80
f 32 81 33
f 34 84 36
f 33 82 34
f 12 83 35
f 36 85 37
f 37 86 38
f 38 87 39
f 32 33 40
f 33 34 40
f 34 36 40
f 36 37 40
f 37 38 40
f 38 39 40
f 39 88 40
f 40 89 41
f 41 90 42
f 42 91 43
f 43 92 44
f 44 227 147
f 40 318 48
f 45 46 93
f 46 47 94
f 47 48 95
f 40 259 273
f 40 265 268
f 40 268 267
f 40 274 265
f 40 273 274
f 40 269 270
f 40 271 290
f 40 270 271
f 40 290 288
f 40 267 266
f 40 266 272
f 40 272 269
f 40 278 263
f 40 279 278
f 40 280 279
f 40 276 275
f 40 281 280
f 40 275 281
f 40 264 260
f 40 261 259
f 40 260 261
f 40 262 264
f 40 263 262
f 40 277 276
f 40 282 277
f 40 283 282
f 40 284 283
f 40 285 284
f 40 286 285
f 40 287 286
f 40 406 287
f 40 407 406
f 1 49 63
f 2 50 53
f 3 51 50
f 5 53 52
f 4 52 49
f 6 54 56
f 9 57 55
f 8 56 57
f 10 58 59
f 7 55 58
f 11 59 60
f 14 62 61
f 15 63 64
f 16 64 62
f 13 61 65
f 17 65 54
f 18 66 73
f 19 67 66
f 22 70 67
f 26 74 68
f 21 69 70
f 23 71 69
f 20 68 71
f 25 73 72
f 24 72 51
f 27 75 74
f 28 76 75
f 29 77 76
f 30 78 77
f 31 79 78
f 35 83 80
f 32 80 81
f 33 81 82
f 34 82 84
f 12 60 83
f 36 84 85
f 37 85 86
f 38 86 87
f 50 51 88
f 51 72 88
f 69 88 70
f 68 88 71
f 69 71 88
f 66 88 73
f 66 67 88
f 67 70 88
f 72 73 88
f 63 88 64
f 54 88 56
f 61 88 65
f 62 64 88
f 61 62 88
f 54 65 88
f 59 88 60
f 60 88 83
f 80 83 88
f 56 88 57
f 55 57 88
f 55 88 58
f 58 88 59
f 49 52 88
f 52 53 88
f 49 88 63
f 50 88 53
f 68 74 88
f 74 75 88
f 75 76 88
f 76 77 88
f 77 78 88
f 78 79 88
f 79 93 88
f 88 93 94
f 88 94 95
f 88 95 96
f 39 87 88
f 40 88 89
f 41 89 90
f 42 90 91
f 43 91 92
f 44 92 227
f 80 88 81
f 81 88 82
f 82 88 84
f 84 88 85
f 85 88 86
f 86 88 87
f 88 96 258
f 45 93 79
f 46 94 93
f 47 95 94
f 48 96 95
f 48 97 96
f 97 373 384
f 97 372 373
f 97 382 387
f 97 386 378
f 97 384 385
f 97 385 386
f 97 379 383
f 97 378 380
f 97 380 379
f 97 383 381
f 97 381 382
f 96 97 258
f 97 387 388
f 97 388 392
f 97 392 258
f 98 179 99
f 99 181 101
f 101 182 102
f 100 102 180
f 103 224 144
f 103 104 183
f 105 106 185
f 106 115 186
f 105 188 108
f 107 108 187
f 104 107 184
f 111 192 112
f 109 191 111
f 110 112 190
f 100 193 113
f 113 194 114
f 109 114 189
f 115 116 195
f 110 196 116
f 117 198 118
f 117 119 197
f 120 126 200
f 123 215 135
f 121 202 122
f 120 201 121
f 122 203 123
f 118 205 125
f 124 125 204
f 124 206 126
f 127 128 207
f 119 127 199
f 128 129 208
f 129 130 209
f 130 131 210
f 131 133 211
f 132 213 133
f 134 135 214
f 134 217 137
f 136 137 216
f 136 218 138
f 138 219 139
f 139 220 140
f 140 221 141
f 141 222 142
f 132 143 212
f 143 144 223
f 145 147 225
f 145 226 146
f 146 228 148
f 148 230 150
f 149 150 229
f 149 231 151
f 98 151 178
f 142 232 152
f 152 233 153
f 153 234 154
f 154 235 155
f 155 236 156
f 156 237 157
f 157 238 158
f 158 239 159
f 159 240 160
f 160 241 161
f 161 242 162
f 162 243 163
f 163 244 164
f 164 245 165
f 165 246 166
f 166 247 167
f 167 248 168
f 168 249 169
f 169 250 170
f 170 251 171
f 171 252 172
f 172 253 173
f 173 254 174
f 174 255 175
f 175 256 176
f 176 257 177
f 40 408 407
f 40 409 408
f 40 410 409
f 40 411 410
f 40 412 411
f 40 413 412
f 40 414 413
f 40 415 414
f 40 416 415
f 40 417 416
f 40 418 417
f 40 419 418
f 40 420 419
f 40 421 420
f 40 41 490
f 41 42 490
f 145 146 490
f 146 148 490
f 148 150 490
f 149 490 150
f 42 43 490
f 43 44 490
f 44 147 490
f 145 490 147
f 103 144 490
f 104 490 107
f 103 490 104
f 107 490 108
f 115 490 116
f 110 490 112
f 109 111 490
f 111 112 490
f 110 116 490
f 105 490 106
f 105 108 490
f 106 490 115
f 101 102 490
f 98 490 151
f 149 151 490
f 98 99 490
f 99 101 490
f 100 490 102
f 100 113 490
f 113 114 490
f 109 490 114
f 122 123 490
f 120 121 490
f 121 122 490
f 123 135 490
f 134 490 135
f 134 137 490
f 136 490 137
f 136 138 490
f 138 139 490
f 139 140 490
f 127 490 128
f 118 125 490
f 117 118 490
f 124 126 490
f 124 490 125
f 120 490 126
f 117 490 119
f 119 490 127
f 128 490 129
f 129 490 130
f 131 490 133
f 132 133 490
f 130 490 131
f 140 141 490
f 141 142 490
f 142 152 490
f 152 153 490
f 153 154 490
f 154 155 490
f 155 156 490
f 156 157 490
f 157 158 490
f 158 159 490
f 159 160 490
f 160 161 490
f 161 162 490
f 162 163 490
f 163 164 490
f 164 165 490
f 165 166 490
f 166 167 490
f 167 168 490
f 168 169 490
f 169 170 490
f 170 171 490
f 171 172 490
f 172 173 490
f 173 174 490
f 174 175 490
f 175 176 490
f 132 490 143
f 143 490 144
f 176 177 490
f 177 258 490
f 98 178 179
f 101 181 182
f 99 179 181
f 102 182 180
f 103 183 224
f 104 184 183
f 115 195 186
f 106 186 185
f 107 187 184
f 108 188 187
f 105 185 188
f 110 190 196
f 109 189 191
f 111 191 192
f 112 192 190
f 100 180 193
f 113 193 194
f 114 194 189
f 116 196 195
f 117 197 198
f 119 199 197
f 121 201 202
f 120 200 201
f 122 202 203
f 123 203 215
f 125 205 204
f 126 206 200
f 124 204 206
f 118 198 205
f 128 208 207
f 127 207 199
f 129 209 208
f 130 210 209
f 131 211 210
f 132 212 213
f 133 213 211
f 135 215 214
f 134 214 217
f 137 217 216
f 136 216 218
f 138 218 219
f 139 219 220
f 140 220 221
f 141 221 222
f 143 223 212
f 144 224 223
f 145 225 226
f 146 226 228
f 147 227 225
f 148 228 230
f 150 230 229
f 149 229 231
f 151 231 178
f 183 258 224
f 180 182 258
f 180 258 193
f 193 258 194
f 189 194 258
f 183 184 258
f 184 187 258
f 187 188 258
f 185 186 258
f 185 258 188
f 186 195 258
f 190 192 258
f 191 258 192
f 190 258 196
f 195 196 258
f 189 258 191
f 88 258 89
f 89 258 90
f 90 258 91
f 91 258 92
f 92 258 227
f 225 227 258
f 228 258 230
f 229 230 258
f 225 258 226
f 226 258 228
f 229 258 231
f 178 231 258
f 178 258 179
f 179 258 181
f 181 258 182
f 142 222 232
f 152 232 233
f 153 233 234
f 154 234 235
f 155 235 236
f 156 236 237
f 157 237 238
f 158 238 239
f 159 239 240
f 160 240 241
f 161 241 242
f 162 242 243
f 163 243 244
f 164 244 245
f 165 245 246
f 166 246 247
f 167 247 248
f 168 248 249
f 169 249 250
f 170 250 251
f 171 251 252
f 172 252 253
f 173 253 254
f 174 254 255
f 175 255 256
f 176 256 257
f 177 257 258
f 198 258 205
f 204 258 206
f 200 206 258
f 204 205 258
f 218 258 219
f 219 258 220
f 200 258 201
f 202 258 203
f 201 258 202
f 203 258 215
f 214 258 217
f 214 215 258
f 216 217 258
f 216 258 218
f 220 258 221
f 221 258 222
f 222 258 232
f 232 258 233
f 233 258 234
f 234 258 235
f 235 258 236
f 236 258 237
f 237 258 238
f 238 258 239
f 239 258 240
f 240 258 241
f 241 258 242
f 242 258 243
f 243 258 244
f 244 258 245
f 245 258 246
f 207 208 258
f 208 209 258
f 209 210 258
f 197 199 258
f 197 258 198
f 199 207 258
f 211 213 258
f 212 258 213
f 210 211 258
f 212 223 258
f 223 224 258
f 246 258 247
f 247 258 248
f 248 258 249
f 249 258 250
f 250 258 251
f 251 258 252
f 252 258 253
f 253 258 254
f 254 258 255
f 255 258 256
f 256 258 257
f 258 506 491
f 258 491 493
f 258 392 393
f 258 393 389
f 258 390 391
f 258 389 390
f 258 391 394
f 258 394 395
f 258 395 396
f 258 396 397
f 258 397 398
f 258 399 499
f 258 398 399
f 258 499 500
f 258 500 494
f 258 494 495
f 258 495 496
f 258 497 498
f 258 498 502
f 258 502 503
f 258 503 501
f 258 496 497
f 258 501 504
f 258 505 506
f 258 504 505
f 40 288 318
f 48 318 97
f 318 288 289
f 318 289 291
f 318 291 292
f 318 292 293
f 318 293 294
f 318 294 295
f 318 295 296
f 318 296 297
f 318 297 298
f 318 298 299
f 318 299 300
f 318 300 301
f 318 301 302
f 318 302 303
f 318 303 304
f 318 304 305
f 318 305 319
f 318 319 320
f 318 320 321
f 318 321 322
f 318 322 323
f 318 323 324
f 318 324 325
f 318 325 326
f 318 326 327
f 318 327 328
f 318 328 329
f 318 329 330
f 318 330 331
f 318 331 332
f 318 349 314
f 318 358 353
f 318 347 349
f 318 348 347
f 318 350 357
f 318 357 356
f 318 346 345
f 318 345 348
f 318 356 346
f 318 352 351
f 318 354 352
f 318 351 350
f 318 355 354
f 318 353 355
f 318 315 310
f 318 316 317
f 318 317 308
f 318 309 316
f 318 310 309
f 318 405 400
f 318 306 405
f 318 403 402
f 318 401 403
f 318 400 401
f 318 308 307
f 318 307 306
f 318 313 312
f 318 312 311
f 318 311 315
f 318 314 313
f 318 332 333
f 318 333 334
f 318 334 335
f 318 335 336
f 318 336 337
f 318 337 338
f 318 338 339
f 318 339 340
f 318 340 341
f 318 341 342
f 318 342 343
f 318 343 344
f 318 344 468
f 318 468 469
f 318 469 470
f 318 359 358
f 318 490 359
f 97 402 404
f 97 404 376
f 97 376 375
f 97 374 377
f 97 375 374
f 97 377 371
f 97 371 372
f 97 318 402
f 40 490 421
f 490 422 421
f 490 423 422
f 490 424 423
f 490 425 424
f 490 426 425
f 258 453 490
f 490 460 472
f 490 459 460
f 490 471 456
f 490 458 457
f 490 456 458
f 490 464 466
f 490 467 464
f 490 457 467
f 490 466 465
f 490 462 463
f 490 465 462
f 490 461 459
f 490 463 461
f 490 473 488
f 490 489 483
f 490 483 482
f 490 474 475
f 490 475 473
f 490 476 478
f 490 478 474
f 490 477 476
f 490 484 477
f 490 479 484
f 490 481 479
f 490 480 481
f 490 482 480
f 318 470 490
f 490 361 360
f 490 360 359
f 490 362 361
f 490 363 362
f 490 364 363
f 490 470 471
f 490 365 364
f 490 366 365
f 490 367 366
f 490 368 367
f 490 369 368
f 490 370 369
f 490 485 370
f 490 486 485
f 490 487 486
f 490 488 487
f 490 427 426
f 490 428 427
f 490 429 428
f 490 430 429
f 490 431 430
f 490 432 431
f 490 433 432
f 490 434 433
f 490 435 434
f 490 436 435
f 490 440 438
f 490 437 436
f 490 438 437
f 490 441 440
f 490 439 441
f 490 442 439
f 490 443 442
f 490 472 443
f 490 452 489
f 490 449 451
f 490 450 449
f 490 453 450
f 490 451 452
f 258 492 507
f 258 493 492
f 258 448 453
f 258 447 448
f 258 445 446
f 258 511 516
f 258 514 512
f 258 512 511
f 258 516 444
f 258 444 445
f 258 515 513
f 258 510 515
f 258 509 510
f 258 507 508
f 258 508 509
f 258 513 514
f 258 454 447
f 258 455 454
f 258 446 455
f 273 259 378
f 261 260 379
f 259 261 380
f 264 262 381
f 262 263 382
f 260 264 383
f 268 265 384
f 265 274 385
f 266 267 372
f 267 268 373
f 270 269 374
f 271 270 375
f 290 271 376
f 272 266 371
f 269 272 377
f 274 273 386
f 281 275 389
f 275 276 390
f 276 277 391
f 278 279 388
f 263 278 387
f 279 280 392
f 280 281 393
f 277 282 394
f 282 283 395
f 283 284 396
f 284 285 397
f 285 286 398
f 286 287 399
f 287 406 499
f 288 290 404
f 289 288 402
f 291 289 403
f 292 291 401
f 293 292 400
f 294 293 405
f 294 306 295
f 295 307 296
f 297 296 308
f 298 297 317
f 299 298 316
f 300 299 309
f 301 300 310
f 302 301 315
f 303 302 311
f 304 303 312
f 305 304 313
f 319 305 314
f 319 314 349
f 290 376 404
f 259 380 378
f 379 380 261
f 262 382 381
f 263 387 382
f 260 383 379
f 264 381 383
f 266 372 371
f 265 385 384
f 267 373 372
f 268 384 373
f 269 377 374
f 271 375 376
f 270 374 375
f 272 371 377
f 274 386 385
f 273 378 386
f 281 389 393
f 275 390 389
f 276 391 390
f 278 388 387
f 279 392 388
f 280 393 392
f 277 394 391
f 282 395 394
f 396 395 283
f 397 396 284
f 398 397 285
f 399 398 286
f 499 399 287
f 289 402 403
f 288 404 402
f 291 403 401
f 292 401 400
f 293 400 405
f 294 405 306
f 295 306 307
f 296 307 308
f 301 310 315
f 299 316 309
f 298 317 316
f 297 308 317
f 300 309 310
f 302 315 311
f 303 311 312
f 304 312 313
f 305 313 314
f 320 319 349
f 321 320 347
f 322 321 348
f 323 322 345
f 324 323 346
f 325 324 356
f 326 325 357
f 327 326 350
f 328 327 351
f 332 331 353
f 329 328 352
f 330 329 354
f 331 330 355
f 320 349 347
f 321 347 348
f 322 348 345
f 323 345 346
f 324 346 356
f 325 356 357
f 326 357 350
f 327 350 351
f 328 351 352
f 329 352 354
f 330 354 355
f 331 355 353
f 333 332 358
f 334 333 359
f 335 334 360
f 336 335 361
f 337 336 362
f 338 337 363
f 339 338 364
f 340 339 365
f 340 366 341
f 342 341 367
f 343 342 368
f 344 343 369
f 468 344 370
f 332 353 358
f 333 358 359
f 334 359 360
f 335 360 361
f 336 361 362
f 337 362 363
f 338 363 364
f 339 364 365
f 340 365 366
f 366 367 341
f 367 368 342
f 368 369 343
f 369 370 344
f 370 485 468
f 406 407 500
f 407 408 494
f 408 409 495
f 409 410 496
f 410 411 497
f 411 412 498
f 414 415 501
f 412 413 502
f 413 414 503
f 415 416 504
f 416 417 505
f 417 418 506
f 418 419 491
f 420 421 492
f 419 420 493
f 421 422 507
f 425 426 515
f 422 423 508
f 423 424 509
f 424 425 510
f 443 472 489
f 426 427 513
f 427 428 514
f 429 430 511
f 428 429 512
f 430 431 516
f 431 432 444
f 432 433 445
f 433 434 446
f 434 435 455
f 435 436 454
f 436 437 447
f 438 440 453
f 437 438 448
f 441 439 449
f 440 441 450
f 439 442 451
f 442 443 452
f 489 452 443
f 500 499 406
f 494 500 407
f 495 494 408
f 497 496 410
f 496 495 409
f 498 497 411
f 502 498 412
f 501 503 414
f 504 501 415
f 503 502 413
f 505 504 416
f 492 493 420
f 506 505 417
f 491 506 418
f 493 491 419
f 507 492 421
f 515 510 425
f 509 508 423
f 508 507 422
f 510 509 424
f 455 446 434
f 514 513 427
f 513 515 426
f 512 514 428
f 511 512 429
f 445 444 432
f 444 516 431
f 516 511 430
f 446 445 433
f 453 448 438
f 447 454 436
f 454 455 435
f 448 447 437
f 450 453 440
f 449 450 441
f 452 451 442
f 451 449 439
f 456 471 488
f 458 456 473
f 467 457 474
f 457 458 475
f 472 460 483
f 460 459 482
f 463 462 479
f 461 463 481
f 459 461 480
f 466 464 476
f 465 466 477
f 462 465 484
f 464 467 478
f 469 468 485
f 470 469 486
f 471 470 487
f 488 473 456
f 473 475 458
f 475 474 457
f 483 489 472
f 482 483 460
f 481 480 461
f 479 481 463
f 480 482 459
f 478 476 464
f 477 484 465
f 484 479 462
f 476 477 466
f 474 478 467
f 485 486 469
f 486 487 470
f 487 488 471

