# https://github.com/mikedh/trimesh
v 0.24816020 0.34065419 0.00000000
v 0.22698955 0.36560673 0.00000000
v 0.18715331 0.41752231 0.00000000
v 0.15079781 0.47193214 0.00000000
v 0.16853039 0.44442976 0.00000000
v 0.20664667 0.39123857 0.00000000
v 0.34065419 0.24816020 0.00000000
v 0.36560673 0.22698955 0.00000000
v 0.41752231 0.18715331 0.00000000
v 0.39123857 0.20664667 0.00000000
v 0.44442976 0.16853039 0.00000000
v 0.47193214 0.15079781 0.00000000
v 0.29289323 0.29289323 0.00000000
v 0.27013594 0.31640771 0.00000000
v 0.31640771 0.27013594 0.00000000
v 0.11807874 0.52860326 0.00000000
v 0.10312726 0.55771130 0.00000000
v 0.08913618 0.58729297 0.00000000
v 0.07612047 0.61731654 0.00000000
v 0.05306987 0.67856055 0.00000000
v 0.04305967 0.70971531 0.00000000
v 0.03407417 0.74118096 0.00000000
v 0.06409407 0.64774996 0.00000000
v 0.13397460 0.50000000 0.00000000
v 0.02612302 0.77292371 0.00000000
v 0.01921472 0.80490971 0.00000000
v 0.01335667 0.83710450 0.00000000
v 0.00855514 0.86947381 0.00000000
v 0.00481527 0.90198284 0.00000000
v 0.00214108 0.93459690 0.00000000
v 0.00053541 0.96728092 0.00000000
v 0.52860326 0.11807874 0.00000000
v 0.55771130 0.10312726 0.00000000
v 0.58729297 0.08913618 0.00000000
v 0.61731654 0.07612047 0.00000000
v 0.50000000 0.13397460 0.00000000
v 0.67856055 0.05306987 0.00000000
v 0.64774996 0.06409407 0.00000000
v 0.70971531 0.04305967 0.00000000
v 0.74118096 0.03407417 0.00000000
v 0.77292371 0.02612302 0.00000000
v 0.80490971 0.01921472 0.00000000
v 0.83710450 0.01335667 0.00000000
v 0.86947381 0.00855514 0.00000000
v 0.90198284 0.00481527 0.00000000
v 0.93459690 0.00214108 0.00000000
v 0.96728092 0.00053541 0.00000000
v 0.24816020 0.34065419 1.60000002
v 0.22698955 0.36560673 1.60000002
v 0.18715331 0.41752231 1.60000002
v 0.15079781 0.47193214 1.60000002
v 0.16853039 0.44442976 1.60000002
v 0.20664667 0.39123857 1.60000002
v 0.34065419 0.24816020 1.60000002
v 0.36560673 0.22698955 1.60000002
v 0.41752231 0.18715331 1.60000002
v 0.39123857 0.20664667 1.60000002
v 0.44442976 0.16853039 1.60000002
v 0.47193214 0.15079781 1.60000002
v 0.29289323 0.29289323 1.60000002
v 0.27013594 0.31640771 1.60000002
v 0.31640771 0.27013594 1.60000002
v 0.11807874 0.52860326 1.60000002
v 0.10312726 0.55771130 1.60000002
v 0.08913618 0.58729297 1.60000002
v 0.07612047 0.61731654 1.60000002
v 0.05306987 0.67856055 1.60000002
v 0.04305967 0.70971531 1.60000002
v 0.03407417 0.74118096 1.60000002
v 0.06409407 0.64774996 1.60000002
v 0.13397460 0.50000000 1.60000002
v 0.02612302 0.77292371 1.60000002
v 0.01921472 0.80490971 1.60000002
v 0.01335667 0.83710450 1.60000002
v 0.00855514 0.86947381 1.60000002
v 0.00481527 0.90198284 1.60000002
v 0.00214108 0.93459690 1.60000002
v 0.00053541 0.96728092 1.60000002
v 0.52860326 0.11807874 1.60000002
v 0.55771130 0.10312726 1.60000002
v 0.58729297 0.08913618 1.60000002
v 0.61731654 0.07612047 1.60000002
v 0.50000000 0.13397460 1.60000002
v 0.67856055 0.05306987 1.60000002
v 0.64774996 0.06409407 1.60000002
v 0.70971531 0.04305967 1.60000002
v 0.74118096 0.03407417 1.60000002
v 0.77292371 0.02612302 1.60000002
v 0.80490971 0.01921472 1.60000002
v 0.83710450 0.01335667 1.60000002
v 0.86947381 0.00855514 1.60000002
v 0.90198284 0.00481527 1.60000002
v 0.93459690 0.00214108 1.60000002
v 0.96728092 0.00053541 1.60000002
v 0.00000000 1.00000000 0.00000000
v 0.00000000 1.00000000 1.60000002
v 1.00000000 0.00000000 0.00000000
v 1.00000000 0.00000000 1.60000002
v 0.00000000 7.00000000 0.00000000
v 0.00053541 7.03271914 0.00000000
v 0.00214108 7.06540298 0.00000000
v 0.00481527 7.09801722 0.00000000
v 0.00855514 7.13052607 0.00000000
v 0.01335667 7.16289568 0.00000000
v 0.01921472 7.19509029 0.00000000
v 0.02612302 7.22707605 0.00000000
v 0.03407417 7.25881910 0.00000000
v 0.04305967 7.29028463 0.00000000
v 0.05306987 7.32143927 0.00000000
v 0.06409407 7.35225010 0.00000000
v 0.07612047 7.38268328 0.00000000
v 0.08913618 7.41270685 0.00000000
v 0.10312726 7.44228888 0.00000000
v 0.11807874 7.47139692 0.00000000
v 0.13397460 7.50000000 0.00000000
v 0.15079781 7.52806807 0.00000000
v 0.16853039 7.55557013 0.00000000
v 0.18715331 7.58247757 0.00000000
v 0.20664667 7.60876131 0.00000000
v 0.22698955 7.63439322 0.00000000
v 0.24816020 7.65934563 0.00000000
v 0.27013594 7.68359232 0.00000000
v 0.29289323 7.70710659 0.00000000
v 0.31640771 7.72986412 0.00000000
v 0.34065419 7.75183964 0.00000000
v 0.36560673 7.77301025 0.00000000
v 0.39123857 7.79335356 0.00000000
v 0.41752231 7.81284666 0.00000000
v 0.44442976 7.83146954 0.00000000
v 0.47193214 7.84920216 0.00000000
v 0.50000000 7.86602545 0.00000000
v 0.52860326 7.88192129 0.00000000
v 0.55771130 7.89687252 0.00000000
v 0.58729297 7.91086388 0.00000000
v 0.61731654 7.92387962 0.00000000
v 0.64774996 7.93590593 0.00000000
v 0.67856055 7.94692993 0.00000000
v 0.70971531 7.95694017 0.00000000
v 0.74118096 7.96592569 0.00000000
v 0.77292371 7.97387695 0.00000000
v 0.80490971 7.98078537 0.00000000
v 0.83710450 7.98664331 0.00000000
v 0.86947381 7.99144506 0.00000000
v 0.90198284 7.99518490 0.00000000
v 0.93459690 7.99785900 0.00000000
v 0.96728092 7.99946451 0.00000000
v 0.00000000 7.00000000 1.60000002
v 0.00053541 7.03271914 1.60000002
v 0.00214108 7.06540298 1.60000002
v 0.00481527 7.09801722 1.60000002
v 0.00855514 7.13052607 1.60000002
v 0.01335667 7.16289568 1.60000002
v 0.01921472 7.19509029 1.60000002
v 0.02612302 7.22707605 1.60000002
v 0.03407417 7.25881910 1.60000002
v 0.04305967 7.29028463 1.60000002
v 0.05306987 7.32143927 1.60000002
v 0.06409407 7.35225010 1.60000002
v 0.07612047 7.38268328 1.60000002
v 0.08913618 7.41270685 1.60000002
v 0.10312726 7.44228888 1.60000002
v 0.11807874 7.47139692 1.60000002
v 0.13397460 7.50000000 1.60000002
v 0.15079781 7.52806807 1.60000002
v 0.16853039 7.55557013 1.60000002
v 0.18715331 7.58247757 1.60000002
v 0.20664667 7.60876131 1.60000002
v 0.22698955 7.63439322 1.60000002
v 0.24816020 7.65934563 1.60000002
v 0.27013594 7.68359232 1.60000002
v 0.29289323 7.70710659 1.60000002
v 0.31640771 7.72986412 1.60000002
v 0.34065419 7.75183964 1.60000002
v 0.36560673 7.77301025 1.60000002
v 0.39123857 7.79335356 1.60000002
v 0.41752231 7.81284666 1.60000002
v 0.44442976 7.83146954 1.60000002
v 0.47193214 7.84920216 1.60000002
v 0.50000000 7.86602545 1.60000002
v 0.52860326 7.88192129 1.60000002
v 0.55771130 7.89687252 1.60000002
v 0.58729297 7.91086388 1.60000002
v 0.61731654 7.92387962 1.60000002
v 0.64774996 7.93590593 1.60000002
v 0.67856055 7.94692993 1.60000002
v 0.70971531 7.95694017 1.60000002
v 0.74118096 7.96592569 1.60000002
v 0.77292371 7.97387695 1.60000002
v 0.80490971 7.98078537 1.60000002
v 0.83710450 7.98664331 1.60000002
v 0.86947381 7.99144506 1.60000002
v 0.90198284 7.99518490 1.60000002
v 0.93459690 7.99785900 1.60000002
v 0.96728092 7.99946451 1.60000002
v 1.00000000 6.90000010 1.60000002
v 1.00000000 8.00000000 0.00000000
v 1.00000000 7.69999981 1.60000002
v 1.00000000 8.00000000 1.60000002
v 1.00000000 6.90000010 9.60000038
v 1.00000000 7.69999981 9.60000038
v 7.00000000 0.00000000 0.00000000
v 7.03271914 0.00053541 0.00000000
v 7.06540298 0.00214108 0.00000000
v 7.09801722 0.00481527 0.00000000
v 7.13052607 0.00855514 0.00000000
v 7.16289568 0.01335667 0.00000000
v 7.19509029 0.01921472 0.00000000
v 7.22707605 0.02612302 0.00000000
v 7.25881910 0.03407417 0.00000000
v 7.29028463 0.04305967 0.00000000
v 7.32143927 0.05306987 0.00000000
v 7.35225010 0.06409407 0.00000000
v 7.38268328 0.07612047 0.00000000
v 7.41270685 0.08913618 0.00000000
v 7.44228888 0.10312726 0.00000000
v 7.47139692 0.11807874 0.00000000
v 7.50000000 0.13397460 0.00000000
v 7.52806807 0.15079781 0.00000000
v 7.55557013 0.16853039 0.00000000
v 7.58247757 0.18715331 0.00000000
v 7.60876131 0.20664667 0.00000000
v 7.63439322 0.22698955 0.00000000
v 7.65934563 0.24816020 0.00000000
v 7.68359232 0.27013594 0.00000000
v 7.70710659 0.29289323 0.00000000
v 7.72986412 0.31640771 0.00000000
v 7.75183964 0.34065419 0.00000000
v 7.77301025 0.36560673 0.00000000
v 7.79335356 0.39123857 0.00000000
v 7.81284666 0.41752231 0.00000000
v 7.83146954 0.44442976 0.00000000
v 7.84920216 0.47193214 0.00000000
v 7.86602545 0.50000000 0.00000000
v 7.88192129 0.52860326 0.00000000
v 7.89687252 0.55771130 0.00000000
v 7.91086388 0.58729297 0.00000000
v 7.92387962 0.61731654 0.00000000
v 7.93590593 0.64774996 0.00000000
v 7.94692993 0.67856055 0.00000000
v 7.95694017 0.70971531 0.00000000
v 7.96592569 0.74118096 0.00000000
v 7.97387695 0.77292371 0.00000000
v 7.98078537 0.80490971 0.00000000
v 7.98664331 0.83710450 0.00000000
v 7.99144506 0.86947381 0.00000000
v 7.99518490 0.90198284 0.00000000
v 7.99785900 0.93459690 0.00000000
v 7.99946451 0.96728092 0.00000000
v 7.00000000 0.00000000 1.60000002
v 7.03271914 0.00053541 1.60000002
v 7.06540298 0.00214108 1.60000002
v 7.09801722 0.00481527 1.60000002
v 7.13052607 0.00855514 1.60000002
v 7.16289568 0.01335667 1.60000002
v 7.19509029 0.01921472 1.60000002
v 7.22707605 0.02612302 1.60000002
v 7.25881910 0.03407417 1.60000002
v 7.29028463 0.04305967 1.60000002
v 7.32143927 0.05306987 1.60000002
v 7.35225010 0.06409407 1.60000002
v 7.38268328 0.07612047 1.60000002
v 7.41270685 0.08913618 1.60000002
v 7.44228888 0.10312726 1.60000002
v 7.47139692 0.11807874 1.60000002
v 7.50000000 0.13397460 1.60000002
v 7.52806807 0.15079781 1.60000002
v 7.55557013 0.16853039 1.60000002
v 7.58247757 0.18715331 1.60000002
v 7.60876131 0.20664667 1.60000002
v 7.63439322 0.22698955 1.60000002
v 7.65934563 0.24816020 1.60000002
v 7.68359232 0.27013594 1.60000002
v 7.70710659 0.29289323 1.60000002
v 7.72986412 0.31640771 1.60000002
v 7.75183964 0.34065419 1.60000002
v 7.77301025 0.36560673 1.60000002
v 7.79335356 0.39123857 1.60000002
v 7.81284666 0.41752231 1.60000002
v 7.83146954 0.44442976 1.60000002
v 7.84920216 0.47193214 1.60000002
v 7.86602545 0.50000000 1.60000002
v 7.88192129 0.52860326 1.60000002
v 7.89687252 0.55771130 1.60000002
v 7.91086388 0.58729297 1.60000002
v 7.92387962 0.61731654 1.60000002
v 7.93590593 0.64774996 1.60000002
v 7.94692993 0.67856055 1.60000002
v 7.95694017 0.70971531 1.60000002
v 7.96592569 0.74118096 1.60000002
v 7.97387695 0.77292371 1.60000002
v 7.98078537 0.80490971 1.60000002
v 7.98664331 0.83710450 1.60000002
v 7.99144506 0.86947381 1.60000002
v 7.99518490 0.90198284 1.60000002
v 7.99785900 0.93459690 1.60000002
v 7.99946451 0.96728092 1.60000002
v 8.00000000 1.00000000 0.00000000
v 8.00000000 1.00000000 1.60000002
v 7.00000000 6.90000010 1.60000002
v 7.00000000 8.00000000 0.00000000
v 7.03271914 7.99946451 0.00000000
v 7.06540298 7.99785900 0.00000000
v 7.09801722 7.99518490 0.00000000
v 7.13052607 7.99144506 0.00000000
v 7.16289568 7.98664331 0.00000000
v 7.19509029 7.98078537 0.00000000
v 7.22707605 7.97387695 0.00000000
v 7.25881910 7.96592569 0.00000000
v 7.29028463 7.95694017 0.00000000
v 7.35225010 7.93590593 0.00000000
v 7.32143927 7.94692993 0.00000000
v 7.38268328 7.92387962 0.00000000
v 7.41270685 7.91086388 0.00000000
v 7.44228888 7.89687252 0.00000000
v 7.47139692 7.88192129 0.00000000
v 8.00000000 7.00000000 0.00000000
v 7.99946451 7.03271914 0.00000000
v 7.99785900 7.06540298 0.00000000
v 7.99518490 7.09801722 0.00000000
v 7.99144506 7.13052607 0.00000000
v 7.98664331 7.16289568 0.00000000
v 7.98078537 7.19509029 0.00000000
v 7.97387695 7.22707605 0.00000000
v 7.93590593 7.35225010 0.00000000
v 7.96592569 7.25881910 0.00000000
v 7.95694017 7.29028463 0.00000000
v 7.94692993 7.32143927 0.00000000
v 7.92387962 7.38268328 0.00000000
v 7.91086388 7.41270685 0.00000000
v 7.89687252 7.44228888 0.00000000
v 7.88192129 7.47139692 0.00000000
v 7.68359232 7.72986412 0.00000000
v 7.72986412 7.68359232 0.00000000
v 7.70710659 7.70710659 0.00000000
v 7.50000000 7.86602545 0.00000000
v 7.52806807 7.84920216 0.00000000
v 7.55557013 7.83146954 0.00000000
v 7.60876131 7.79335356 0.00000000
v 7.58247757 7.81284666 0.00000000
v 7.63439322 7.77301025 0.00000000
v 7.65934563 7.75183964 0.00000000
v 7.79335356 7.60876131 0.00000000
v 7.83146954 7.55557013 0.00000000
v 7.84920216 7.52806807 0.00000000
v 7.86602545 7.50000000 0.00000000
v 7.81284666 7.58247757 0.00000000
v 7.77301025 7.63439322 0.00000000
v 7.75183964 7.65934563 0.00000000
v 7.00000000 7.69999981 1.60000002
v 7.00000000 8.00000000 1.60000002
v 7.03271914 7.99946451 1.60000002
v 7.06540298 7.99785900 1.60000002
v 7.09801722 7.99518490 1.60000002
v 7.13052607 7.99144506 1.60000002
v 7.16289568 7.98664331 1.60000002
v 7.19509029 7.98078537 1.60000002
v 7.22707605 7.97387695 1.60000002
v 7.25881910 7.96592569 1.60000002
v 7.29028463 7.95694017 1.60000002
v 7.35225010 7.93590593 1.60000002
v 7.32143927 7.94692993 1.60000002
v 7.38268328 7.92387962 1.60000002
v 7.41270685 7.91086388 1.60000002
v 7.44228888 7.89687252 1.60000002
v 7.47139692 7.88192129 1.60000002
v 8.00000000 7.00000000 1.60000002
v 7.99946451 7.03271914 1.60000002
v 7.99785900 7.06540298 1.60000002
v 7.99518490 7.09801722 1.60000002
v 7.99144506 7.13052607 1.60000002
v 7.98664331 7.16289568 1.60000002
v 7.98078537 7.19509029 1.60000002
v 7.97387695 7.22707605 1.60000002
v 7.93590593 7.35225010 1.60000002
v 7.96592569 7.25881910 1.60000002
v 7.95694017 7.29028463 1.60000002
v 7.94692993 7.32143927 1.60000002
v 7.92387962 7.38268328 1.60000002
v 7.91086388 7.41270685 1.60000002
v 7.89687252 7.44228888 1.60000002
v 7.88192129 7.47139692 1.60000002
v 7.68359232 7.72986412 1.60000002
v 7.72986412 7.68359232 1.60000002
v 7.70710659 7.70710659 1.60000002
v 7.50000000 7.86602545 1.60000002
v 7.52806807 7.84920216 1.60000002
v 7.55557013 7.83146954 1.60000002
v 7.60876131 7.79335356 1.60000002
v 7.58247757 7.81284666 1.60000002
v 7.63439322 7.77301025 1.60000002
v 7.65934563 7.75183964 1.60000002
v 7.79335356 7.60876131 1.60000002
v 7.83146954 7.55557013 1.60000002
v 7.84920216 7.52806807 1.60000002
v 7.86602545 7.50000000 1.60000002
v 7.81284666 7.58247757 1.60000002
v 7.77301025 7.63439322 1.60000002
v 7.75183964 7.65934563 1.60000002
v 7.00000000 6.90000010 9.60000038
v 7.00000000 7.69999981 9.60000038
f 1 49 2
f 3 52 5
f 4 71 24
f 4 5 51
f 2 53 6
f 3 6 50
f 7 8 54
f 8 10 55
f 9 11 56
f 9 57 10
f 11 12 58
f 12 36 59
f 13 61 14
f 13 15 60
f 1 14 48
f 7 62 15
f 2 49 53
f 1 48 49
f 3 50 52
f 4 51 71
f 5 52 51
f 6 53 50
f 8 55 54
f 11 58 56
f 10 57 55
f 9 56 57
f 12 59 58
f 36 83 59
f 15 62 60
f 13 60 61
f 14 61 48
f 7 54 62
f 16 24 63
f 16 64 17
f 18 66 19
f 17 65 18
f 20 23 67
f 20 68 21
f 21 69 22
f 19 70 23
f 22 72 25
f 25 73 26
f 26 74 27
f 27 75 28
f 28 76 29
f 29 77 30
f 30 78 31
f 31 96 95
f 16 63 64
f 18 65 66
f 17 64 65
f 23 70 67
f 20 67 68
f 21 68 69
f 19 66 70
f 24 71 63
f 25 72 73
f 22 69 72
f 26 73 74
f 27 74 75
f 28 75 76
f 29 76 77
f 30 77 78
f 31 78 96
f 32 33 79
f 33 34 80
f 34 35 81
f 32 83 36
f 37 85 38
f 35 38 82
f 37 39 84
f 39 40 86
f 40 41 87
f 41 42 88
f 42 43 89
f 43 44 90
f 44 45 91
f 45 46 92
f 46 47 93
f 47 97 94
f 32 79 83
f 33 80 79
f 34 81 80
f 35 82 81
f 37 84 85
f 38 85 82
f 39 86 84
f 40 87 86
f 41 88 87
f 42 89 88
f 43 90 89
f 44 91 90
f 45 92 91
f 46 93 92
f 47 94 93
f 97 98 94
f 7 99 8
f 9 10 99
f 8 99 10
f 9 99 11
f 11 99 12
f 12 99 36
f 32 36 99
f 32 99 33
f 37 38 99
f 37 99 39
f 39 99 40
f 33 99 34
f 34 99 35
f 35 99 38
f 3 5 99
f 18 19 99
f 16 99 24
f 4 99 5
f 4 24 99
f 16 17 99
f 17 18 99
f 1 99 14
f 2 6 99
f 3 99 6
f 1 2 99
f 13 99 15
f 13 14 99
f 7 15 99
f 19 23 99
f 20 99 23
f 20 21 99
f 21 22 99
f 22 25 99
f 25 26 99
f 26 27 99
f 27 28 99
f 28 29 99
f 29 30 99
f 30 31 99
f 31 95 99
f 40 99 41
f 41 99 42
f 42 99 43
f 43 99 44
f 44 99 45
f 45 99 46
f 46 99 47
f 47 99 97
f 54 55 147
f 56 147 57
f 55 57 147
f 56 58 147
f 58 59 147
f 59 83 147
f 79 147 83
f 79 80 147
f 84 147 85
f 84 86 147
f 86 87 147
f 80 81 147
f 81 82 147
f 82 85 147
f 50 147 52
f 65 147 66
f 63 71 147
f 51 52 147
f 51 147 71
f 63 147 64
f 64 147 65
f 48 61 147
f 49 147 53
f 50 53 147
f 48 147 49
f 60 62 147
f 60 147 61
f 54 147 62
f 66 147 70
f 67 70 147
f 67 147 68
f 68 147 69
f 69 147 72
f 72 147 73
f 73 147 74
f 74 147 75
f 75 147 76
f 76 147 77
f 77 147 78
f 78 147 96
f 87 88 147
f 88 89 147
f 89 90 147
f 90 91 147
f 91 92 147
f 92 93 147
f 93 94 147
f 94 98 147
f 95 96 147
f 97 201 98
f 97 99 201
f 98 249 147
f 95 147 99
f 99 100 101
f 99 101 102
f 99 102 103
f 99 103 104
f 99 104 105
f 99 105 106
f 99 106 107
f 99 107 108
f 99 108 109
f 99 109 110
f 99 110 111
f 99 148 100
f 100 149 101
f 101 150 102
f 102 151 103
f 103 152 104
f 104 153 105
f 105 154 106
f 106 155 107
f 99 111 112
f 99 112 113
f 99 113 114
f 99 114 115
f 99 115 116
f 99 116 117
f 99 117 118
f 99 118 119
f 99 119 120
f 99 120 121
f 99 121 122
f 99 122 123
f 99 123 124
f 99 124 125
f 107 156 108
f 108 157 109
f 109 158 110
f 110 159 111
f 111 160 112
f 112 161 113
f 113 162 114
f 114 163 115
f 99 147 148
f 100 148 149
f 101 149 150
f 102 150 151
f 103 151 152
f 104 152 153
f 105 153 154
f 106 154 155
f 107 155 156
f 108 156 157
f 109 157 158
f 110 158 159
f 111 159 160
f 112 160 161
f 113 161 162
f 114 162 163
f 99 125 126
f 115 164 116
f 116 165 117
f 117 166 118
f 118 167 119
f 119 168 120
f 120 169 121
f 99 126 127
f 99 127 128
f 99 128 129
f 99 129 130
f 99 130 131
f 99 131 132
f 99 132 133
f 99 133 134
f 99 134 135
f 99 135 136
f 99 136 137
f 99 137 138
f 99 138 139
f 121 170 122
f 122 171 123
f 123 172 124
f 124 173 125
f 125 174 126
f 126 175 127
f 127 176 128
f 128 177 129
f 129 178 130
f 130 179 131
f 115 163 164
f 116 164 165
f 117 165 166
f 118 166 167
f 119 167 168
f 120 168 169
f 121 169 170
f 122 170 171
f 123 171 172
f 124 172 173
f 125 173 174
f 126 174 175
f 127 175 176
f 128 176 177
f 129 177 178
f 130 178 179
f 99 139 140
f 99 140 141
f 99 141 142
f 99 142 143
f 99 143 144
f 99 144 145
f 99 145 146
f 99 146 196
f 131 180 132
f 132 181 133
f 133 182 134
f 134 183 135
f 135 184 136
f 136 185 137
f 137 186 138
f 138 187 139
f 139 188 140
f 140 189 141
f 141 190 142
f 142 191 143
f 143 192 144
f 144 193 145
f 145 194 146
f 146 198 196
f 131 179 180
f 132 180 181
f 133 181 182
f 134 182 183
f 135 183 184
f 136 184 185
f 137 185 186
f 138 186 187
f 139 187 188
f 140 188 189
f 141 189 190
f 142 190 191
f 143 191 192
f 144 192 193
f 145 193 194
f 146 194 198
f 147 149 148
f 147 150 149
f 147 151 150
f 147 152 151
f 147 153 152
f 147 154 153
f 147 155 154
f 147 156 155
f 147 157 156
f 147 158 157
f 147 159 158
f 147 160 159
f 147 161 160
f 147 162 161
f 147 163 162
f 147 164 163
f 147 165 164
f 147 166 165
f 147 167 166
f 147 168 167
f 147 169 168
f 147 170 169
f 147 171 170
f 147 172 171
f 147 173 172
f 147 174 173
f 147 175 174
f 147 176 175
f 147 177 176
f 147 178 177
f 147 179 178
f 147 180 179
f 147 181 180
f 147 182 181
f 147 183 182
f 147 184 183
f 147 185 184
f 147 186 185
f 147 187 186
f 147 195 197
f 147 188 187
f 147 189 188
f 147 190 189
f 147 191 190
f 147 192 191
f 147 193 192
f 147 197 198
f 147 194 193
f 147 198 194
f 147 298 195
f 99 196 300
f 196 198 350
f 198 197 349
f 98 201 249
f 99 202 201
f 99 203 202
f 99 204 203
f 99 205 204
f 99 206 205
f 99 207 206
f 99 208 207
f 99 209 208
f 99 210 209
f 99 211 210
f 99 212 211
f 99 213 212
f 99 214 213
f 99 215 214
f 99 216 215
f 99 217 216
f 147 249 250
f 147 250 251
f 147 251 252
f 147 252 253
f 147 253 254
f 147 254 255
f 147 255 256
f 147 256 257
f 147 257 258
f 147 258 259
f 147 259 260
f 147 260 261
f 147 261 262
f 147 262 263
f 147 263 264
f 147 264 265
f 99 218 217
f 99 219 218
f 99 220 219
f 99 221 220
f 99 222 221
f 99 223 222
f 99 224 223
f 99 225 224
f 99 226 225
f 99 227 226
f 99 228 227
f 99 229 228
f 99 230 229
f 99 231 230
f 99 232 231
f 99 233 232
f 99 234 233
f 99 235 234
f 99 236 235
f 99 237 236
f 99 238 237
f 99 239 238
f 99 240 239
f 99 241 240
f 99 242 241
f 99 243 242
f 99 244 243
f 99 245 244
f 99 246 245
f 99 247 246
f 99 248 247
f 99 297 248
f 147 265 266
f 147 266 267
f 147 267 268
f 147 268 269
f 147 269 270
f 147 270 271
f 147 271 272
f 147 272 273
f 147 273 274
f 147 274 275
f 147 275 276
f 147 276 277
f 147 277 278
f 147 278 279
f 147 279 280
f 147 280 281
f 147 281 282
f 147 282 283
f 147 283 284
f 147 284 285
f 147 285 286
f 147 286 287
f 147 287 288
f 147 288 289
f 147 289 290
f 147 290 291
f 147 291 292
f 147 292 293
f 147 293 294
f 147 294 295
f 147 295 296
f 147 296 298
f 201 202 249
f 202 203 250
f 203 204 251
f 204 205 252
f 205 206 253
f 206 207 254
f 207 208 255
f 208 209 256
f 209 210 257
f 210 211 258
f 211 212 259
f 212 213 260
f 213 214 261
f 214 215 262
f 215 216 263
f 216 217 264
f 202 250 249
f 203 251 250
f 204 252 251
f 205 253 252
f 206 254 253
f 207 255 254
f 208 256 255
f 209 257 256
f 210 258 257
f 211 259 258
f 212 260 259
f 213 261 260
f 214 262 261
f 215 263 262
f 216 264 263
f 217 265 264
f 217 218 265
f 218 219 266
f 219 220 267
f 220 221 268
f 221 222 269
f 222 223 270
f 223 224 271
f 224 225 272
f 225 226 273
f 226 227 274
f 227 228 275
f 228 229 276
f 229 230 277
f 230 231 278
f 231 232 279
f 232 233 280
f 218 266 265
f 219 267 266
f 220 268 267
f 221 269 268
f 222 270 269
f 223 271 270
f 224 272 271
f 225 273 272
f 226 274 273
f 227 275 274
f 228 276 275
f 229 277 276
f 230 278 277
f 231 279 278
f 232 280 279
f 233 281 280
f 233 234 281
f 234 235 282
f 235 236 283
f 236 237 284
f 237 238 285
f 238 239 286
f 239 240 287
f 240 241 288
f 241 242 289
f 242 243 290
f 243 244 291
f 244 245 292
f 245 246 293
f 246 247 294
f 247 248 295
f 248 297 296
f 234 282 281
f 235 283 282
f 236 284 283
f 237 285 284
f 238 286 285
f 239 287 286
f 240 288 287
f 241 289 288
f 242 290 289
f 243 291 290
f 244 292 291
f 245 293 292
f 246 294 293
f 247 295 294
f 248 296 295
f 297 298 296
f 297 316 298
f 298 299 195
f 99 316 297
f 99 300 301
f 99 301 302
f 99 302 303
f 99 303 304
f 99 304 305
f 99 305 306
f 99 306 307
f 99 307 308
f 99 308 309
f 99 309 311
f 99 310 312
f 99 312 313
f 99 313 314
f 99 314 315
f 99 315 335
f 99 311 310
f 99 341 332
f 99 345 331
f 99 344 345
f 99 343 344
f 99 348 347
f 99 334 333
f 99 332 334
f 99 333 348
f 99 342 346
f 99 346 343
f 99 347 342
f 99 317 316
f 99 318 317
f 99 319 318
f 99 320 319
f 99 321 320
f 99 322 321
f 99 326 325
f 99 327 326
f 99 324 327
f 99 328 324
f 99 323 322
f 99 325 323
f 99 329 328
f 99 331 330
f 99 330 329
f 99 336 337
f 99 337 339
f 99 335 336
f 99 338 340
f 99 339 338
f 99 340 341
f 196 350 300
f 198 349 350
f 298 366 299
f 298 316 366
f 366 367 299
f 367 368 299
f 300 351 301
f 301 352 302
f 302 353 303
f 303 354 304
f 304 355 305
f 305 356 306
f 306 357 307
f 307 358 308
f 308 359 309
f 309 361 311
f 310 362 312
f 310 311 360
f 315 385 335
f 312 363 313
f 313 364 314
f 314 365 315
f 300 350 351
f 301 351 352
f 302 352 353
f 303 353 354
f 304 354 355
f 305 355 356
f 306 356 357
f 307 357 358
f 308 358 359
f 309 359 361
f 310 360 362
f 311 361 360
f 312 362 363
f 313 363 364
f 314 364 365
f 315 365 385
f 316 317 366
f 317 318 367
f 318 319 368
f 319 320 369
f 320 321 370
f 321 322 371
f 322 323 372
f 323 325 373
f 324 328 374
f 325 326 375
f 326 327 376
f 324 377 327
f 329 330 379
f 328 329 378
f 330 331 380
f 331 345 381
f 317 367 366
f 318 368 367
f 319 369 368
f 320 370 369
f 321 371 370
f 322 372 371
f 325 375 373
f 323 373 372
f 345 395 381
f 328 378 374
f 326 376 375
f 327 377 376
f 324 374 377
f 330 380 379
f 329 379 378
f 331 381 380
f 332 341 382
f 333 398 348
f 332 384 334
f 333 334 383
f 335 386 336
f 336 387 337
f 338 339 388
f 337 389 339
f 338 390 340
f 340 391 341
f 342 396 346
f 342 347 392
f 343 394 344
f 344 395 345
f 343 346 393
f 347 348 397
f 341 391 382
f 333 383 398
f 334 384 383
f 332 382 384
f 335 385 386
f 336 386 387
f 339 389 388
f 338 388 390
f 337 387 389
f 340 390 391
f 342 392 396
f 343 393 394
f 344 394 395
f 346 396 393
f 348 398 397
f 347 397 392
f 390 349 299
f 390 299 391
f 383 384 299
f 383 299 398
f 382 391 299
f 382 299 384
f 350 349 351
f 351 349 352
f 352 349 353
f 353 349 354
f 354 349 355
f 355 349 356
f 358 349 359
f 359 349 361
f 360 361 349
f 360 349 362
f 356 349 357
f 357 349 358
f 362 349 363
f 363 349 364
f 364 349 365
f 385 349 386
f 386 349 387
f 365 349 385
f 388 389 349
f 387 349 389
f 388 349 390
f 374 378 299
f 378 379 299
f 368 369 299
f 369 370 299
f 371 372 299
f 372 373 299
f 370 371 299
f 373 375 299
f 375 376 299
f 376 377 299
f 374 299 377
f 393 299 394
f 392 299 396
f 393 396 299
f 380 381 299
f 394 299 395
f 381 395 299
f 379 380 299
f 397 398 299
f 392 397 299
f 200 197 195
f 199 195 299
f 199 200 195
f 200 400 197
f 199 400 200
f 400 349 197
f 399 299 349
f 199 299 399
f 199 399 400
f 399 349 400
